<?xml version="1.0" encoding="UTF-8" standalone="no"?>
<!DOCTYPE svg PUBLIC "-//W3C//DTD SVG 1.1//EN" "http://www.w3.org/Graphics/SVG/1.1/DTD/svg11.dtd">
<!-- Generated by graphviz version 2.40.1 (20161225.0304)
 -->
<!-- Title: G Pages: 1 -->
<svg width="868pt" height="127pt" viewBox="0.00 0.00 868.00 127.00" xmlns="http://www.w3.org/2000/svg" xmlns:xlink="http://www.w3.org/1999/xlink">
<g id="graph0" class="graph" transform="scale(1 1) rotate(0) translate(4 123)">
<title>G</title>
<polygon fill="#ffffff" stroke="transparent" points="-4,4 -4,-123 864,-123 864,4 -4,4"/>
<!-- in -->
<g id="node1" class="node">
<title>in</title>
<ellipse fill="none" stroke="#000000" cx="11" cy="-35.5" rx="11" ry="11"/>
<text text-anchor="middle" x="11" y="-29.5" font-family="Times,serif" font-size="20.00" fill="#000000">•</text>
</g>
<!-- a -->
<g id="node9" class="node">
<title>a</title>
<polygon fill="none" stroke="#000000" points="87,-50 58,-50 58,-21 87,-21 87,-50"/>
<text text-anchor="middle" x="72.5" y="-31.3" font-family="Times,serif" font-size="14.00" fill="#000000">a</text>
</g>
<!-- in&#45;&gt;a -->
<g id="edge1" class="edge">
<title>in-&gt;a</title>
<path fill="none" stroke="#000000" d="M22.28,-35.5C29.3801,-35.5 38.8328,-35.5 47.621,-35.5"/>
<polygon fill="#000000" stroke="#000000" points="47.8083,-39.0001 57.8083,-35.5 47.8083,-32.0001 47.8083,-39.0001"/>
</g>
<!-- out -->
<g id="node2" class="node">
<title>out</title>
<ellipse fill="#000000" stroke="#000000" cx="849" cy="-35.5" rx="11" ry="11"/>
</g>
<!-- x1 -->
<g id="node3" class="node">
<title>x1</title>
<polygon fill="#ffff00" stroke="#000000" points="137.5,-50 123,-35.5 137.5,-21 152,-35.5 137.5,-50"/>
<text text-anchor="start" x="133" y="-31.9" font-family="Times,serif" font-size="12.00" fill="#000000">✕</text>
</g>
<!-- o1 -->
<g id="node5" class="node">
<title>o1</title>
<polygon fill="#ffff00" stroke="#000000" points="202.5,-72 188,-57.5 202.5,-43 217,-57.5 202.5,-72"/>
<text text-anchor="start" x="196.1646" y="-53.9" font-family="Times,serif" font-size="12.00" fill="#000000">◯</text>
</g>
<!-- x1&#45;&gt;o1 -->
<g id="edge3" class="edge">
<title>x1-&gt;o1</title>
<path fill="none" stroke="#000000" d="M148.5264,-39.232C157.6392,-42.3163 170.8289,-46.7806 181.8884,-50.5238"/>
<polygon fill="#000000" stroke="#000000" points="181.0422,-53.9323 191.6365,-53.8231 183.2864,-47.3018 181.0422,-53.9323"/>
</g>
<!-- f -->
<g id="node15" class="node">
<title>f</title>
<polygon fill="none" stroke="#000000" points="347,-29 318,-29 318,0 347,0 347,-29"/>
<text text-anchor="middle" x="332.5" y="-10.3" font-family="Times,serif" font-size="14.00" fill="#000000">f</text>
</g>
<!-- x1&#45;&gt;f -->
<g id="edge6" class="edge">
<title>x1-&gt;f</title>
<path fill="none" stroke="#000000" d="M150.5973,-34.0895C182.7366,-30.6284 265.9182,-21.6703 307.7338,-17.1671"/>
<polygon fill="#000000" stroke="#000000" points="308.3192,-20.6244 317.8869,-16.0737 307.5696,-13.6647 308.3192,-20.6244"/>
</g>
<!-- x2 -->
<g id="node4" class="node">
<title>x2</title>
<polygon fill="#ffff00" stroke="#000000" points="722.5,-50 708,-35.5 722.5,-21 737,-35.5 722.5,-50"/>
<text text-anchor="start" x="718" y="-31.9" font-family="Times,serif" font-size="12.00" fill="#000000">✕</text>
</g>
<!-- d -->
<g id="node13" class="node">
<title>d</title>
<polygon fill="none" stroke="#000000" points="802,-50 773,-50 773,-21 802,-21 802,-50"/>
<text text-anchor="middle" x="787.5" y="-31.3" font-family="Times,serif" font-size="14.00" fill="#000000">d</text>
</g>
<!-- x2&#45;&gt;d -->
<g id="edge18" class="edge">
<title>x2-&gt;d</title>
<path fill="none" stroke="#000000" d="M737.2495,-35.5C744.7291,-35.5 754.0181,-35.5 762.5673,-35.5"/>
<polygon fill="#000000" stroke="#000000" points="762.8089,-39.0001 772.8089,-35.5 762.8088,-32.0001 762.8089,-39.0001"/>
</g>
<!-- ba -->
<g id="node10" class="node">
<title>ba</title>
<polygon fill="none" stroke="#000000" points="282,-119 253,-119 253,-90 282,-90 282,-119"/>
<text text-anchor="middle" x="267.5" y="-100.3" font-family="Times,serif" font-size="14.00" fill="#000000">b</text>
</g>
<!-- o1&#45;&gt;ba -->
<g id="edge4" class="edge">
<title>o1-&gt;ba</title>
<path fill="none" stroke="#000000" d="M210.9976,-63.6444C219.4436,-69.7516 232.7761,-79.392 244.3694,-87.7748"/>
<polygon fill="#000000" stroke="#000000" points="242.6317,-90.8374 252.786,-93.8607 246.7333,-85.1649 242.6317,-90.8374"/>
</g>
<!-- s1 -->
<g id="node16" class="node">
<title>s1</title>
<polygon fill="#000000" stroke="#000000" points="282,-72 253,-72 253,-43 282,-43 282,-72"/>
</g>
<!-- o1&#45;&gt;s1 -->
<g id="edge16" class="edge">
<title>o1-&gt;s1</title>
<path fill="none" stroke="#000000" d="M217.2495,-57.5C224.7291,-57.5 234.0181,-57.5 242.5673,-57.5"/>
<polygon fill="#000000" stroke="#000000" points="242.8089,-61.0001 252.8089,-57.5 242.8088,-54.0001 242.8089,-61.0001"/>
</g>
<!-- o2 -->
<g id="node6" class="node">
<title>o2</title>
<polygon fill="#ffff00" stroke="#000000" points="332.5,-97 318,-82.5 332.5,-68 347,-82.5 332.5,-97"/>
<text text-anchor="start" x="326.1646" y="-78.9" font-family="Times,serif" font-size="12.00" fill="#000000">◯</text>
</g>
<!-- c -->
<g id="node12" class="node">
<title>c</title>
<polygon fill="none" stroke="#000000" points="412,-97 383,-97 383,-68 412,-68 412,-97"/>
<text text-anchor="middle" x="397.5" y="-78.3" font-family="Times,serif" font-size="14.00" fill="#000000">c</text>
</g>
<!-- o2&#45;&gt;c -->
<g id="edge8" class="edge">
<title>o2-&gt;c</title>
<path fill="none" stroke="#000000" d="M347.2495,-82.5C354.7291,-82.5 364.0181,-82.5 372.5673,-82.5"/>
<polygon fill="#000000" stroke="#000000" points="372.8089,-86.0001 382.8089,-82.5 372.8088,-79.0001 372.8089,-86.0001"/>
</g>
<!-- o3 -->
<g id="node7" class="node">
<title>o3</title>
<polygon fill="#ffff00" stroke="#000000" points="527.5,-97 513,-82.5 527.5,-68 542,-82.5 527.5,-97"/>
<text text-anchor="start" x="521.1646" y="-78.9" font-family="Times,serif" font-size="12.00" fill="#000000">◯</text>
</g>
<!-- e -->
<g id="node14" class="node">
<title>e</title>
<polygon fill="none" stroke="#000000" points="607,-119 578,-119 578,-90 607,-90 607,-119"/>
<text text-anchor="middle" x="592.5" y="-100.3" font-family="Times,serif" font-size="14.00" fill="#000000">e</text>
</g>
<!-- o3&#45;&gt;e -->
<g id="edge11" class="edge">
<title>o3-&gt;e</title>
<path fill="none" stroke="#000000" d="M538.5264,-86.232C546.6759,-88.9903 558.0861,-92.8522 568.3173,-96.3151"/>
<polygon fill="#000000" stroke="#000000" points="567.3968,-99.6985 577.9911,-99.5893 569.6411,-93.068 567.3968,-99.6985"/>
</g>
<!-- s2 -->
<g id="node17" class="node">
<title>s2</title>
<polygon fill="#000000" stroke="#000000" points="607,-72 578,-72 578,-43 607,-43 607,-72"/>
</g>
<!-- o3&#45;&gt;s2 -->
<g id="edge13" class="edge">
<title>o3-&gt;s2</title>
<path fill="none" stroke="#000000" d="M538.2334,-78.3718C546.431,-75.2188 558.0481,-70.7507 568.4315,-66.7571"/>
<polygon fill="#000000" stroke="#000000" points="569.78,-69.9885 577.857,-63.1319 567.2671,-63.4551 569.78,-69.9885"/>
</g>
<!-- o4 -->
<g id="node8" class="node">
<title>o4</title>
<polygon fill="#ffff00" stroke="#000000" points="657.5,-72 643,-57.5 657.5,-43 672,-57.5 657.5,-72"/>
<text text-anchor="start" x="651.1646" y="-53.9" font-family="Times,serif" font-size="12.00" fill="#000000">◯</text>
</g>
<!-- o4&#45;&gt;x2 -->
<g id="edge15" class="edge">
<title>o4-&gt;x2</title>
<path fill="none" stroke="#000000" d="M668.5264,-53.768C677.6392,-50.6837 690.8289,-46.2194 701.8884,-42.4762"/>
<polygon fill="#000000" stroke="#000000" points="703.2864,-45.6982 711.6365,-39.1769 701.0422,-39.0677 703.2864,-45.6982"/>
</g>
<!-- a&#45;&gt;x1 -->
<g id="edge2" class="edge">
<title>a-&gt;x1</title>
<path fill="none" stroke="#000000" d="M87.2495,-35.5C94.7291,-35.5 104.0181,-35.5 112.5673,-35.5"/>
<polygon fill="#000000" stroke="#000000" points="112.8089,-39.0001 122.8089,-35.5 112.8088,-32.0001 112.8089,-39.0001"/>
</g>
<!-- ba&#45;&gt;o2 -->
<g id="edge5" class="edge">
<title>ba-&gt;o2</title>
<path fill="none" stroke="#000000" d="M282.2495,-99.5079C291.0518,-96.5286 302.3599,-92.7012 312.0193,-89.4319"/>
<polygon fill="#000000" stroke="#000000" points="313.307,-92.6912 321.6571,-86.1699 311.0628,-86.0607 313.307,-92.6912"/>
</g>
<!-- bb -->
<g id="node11" class="node">
<title>bb</title>
<polygon fill="none" stroke="#000000" points="477,-97 448,-97 448,-68 477,-68 477,-97"/>
<text text-anchor="middle" x="462.5" y="-78.3" font-family="Times,serif" font-size="14.00" fill="#000000">b</text>
</g>
<!-- bb&#45;&gt;o3 -->
<g id="edge10" class="edge">
<title>bb-&gt;o3</title>
<path fill="none" stroke="#000000" d="M477.2495,-82.5C484.7291,-82.5 494.0181,-82.5 502.5673,-82.5"/>
<polygon fill="#000000" stroke="#000000" points="502.8089,-86.0001 512.8089,-82.5 502.8088,-79.0001 502.8089,-86.0001"/>
</g>
<!-- c&#45;&gt;bb -->
<g id="edge9" class="edge">
<title>c-&gt;bb</title>
<path fill="none" stroke="#000000" d="M412.2495,-82.5C419.7291,-82.5 429.0181,-82.5 437.5673,-82.5"/>
<polygon fill="#000000" stroke="#000000" points="437.8089,-86.0001 447.8089,-82.5 437.8088,-79.0001 437.8089,-86.0001"/>
</g>
<!-- d&#45;&gt;out -->
<g id="edge19" class="edge">
<title>d-&gt;out</title>
<path fill="none" stroke="#000000" d="M802.0746,-35.5C809.6815,-35.5 819.1346,-35.5 827.5586,-35.5"/>
<polygon fill="#000000" stroke="#000000" points="827.7982,-39.0001 837.7982,-35.5 827.7981,-32.0001 827.7982,-39.0001"/>
</g>
<!-- e&#45;&gt;o4 -->
<g id="edge12" class="edge">
<title>e-&gt;o4</title>
<path fill="none" stroke="#000000" d="M607.2495,-93.835C617.2153,-86.629 630.3932,-77.1003 640.7537,-69.6089"/>
<polygon fill="#000000" stroke="#000000" points="642.9288,-72.3552 648.9815,-63.6595 638.8272,-66.6828 642.9288,-72.3552"/>
</g>
<!-- f&#45;&gt;x2 -->
<g id="edge7" class="edge">
<title>f-&gt;x2</title>
<path fill="none" stroke="#000000" d="M347.317,-14.5C371.4497,-14.5 420.7465,-14.5 462.5,-14.5 462.5,-14.5 462.5,-14.5 592.5,-14.5 631.1082,-14.5 675.3503,-23.6384 700.9924,-29.8586"/>
<polygon fill="#000000" stroke="#000000" points="700.2215,-33.2736 710.7725,-32.3106 701.9238,-26.4837 700.2215,-33.2736"/>
</g>
<!-- s1&#45;&gt;o2 -->
<g id="edge17" class="edge">
<title>s1-&gt;o2</title>
<path fill="none" stroke="#000000" d="M282.2495,-63.1729C291.0518,-66.5584 302.3599,-70.9077 312.0193,-74.6228"/>
<polygon fill="#000000" stroke="#000000" points="311.0671,-78.0065 321.6571,-78.3296 313.58,-71.4731 311.0671,-78.0065"/>
</g>
<!-- s2&#45;&gt;o4 -->
<g id="edge14" class="edge">
<title>s2-&gt;o4</title>
<path fill="none" stroke="#000000" d="M607.2495,-57.5C614.7291,-57.5 624.0181,-57.5 632.5673,-57.5"/>
<polygon fill="#000000" stroke="#000000" points="632.8089,-61.0001 642.8089,-57.5 632.8088,-54.0001 632.8089,-61.0001"/>
</g>
</g>
</svg>