<?xml version="1.0" encoding="UTF-8" standalone="no"?>
<!DOCTYPE svg PUBLIC "-//W3C//DTD SVG 1.1//EN" "http://www.w3.org/Graphics/SVG/1.1/DTD/svg11.dtd">
<!-- Generated by graphviz version 2.40.1 (20161225.0304)
 -->
<!-- Title: G Pages: 1 -->
<svg width="478pt" height="84pt" viewBox="0.00 0.00 478.00 84.00" xmlns="http://www.w3.org/2000/svg" xmlns:xlink="http://www.w3.org/1999/xlink">
<g id="graph0" class="graph" transform="scale(1 1) rotate(0) translate(4 80)">
<title>G</title>
<polygon fill="#ffffff" stroke="transparent" points="-4,4 -4,-80 474,-80 474,4 -4,4"/>
<!-- in -->
<g id="node1" class="node">
<title>in</title>
<ellipse fill="none" stroke="#000000" cx="11" cy="-37.5" rx="11" ry="11"/>
<text text-anchor="middle" x="11" y="-31.5" font-family="Times,serif" font-size="20.00" fill="#000000">•</text>
</g>
<!-- a -->
<g id="node5" class="node">
<title>a</title>
<polygon fill="none" stroke="#000000" points="87,-52 58,-52 58,-23 87,-23 87,-52"/>
<text text-anchor="middle" x="72.5" y="-33.3" font-family="Times,serif" font-size="14.00" fill="#000000">a</text>
</g>
<!-- in&#45;&gt;a -->
<g id="edge1" class="edge">
<title>in-&gt;a</title>
<path fill="none" stroke="#000000" d="M22.28,-37.5C29.3801,-37.5 38.8328,-37.5 47.621,-37.5"/>
<polygon fill="#000000" stroke="#000000" points="47.8083,-41.0001 57.8083,-37.5 47.8083,-34.0001 47.8083,-41.0001"/>
</g>
<!-- out -->
<g id="node2" class="node">
<title>out</title>
<ellipse fill="#000000" stroke="#000000" cx="459" cy="-37.5" rx="11" ry="11"/>
</g>
<!-- o1 -->
<g id="node3" class="node">
<title>o1</title>
<polygon fill="#ffff00" stroke="#000000" points="137.5,-52 123,-37.5 137.5,-23 152,-37.5 137.5,-52"/>
<text text-anchor="start" x="131.1646" y="-33.9" font-family="Times,serif" font-size="12.00" fill="#000000">◯</text>
</g>
<!-- b -->
<g id="node6" class="node">
<title>b</title>
<polygon fill="none" stroke="#000000" points="217,-76 188,-76 188,-47 217,-47 217,-76"/>
<text text-anchor="middle" x="202.5" y="-57.3" font-family="Times,serif" font-size="14.00" fill="#000000">b</text>
</g>
<!-- o1&#45;&gt;b -->
<g id="edge3" class="edge">
<title>o1-&gt;b</title>
<path fill="none" stroke="#000000" d="M148.2334,-41.4631C156.431,-44.4899 168.0481,-48.7793 178.4315,-52.6132"/>
<polygon fill="#000000" stroke="#000000" points="177.2637,-55.9129 187.857,-56.0934 179.6884,-49.3462 177.2637,-55.9129"/>
</g>
<!-- c -->
<g id="node7" class="node">
<title>c</title>
<polygon fill="none" stroke="#000000" points="217,-29 188,-29 188,0 217,0 217,-29"/>
<text text-anchor="middle" x="202.5" y="-10.3" font-family="Times,serif" font-size="14.00" fill="#000000">c</text>
</g>
<!-- o1&#45;&gt;c -->
<g id="edge5" class="edge">
<title>o1-&gt;c</title>
<path fill="none" stroke="#000000" d="M148.2334,-33.702C156.3465,-30.8312 167.8089,-26.7753 178.11,-23.1303"/>
<polygon fill="#000000" stroke="#000000" points="179.5973,-26.3167 187.857,-19.6814 177.2623,-19.7177 179.5973,-26.3167"/>
</g>
<!-- o2 -->
<g id="node4" class="node">
<title>o2</title>
<polygon fill="#ffff00" stroke="#000000" points="267.5,-52 253,-37.5 267.5,-23 282,-37.5 267.5,-52"/>
<text text-anchor="start" x="261.1646" y="-33.9" font-family="Times,serif" font-size="12.00" fill="#000000">◯</text>
</g>
<!-- d -->
<g id="node8" class="node">
<title>d</title>
<polygon fill="none" stroke="#000000" points="347,-52 318,-52 318,-23 347,-23 347,-52"/>
<text text-anchor="middle" x="332.5" y="-33.3" font-family="Times,serif" font-size="14.00" fill="#000000">d</text>
</g>
<!-- o2&#45;&gt;d -->
<g id="edge7" class="edge">
<title>o2-&gt;d</title>
<path fill="none" stroke="#000000" d="M282.2495,-37.5C289.7291,-37.5 299.0181,-37.5 307.5673,-37.5"/>
<polygon fill="#000000" stroke="#000000" points="307.8089,-41.0001 317.8089,-37.5 307.8088,-34.0001 307.8089,-41.0001"/>
</g>
<!-- a&#45;&gt;o1 -->
<g id="edge2" class="edge">
<title>a-&gt;o1</title>
<path fill="none" stroke="#000000" d="M87.2495,-37.5C94.7291,-37.5 104.0181,-37.5 112.5673,-37.5"/>
<polygon fill="#000000" stroke="#000000" points="112.8089,-41.0001 122.8089,-37.5 112.8088,-34.0001 112.8089,-41.0001"/>
</g>
<!-- b&#45;&gt;o2 -->
<g id="edge4" class="edge">
<title>b-&gt;o2</title>
<path fill="none" stroke="#000000" d="M217.2495,-56.054C226.0518,-52.804 237.3599,-48.6286 247.0193,-45.0621"/>
<polygon fill="#000000" stroke="#000000" points="248.4884,-48.2507 256.6571,-41.5035 246.0638,-41.684 248.4884,-48.2507"/>
</g>
<!-- c&#45;&gt;o2 -->
<g id="edge6" class="edge">
<title>c-&gt;o2</title>
<path fill="none" stroke="#000000" d="M217.2495,-19.7191C226.0518,-22.8337 237.3599,-26.8351 247.0193,-30.253"/>
<polygon fill="#000000" stroke="#000000" points="246.0623,-33.6269 256.6571,-33.6633 248.3974,-27.0279 246.0623,-33.6269"/>
</g>
<!-- d&#45;&gt;d -->
<g id="edge8" class="edge">
<title>d-&gt;d</title>
<path fill="none" stroke="#000000" d="M321.3467,-52.2065C318.6572,-61.3235 322.375,-70 332.5,-70 338.5117,-70 342.2646,-66.9412 343.7588,-62.5476"/>
<polygon fill="#000000" stroke="#000000" points="347.2552,-62.1703 343.6533,-52.2065 340.2556,-62.2417 347.2552,-62.1703"/>
</g>
<!-- e -->
<g id="node9" class="node">
<title>e</title>
<polygon fill="none" stroke="#000000" points="412,-52 383,-52 383,-23 412,-23 412,-52"/>
<text text-anchor="middle" x="397.5" y="-33.3" font-family="Times,serif" font-size="14.00" fill="#000000">e</text>
</g>
<!-- d&#45;&gt;e -->
<g id="edge9" class="edge">
<title>d-&gt;e</title>
<path fill="none" stroke="#000000" d="M347.2495,-37.5C354.7291,-37.5 364.0181,-37.5 372.5673,-37.5"/>
<polygon fill="#000000" stroke="#000000" points="372.8089,-41.0001 382.8089,-37.5 372.8088,-34.0001 372.8089,-41.0001"/>
</g>
<!-- e&#45;&gt;out -->
<g id="edge10" class="edge">
<title>e-&gt;out</title>
<path fill="none" stroke="#000000" d="M412.0746,-37.5C419.6815,-37.5 429.1346,-37.5 437.5586,-37.5"/>
<polygon fill="#000000" stroke="#000000" points="437.7982,-41.0001 447.7982,-37.5 437.7981,-34.0001 437.7982,-41.0001"/>
</g>
</g>
</svg>