<?xml version="1.0" encoding="UTF-8" standalone="no"?>
<!DOCTYPE svg PUBLIC "-//W3C//DTD SVG 1.1//EN" "http://www.w3.org/Graphics/SVG/1.1/DTD/svg11.dtd">
<!-- Generated by graphviz version 2.40.1 (20161225.0304)
 -->
<!-- Title: G Pages: 1 -->
<svg width="1604pt" height="205pt" viewBox="0.00 0.00 1604.00 205.00" xmlns="http://www.w3.org/2000/svg" xmlns:xlink="http://www.w3.org/1999/xlink">
<g id="graph0" class="graph" transform="scale(1 1) rotate(0) translate(4 201)">
<title>G</title>
<polygon fill="#ffffff" stroke="transparent" points="-4,4 -4,-201 1600,-201 1600,4 -4,4"/>
<!-- in -->
<g id="node1" class="node">
<title>in</title>
<ellipse fill="none" stroke="#000000" cx="11" cy="-64" rx="11" ry="11"/>
</g>
<!-- a -->
<g id="node14" class="node">
<title>a</title>
<path fill="none" stroke="#000000" d="M67.6667,-49.5C67.6667,-49.5 95.3333,-49.5 95.3333,-49.5 100.1667,-49.5 105,-54.3333 105,-59.1667 105,-59.1667 105,-68.8333 105,-68.8333 105,-73.6667 100.1667,-78.5 95.3333,-78.5 95.3333,-78.5 67.6667,-78.5 67.6667,-78.5 62.8333,-78.5 58,-73.6667 58,-68.8333 58,-68.8333 58,-59.1667 58,-59.1667 58,-54.3333 62.8333,-49.5 67.6667,-49.5"/>
<text text-anchor="middle" x="81.5" y="-59.9" font-family="Times,serif" font-size="14.00" fill="#000000">a</text>
</g>
<!-- in&#45;&gt;a -->
<g id="edge1" class="edge">
<title>in-&gt;a</title>
<path fill="none" stroke="#000000" d="M22.0156,-64C28.9374,-64 38.2756,-64 47.4995,-64"/>
<polygon fill="#000000" stroke="#000000" points="47.7302,-67.5001 57.7302,-64 47.7302,-60.5001 47.7302,-67.5001"/>
</g>
<!-- out -->
<g id="node2" class="node">
<title>out</title>
<ellipse fill="none" stroke="#000000" stroke-width="3" cx="1585" cy="-74" rx="11" ry="11"/>
</g>
<!-- x1 -->
<g id="node3" class="node">
<title>x1</title>
<polygon fill="#ffff00" stroke="#000000" points="487.5,-86.5 473,-72 487.5,-57.5 502,-72 487.5,-86.5"/>
<text text-anchor="start" x="483" y="-68.4" font-family="Times,serif" font-size="12.00" fill="#000000">✕</text>
</g>
<!-- x3 -->
<g id="node4" class="node">
<title>x3</title>
<polygon fill="#ffff00" stroke="#000000" points="552.5,-86.5 538,-72 552.5,-57.5 567,-72 552.5,-86.5"/>
<text text-anchor="start" x="548" y="-68.4" font-family="Times,serif" font-size="12.00" fill="#000000">✕</text>
</g>
<!-- x1&#45;&gt;x3 -->
<g id="edge8" class="edge">
<title>x1-&gt;x3</title>
<path fill="none" stroke="#000000" d="M502.2495,-72C509.7291,-72 519.0181,-72 527.5673,-72"/>
<polygon fill="#000000" stroke="#000000" points="527.8089,-75.5001 537.8089,-72 527.8088,-68.5001 527.8089,-75.5001"/>
</g>
<!-- d -->
<g id="node17" class="node">
<title>d</title>
<path fill="none" stroke="#000000" d="M316.6667,-49.5C316.6667,-49.5 344.3333,-49.5 344.3333,-49.5 349.1667,-49.5 354,-54.3333 354,-59.1667 354,-59.1667 354,-68.8333 354,-68.8333 354,-73.6667 349.1667,-78.5 344.3333,-78.5 344.3333,-78.5 316.6667,-78.5 316.6667,-78.5 311.8333,-78.5 307,-73.6667 307,-68.8333 307,-68.8333 307,-59.1667 307,-59.1667 307,-54.3333 311.8333,-49.5 316.6667,-49.5"/>
<text text-anchor="middle" x="330.5" y="-59.9" font-family="Times,serif" font-size="14.00" fill="#000000">d</text>
</g>
<!-- x1&#45;&gt;d -->
<g id="edge7" class="edge">
<title>x1:s-&gt;d</title>
<path fill="none" stroke="#000000" d="M487.5,-57C487.5,-7.7113 409.3197,-31.471 363.2973,-49.7277"/>
<polygon fill="#000000" stroke="#000000" points="361.9462,-46.4987 354.0045,-53.5116 364.5861,-52.9819 361.9462,-46.4987"/>
</g>
<!-- o1 -->
<g id="node6" class="node">
<title>o1</title>
<polygon fill="#ffff00" stroke="#000000" points="617.5,-161.5 603,-147 617.5,-132.5 632,-147 617.5,-161.5"/>
<text text-anchor="start" x="613" y="-143.4" font-family="Times,serif" font-size="12.00" fill="#000000">✕</text>
</g>
<!-- x3&#45;&gt;o1 -->
<g id="edge9" class="edge">
<title>x3-&gt;o1</title>
<path fill="none" stroke="#000000" d="M559.4561,-80.0263C569.9567,-92.1424 590.068,-115.3477 603.6353,-131.0023"/>
<polygon fill="#000000" stroke="#000000" points="601.2026,-133.5394 610.3968,-138.804 606.4924,-128.9548 601.2026,-133.5394"/>
</g>
<!-- x5 -->
<g id="node8" class="node">
<title>x5</title>
<polygon fill="#ffff00" stroke="#000000" points="617.5,-86.5 603,-72 617.5,-57.5 632,-72 617.5,-86.5"/>
<text text-anchor="start" x="613" y="-68.4" font-family="Times,serif" font-size="12.00" fill="#000000">✕</text>
</g>
<!-- x3&#45;&gt;x5 -->
<g id="edge16" class="edge">
<title>x3-&gt;x5</title>
<path fill="none" stroke="#000000" d="M567.2495,-72C574.7291,-72 584.0181,-72 592.5673,-72"/>
<polygon fill="#000000" stroke="#000000" points="592.8089,-75.5001 602.8089,-72 592.8088,-68.5001 592.8089,-75.5001"/>
</g>
<!-- f -->
<g id="node19" class="node">
<title>f</title>
<path fill="none" stroke="#000000" d="M760.6667,-.5C760.6667,-.5 788.3333,-.5 788.3333,-.5 793.1667,-.5 798,-5.3333 798,-10.1667 798,-10.1667 798,-19.8333 798,-19.8333 798,-24.6667 793.1667,-29.5 788.3333,-29.5 788.3333,-29.5 760.6667,-29.5 760.6667,-29.5 755.8333,-29.5 751,-24.6667 751,-19.8333 751,-19.8333 751,-10.1667 751,-10.1667 751,-5.3333 755.8333,-.5 760.6667,-.5"/>
<text text-anchor="middle" x="774.5" y="-10.9" font-family="Times,serif" font-size="14.00" fill="#000000">f</text>
</g>
<!-- x3&#45;&gt;f -->
<g id="edge14" class="edge">
<title>x3-&gt;f</title>
<path fill="none" stroke="#000000" d="M562.4401,-66.9498C572.5385,-61.8969 588.6867,-54.0293 603,-48 631.3801,-36.0453 637.9403,-30.6905 668,-24 692.0164,-18.6545 719.7258,-16.432 740.8594,-15.5314"/>
<polygon fill="#000000" stroke="#000000" points="741.0863,-19.0257 750.9583,-15.1794 740.8424,-12.03 741.0863,-19.0257"/>
</g>
<!-- x4 -->
<g id="node5" class="node">
<title>x4</title>
<polygon fill="#ffff00" stroke="#000000" points="848.5,-96.5 834,-82 848.5,-67.5 863,-82 848.5,-96.5"/>
<text text-anchor="start" x="844" y="-78.4" font-family="Times,serif" font-size="12.00" fill="#000000">✕</text>
</g>
<!-- o3 -->
<g id="node10" class="node">
<title>o3</title>
<polygon fill="#ffff00" stroke="#000000" points="913.5,-96.5 899,-82 913.5,-67.5 928,-82 913.5,-96.5"/>
<text text-anchor="start" x="909" y="-78.4" font-family="Times,serif" font-size="12.00" fill="#000000">✕</text>
</g>
<!-- x4&#45;&gt;o3 -->
<g id="edge22" class="edge">
<title>x4-&gt;o3</title>
<path fill="none" stroke="#000000" d="M863.2495,-82C870.7291,-82 880.0181,-82 888.5673,-82"/>
<polygon fill="#000000" stroke="#000000" points="888.8089,-85.5001 898.8089,-82 888.8088,-78.5001 888.8089,-85.5001"/>
</g>
<!-- o2 -->
<g id="node7" class="node">
<title>o2</title>
<polygon fill="#ffff00" stroke="#000000" points="774.5,-153.5 760,-139 774.5,-124.5 789,-139 774.5,-153.5"/>
<text text-anchor="start" x="770" y="-135.4" font-family="Times,serif" font-size="12.00" fill="#000000">✕</text>
</g>
<!-- o1&#45;&gt;o2 -->
<g id="edge12" class="edge">
<title>o1:se-&gt;o2</title>
<path fill="none" stroke="#000000" d="M625.5,-139C642.6475,-121.8525 714.6008,-129.8223 751.8835,-135.316"/>
<polygon fill="#000000" stroke="#000000" points="751.409,-138.7841 761.8247,-136.8439 752.4725,-131.8653 751.409,-138.7841"/>
</g>
<!-- m -->
<g id="node26" class="node">
<title>m</title>
<path fill="none" stroke="#000000" d="M677.6667,-167.5C677.6667,-167.5 705.3333,-167.5 705.3333,-167.5 710.1667,-167.5 715,-172.3333 715,-177.1667 715,-177.1667 715,-186.8333 715,-186.8333 715,-191.6667 710.1667,-196.5 705.3333,-196.5 705.3333,-196.5 677.6667,-196.5 677.6667,-196.5 672.8333,-196.5 668,-191.6667 668,-186.8333 668,-186.8333 668,-177.1667 668,-177.1667 668,-172.3333 672.8333,-167.5 677.6667,-167.5"/>
<text text-anchor="middle" x="691.5" y="-177.9" font-family="Times,serif" font-size="14.00" fill="#000000">m</text>
</g>
<!-- o1&#45;&gt;m -->
<g id="edge10" class="edge">
<title>o1-&gt;m</title>
<path fill="none" stroke="#000000" d="M627.48,-151.7203C635.4934,-155.5104 647.2249,-161.0591 658.463,-166.3744"/>
<polygon fill="#000000" stroke="#000000" points="657.1582,-169.629 667.6945,-170.7407 660.1512,-163.301 657.1582,-169.629"/>
</g>
<!-- o2&#45;&gt;x4 -->
<g id="edge13" class="edge">
<title>o2-&gt;x4</title>
<path fill="none" stroke="#000000" d="M782.702,-132.6822C794.5298,-123.5717 816.6324,-106.5467 831.9372,-94.7578"/>
<polygon fill="#000000" stroke="#000000" points="834.2473,-97.3964 840.0338,-88.5213 829.9757,-91.8508 834.2473,-97.3964"/>
</g>
<!-- j -->
<g id="node23" class="node">
<title>j</title>
<path fill="none" stroke="#000000" d="M677.6667,-81.5C677.6667,-81.5 705.3333,-81.5 705.3333,-81.5 710.1667,-81.5 715,-86.3333 715,-91.1667 715,-91.1667 715,-100.8333 715,-100.8333 715,-105.6667 710.1667,-110.5 705.3333,-110.5 705.3333,-110.5 677.6667,-110.5 677.6667,-110.5 672.8333,-110.5 668,-105.6667 668,-100.8333 668,-100.8333 668,-91.1667 668,-91.1667 668,-86.3333 672.8333,-81.5 677.6667,-81.5"/>
<text text-anchor="middle" x="691.5" y="-91.9" font-family="Times,serif" font-size="14.00" fill="#000000">j</text>
</g>
<!-- x5&#45;&gt;j -->
<g id="edge19" class="edge">
<title>x5-&gt;j</title>
<path fill="none" stroke="#000000" d="M628.739,-75.6451C636.6637,-78.2153 647.7184,-81.8006 658.3453,-85.2471"/>
<polygon fill="#000000" stroke="#000000" points="657.2905,-88.5844 667.8825,-88.3403 659.45,-81.9259 657.2905,-88.5844"/>
</g>
<!-- n -->
<g id="node27" class="node">
<title>n</title>
<path fill="none" stroke="#000000" d="M677.6667,-33.5C677.6667,-33.5 705.3333,-33.5 705.3333,-33.5 710.1667,-33.5 715,-38.3333 715,-43.1667 715,-43.1667 715,-52.8333 715,-52.8333 715,-57.6667 710.1667,-62.5 705.3333,-62.5 705.3333,-62.5 677.6667,-62.5 677.6667,-62.5 672.8333,-62.5 668,-57.6667 668,-52.8333 668,-52.8333 668,-43.1667 668,-43.1667 668,-38.3333 672.8333,-33.5 677.6667,-33.5"/>
<text text-anchor="middle" x="691.5" y="-43.9" font-family="Times,serif" font-size="14.00" fill="#000000">n</text>
</g>
<!-- x5&#45;&gt;n -->
<g id="edge17" class="edge">
<title>x5-&gt;n</title>
<path fill="none" stroke="#000000" d="M628.739,-68.3549C636.6637,-65.7847 647.7184,-62.1994 658.3453,-58.7529"/>
<polygon fill="#000000" stroke="#000000" points="659.45,-62.0741 667.8825,-55.6597 657.2905,-55.4156 659.45,-62.0741"/>
</g>
<!-- x6 -->
<g id="node9" class="node">
<title>x6</title>
<polygon fill="#ffff00" stroke="#000000" points="774.5,-96.5 760,-82 774.5,-67.5 789,-82 774.5,-96.5"/>
<text text-anchor="start" x="770" y="-78.4" font-family="Times,serif" font-size="12.00" fill="#000000">✕</text>
</g>
<!-- x6&#45;&gt;x4 -->
<g id="edge21" class="edge">
<title>x6-&gt;x4</title>
<path fill="none" stroke="#000000" d="M789.12,-82C798.9513,-82 812.1592,-82 823.6221,-82"/>
<polygon fill="#000000" stroke="#000000" points="823.9104,-85.5001 833.9104,-82 823.9103,-78.5001 823.9104,-85.5001"/>
</g>
<!-- o4 -->
<g id="node11" class="node">
<title>o4</title>
<polygon fill="#ffff00" stroke="#000000" points="1144.5,-92.5 1130,-78 1144.5,-63.5 1159,-78 1144.5,-92.5"/>
<text text-anchor="start" x="1140" y="-74.4" font-family="Times,serif" font-size="12.00" fill="#000000">✕</text>
</g>
<!-- o3&#45;&gt;o4 -->
<g id="edge26" class="edge">
<title>o3:se-&gt;o4</title>
<path fill="none" stroke="#000000" d="M921.5,-74C976.1364,-19.3636 1081.0892,-52.3335 1124.7207,-69.5315"/>
<polygon fill="#000000" stroke="#000000" points="1123.6191,-72.8623 1134.2,-73.4059 1126.2675,-66.3826 1123.6191,-72.8623"/>
</g>
<!-- g -->
<g id="node20" class="node">
<title>g</title>
<path fill="none" stroke="#000000" d="M973.6667,-85.5C973.6667,-85.5 1001.3333,-85.5 1001.3333,-85.5 1006.1667,-85.5 1011,-90.3333 1011,-95.1667 1011,-95.1667 1011,-104.8333 1011,-104.8333 1011,-109.6667 1006.1667,-114.5 1001.3333,-114.5 1001.3333,-114.5 973.6667,-114.5 973.6667,-114.5 968.8333,-114.5 964,-109.6667 964,-104.8333 964,-104.8333 964,-95.1667 964,-95.1667 964,-90.3333 968.8333,-85.5 973.6667,-85.5"/>
<text text-anchor="middle" x="987.5" y="-95.9" font-family="Times,serif" font-size="14.00" fill="#000000">g</text>
</g>
<!-- o3&#45;&gt;g -->
<g id="edge23" class="edge">
<title>o3-&gt;g</title>
<path fill="none" stroke="#000000" d="M925.3894,-84.892C933.1724,-86.7852 943.7621,-89.3611 953.9925,-91.8495"/>
<polygon fill="#000000" stroke="#000000" points="953.4419,-95.3176 963.9859,-94.2803 955.0964,-88.5159 953.4419,-95.3176"/>
</g>
<!-- o5 -->
<g id="node12" class="node">
<title>o5</title>
<polygon fill="#ffff00" stroke="#000000" points="1209.5,-92.5 1195,-78 1209.5,-63.5 1224,-78 1209.5,-92.5"/>
<text text-anchor="start" x="1205" y="-74.4" font-family="Times,serif" font-size="12.00" fill="#000000">✕</text>
</g>
<!-- o4&#45;&gt;o5 -->
<g id="edge27" class="edge">
<title>o4-&gt;o5</title>
<path fill="none" stroke="#000000" d="M1159.2495,-78C1166.7291,-78 1176.0181,-78 1184.5673,-78"/>
<polygon fill="#000000" stroke="#000000" points="1184.8089,-81.5001 1194.8089,-78 1184.8088,-74.5001 1184.8089,-81.5001"/>
</g>
<!-- o6 -->
<g id="node13" class="node">
<title>o6</title>
<polygon fill="#ffff00" stroke="#000000" points="1523.5,-88.5 1509,-74 1523.5,-59.5 1538,-74 1523.5,-88.5"/>
<text text-anchor="start" x="1519" y="-70.4" font-family="Times,serif" font-size="12.00" fill="#000000">✕</text>
</g>
<!-- o5&#45;&gt;o6 -->
<g id="edge32" class="edge">
<title>o5:se-&gt;o6</title>
<path fill="none" stroke="#000000" d="M1217.5,-70C1295.865,8.365 1449.6861,-43.6323 1503.9682,-65.5774"/>
<polygon fill="#000000" stroke="#000000" points="1502.8682,-68.9105 1513.4456,-69.5182 1505.5558,-62.447 1502.8682,-68.9105"/>
</g>
<!-- i -->
<g id="node22" class="node">
<title>i</title>
<path fill="none" stroke="#000000" d="M1269.6667,-81.5C1269.6667,-81.5 1297.3333,-81.5 1297.3333,-81.5 1302.1667,-81.5 1307,-86.3333 1307,-91.1667 1307,-91.1667 1307,-100.8333 1307,-100.8333 1307,-105.6667 1302.1667,-110.5 1297.3333,-110.5 1297.3333,-110.5 1269.6667,-110.5 1269.6667,-110.5 1264.8333,-110.5 1260,-105.6667 1260,-100.8333 1260,-100.8333 1260,-91.1667 1260,-91.1667 1260,-86.3333 1264.8333,-81.5 1269.6667,-81.5"/>
<text text-anchor="middle" x="1283.5" y="-91.9" font-family="Times,serif" font-size="14.00" fill="#000000">i</text>
</g>
<!-- o5&#45;&gt;i -->
<g id="edge28" class="edge">
<title>o5-&gt;i</title>
<path fill="none" stroke="#000000" d="M1221.3894,-80.892C1229.1724,-82.7852 1239.7621,-85.3611 1249.9925,-87.8495"/>
<polygon fill="#000000" stroke="#000000" points="1249.4419,-91.3176 1259.9859,-90.2803 1251.0964,-84.5159 1249.4419,-91.3176"/>
</g>
<!-- o6&#45;&gt;out -->
<g id="edge33" class="edge">
<title>o6-&gt;out</title>
<path fill="none" stroke="#000000" d="M1538.0746,-74C1545.6815,-74 1555.1346,-74 1563.5586,-74"/>
<polygon fill="#000000" stroke="#000000" points="1563.7982,-77.5001 1573.7982,-74 1563.7981,-70.5001 1563.7982,-77.5001"/>
</g>
<!-- b -->
<g id="node15" class="node">
<title>b</title>
<path fill="none" stroke="#000000" d="M150.6667,-49.5C150.6667,-49.5 178.3333,-49.5 178.3333,-49.5 183.1667,-49.5 188,-54.3333 188,-59.1667 188,-59.1667 188,-68.8333 188,-68.8333 188,-73.6667 183.1667,-78.5 178.3333,-78.5 178.3333,-78.5 150.6667,-78.5 150.6667,-78.5 145.8333,-78.5 141,-73.6667 141,-68.8333 141,-68.8333 141,-59.1667 141,-59.1667 141,-54.3333 145.8333,-49.5 150.6667,-49.5"/>
<text text-anchor="middle" x="164.5" y="-59.9" font-family="Times,serif" font-size="14.00" fill="#000000">b</text>
</g>
<!-- a&#45;&gt;b -->
<g id="edge2" class="edge">
<title>a-&gt;b</title>
<path fill="none" stroke="#000000" d="M105.0625,-64C113.0355,-64 122.1024,-64 130.7105,-64"/>
<polygon fill="#000000" stroke="#000000" points="130.8787,-67.5001 140.8786,-64 130.8786,-60.5001 130.8787,-67.5001"/>
</g>
<!-- c -->
<g id="node16" class="node">
<title>c</title>
<path fill="none" stroke="#000000" d="M233.6667,-49.5C233.6667,-49.5 261.3333,-49.5 261.3333,-49.5 266.1667,-49.5 271,-54.3333 271,-59.1667 271,-59.1667 271,-68.8333 271,-68.8333 271,-73.6667 266.1667,-78.5 261.3333,-78.5 261.3333,-78.5 233.6667,-78.5 233.6667,-78.5 228.8333,-78.5 224,-73.6667 224,-68.8333 224,-68.8333 224,-59.1667 224,-59.1667 224,-54.3333 228.8333,-49.5 233.6667,-49.5"/>
<text text-anchor="middle" x="247.5" y="-59.9" font-family="Times,serif" font-size="14.00" fill="#000000">c</text>
</g>
<!-- b&#45;&gt;c -->
<g id="edge3" class="edge">
<title>b-&gt;c</title>
<path fill="none" stroke="#000000" d="M188.0625,-64C196.0355,-64 205.1024,-64 213.7105,-64"/>
<polygon fill="#000000" stroke="#000000" points="213.8787,-67.5001 223.8786,-64 213.8786,-60.5001 213.8787,-67.5001"/>
</g>
<!-- c&#45;&gt;d -->
<g id="edge4" class="edge">
<title>c-&gt;d</title>
<path fill="none" stroke="#000000" d="M271.0625,-64C279.0355,-64 288.1024,-64 296.7105,-64"/>
<polygon fill="#000000" stroke="#000000" points="296.8787,-67.5001 306.8786,-64 296.8786,-60.5001 296.8787,-67.5001"/>
</g>
<!-- e -->
<g id="node18" class="node">
<title>e</title>
<path fill="none" stroke="#000000" d="M399.6667,-71.5C399.6667,-71.5 427.3333,-71.5 427.3333,-71.5 432.1667,-71.5 437,-76.3333 437,-81.1667 437,-81.1667 437,-90.8333 437,-90.8333 437,-95.6667 432.1667,-100.5 427.3333,-100.5 427.3333,-100.5 399.6667,-100.5 399.6667,-100.5 394.8333,-100.5 390,-95.6667 390,-90.8333 390,-90.8333 390,-81.1667 390,-81.1667 390,-76.3333 394.8333,-71.5 399.6667,-71.5"/>
<text text-anchor="middle" x="413.5" y="-81.9" font-family="Times,serif" font-size="14.00" fill="#000000">e</text>
</g>
<!-- d&#45;&gt;e -->
<g id="edge5" class="edge">
<title>d-&gt;e</title>
<path fill="none" stroke="#000000" d="M354.0625,-70.2455C362.1231,-72.382 371.3018,-74.8149 379.9941,-77.1189"/>
<polygon fill="#000000" stroke="#000000" points="379.3156,-80.5599 389.8786,-79.7389 381.1092,-73.7935 379.3156,-80.5599"/>
</g>
<!-- e&#45;&gt;x1 -->
<g id="edge6" class="edge">
<title>e-&gt;x1</title>
<path fill="none" stroke="#000000" d="M437.3214,-81.4932C446.2126,-79.8111 456.2717,-77.9081 465.0367,-76.2498"/>
<polygon fill="#000000" stroke="#000000" points="465.7457,-79.6779 474.9207,-74.3799 464.4444,-72.7999 465.7457,-79.6779"/>
</g>
<!-- f&#45;&gt;x4 -->
<g id="edge15" class="edge">
<title>f-&gt;x4</title>
<path fill="none" stroke="#000000" d="M790.5569,-29.538C803.1286,-40.9205 820.5101,-56.6578 832.95,-67.9209"/>
<polygon fill="#000000" stroke="#000000" points="830.8908,-70.778 840.6529,-74.8952 835.5891,-65.5889 830.8908,-70.778"/>
</g>
<!-- h -->
<g id="node21" class="node">
<title>h</title>
<path fill="none" stroke="#000000" d="M1056.6667,-85.5C1056.6667,-85.5 1084.3333,-85.5 1084.3333,-85.5 1089.1667,-85.5 1094,-90.3333 1094,-95.1667 1094,-95.1667 1094,-104.8333 1094,-104.8333 1094,-109.6667 1089.1667,-114.5 1084.3333,-114.5 1084.3333,-114.5 1056.6667,-114.5 1056.6667,-114.5 1051.8333,-114.5 1047,-109.6667 1047,-104.8333 1047,-104.8333 1047,-95.1667 1047,-95.1667 1047,-90.3333 1051.8333,-85.5 1056.6667,-85.5"/>
<text text-anchor="middle" x="1070.5" y="-95.9" font-family="Times,serif" font-size="14.00" fill="#000000">h</text>
</g>
<!-- g&#45;&gt;h -->
<g id="edge24" class="edge">
<title>g-&gt;h</title>
<path fill="none" stroke="#000000" d="M1011.0625,-100C1019.0355,-100 1028.1024,-100 1036.7105,-100"/>
<polygon fill="#000000" stroke="#000000" points="1036.8787,-103.5001 1046.8786,-100 1036.8786,-96.5001 1036.8787,-103.5001"/>
</g>
<!-- h&#45;&gt;o4 -->
<g id="edge25" class="edge">
<title>h-&gt;o4</title>
<path fill="none" stroke="#000000" d="M1094.3214,-92.918C1103.6747,-90.1372 1114.3205,-86.9723 1123.3925,-84.2752"/>
<polygon fill="#000000" stroke="#000000" points="1124.5597,-87.5797 1133.1477,-81.375 1122.5649,-80.8699 1124.5597,-87.5797"/>
</g>
<!-- k -->
<g id="node24" class="node">
<title>k</title>
<path fill="none" stroke="#000000" d="M1352.6667,-81.5C1352.6667,-81.5 1380.3333,-81.5 1380.3333,-81.5 1385.1667,-81.5 1390,-86.3333 1390,-91.1667 1390,-91.1667 1390,-100.8333 1390,-100.8333 1390,-105.6667 1385.1667,-110.5 1380.3333,-110.5 1380.3333,-110.5 1352.6667,-110.5 1352.6667,-110.5 1347.8333,-110.5 1343,-105.6667 1343,-100.8333 1343,-100.8333 1343,-91.1667 1343,-91.1667 1343,-86.3333 1347.8333,-81.5 1352.6667,-81.5"/>
<text text-anchor="middle" x="1366.5" y="-91.9" font-family="Times,serif" font-size="14.00" fill="#000000">k</text>
</g>
<!-- i&#45;&gt;k -->
<g id="edge29" class="edge">
<title>i-&gt;k</title>
<path fill="none" stroke="#000000" d="M1307.0625,-96C1315.0355,-96 1324.1024,-96 1332.7105,-96"/>
<polygon fill="#000000" stroke="#000000" points="1332.8787,-99.5001 1342.8786,-96 1332.8786,-92.5001 1332.8787,-99.5001"/>
</g>
<!-- j&#45;&gt;x6 -->
<g id="edge20" class="edge">
<title>j-&gt;x6</title>
<path fill="none" stroke="#000000" d="M715.0625,-92.0256C726.5394,-90.0897 740.2828,-87.7716 751.6619,-85.8522"/>
<polygon fill="#000000" stroke="#000000" points="752.4176,-89.2743 761.6961,-84.1597 751.2533,-82.3718 752.4176,-89.2743"/>
</g>
<!-- l -->
<g id="node25" class="node">
<title>l</title>
<path fill="none" stroke="#000000" d="M1435.6667,-81.5C1435.6667,-81.5 1463.3333,-81.5 1463.3333,-81.5 1468.1667,-81.5 1473,-86.3333 1473,-91.1667 1473,-91.1667 1473,-100.8333 1473,-100.8333 1473,-105.6667 1468.1667,-110.5 1463.3333,-110.5 1463.3333,-110.5 1435.6667,-110.5 1435.6667,-110.5 1430.8333,-110.5 1426,-105.6667 1426,-100.8333 1426,-100.8333 1426,-91.1667 1426,-91.1667 1426,-86.3333 1430.8333,-81.5 1435.6667,-81.5"/>
<text text-anchor="middle" x="1449.5" y="-91.9" font-family="Times,serif" font-size="14.00" fill="#000000">l</text>
</g>
<!-- k&#45;&gt;l -->
<g id="edge30" class="edge">
<title>k-&gt;l</title>
<path fill="none" stroke="#000000" d="M1390.0625,-96C1398.0355,-96 1407.1024,-96 1415.7105,-96"/>
<polygon fill="#000000" stroke="#000000" points="1415.8787,-99.5001 1425.8786,-96 1415.8786,-92.5001 1415.8787,-99.5001"/>
</g>
<!-- l&#45;&gt;o6 -->
<g id="edge31" class="edge">
<title>l-&gt;o6</title>
<path fill="none" stroke="#000000" d="M1473.3214,-88.918C1482.6747,-86.1372 1493.3205,-82.9723 1502.3925,-80.2752"/>
<polygon fill="#000000" stroke="#000000" points="1503.5597,-83.5797 1512.1477,-77.375 1501.5649,-76.8699 1503.5597,-83.5797"/>
</g>
<!-- m&#45;&gt;o2 -->
<g id="edge11" class="edge">
<title>m-&gt;o2</title>
<path fill="none" stroke="#000000" d="M715.0625,-169.7929C727.9427,-163.12 743.6776,-154.9682 755.7215,-148.7286"/>
<polygon fill="#000000" stroke="#000000" points="757.5575,-151.7193 764.8266,-144.0115 754.3374,-145.5039 757.5575,-151.7193"/>
</g>
<!-- n&#45;&gt;x6 -->
<g id="edge18" class="edge">
<title>n-&gt;x6</title>
<path fill="none" stroke="#000000" d="M715.0625,-57.6521C727.5174,-62.7541 742.6415,-68.9495 754.5165,-73.814"/>
<polygon fill="#000000" stroke="#000000" points="753.3865,-77.1333 763.9669,-77.6853 756.04,-70.6557 753.3865,-77.1333"/>
</g>
</g>
</svg>