<?xml version="1.0" encoding="UTF-8" standalone="no"?>
<!DOCTYPE svg PUBLIC "-//W3C//DTD SVG 1.1//EN" "http://www.w3.org/Graphics/SVG/1.1/DTD/svg11.dtd">
<!-- Generated by graphviz version 2.40.1 (20161225.0304)
 -->
<!-- Title: G Pages: 1 -->
<svg width="817pt" height="188pt" viewBox="0.00 0.00 817.00 188.00" xmlns="http://www.w3.org/2000/svg" xmlns:xlink="http://www.w3.org/1999/xlink">
<g id="graph0" class="graph" transform="scale(1 1) rotate(0) translate(4 184)">
<title>G</title>
<polygon fill="#ffffff" stroke="transparent" points="-4,4 -4,-184 813,-184 813,4 -4,4"/>
<!-- in -->
<g id="node1" class="node">
<title>in</title>
<ellipse fill="none" stroke="#000000" cx="11" cy="-58" rx="11" ry="11"/>
</g>
<!-- a -->
<g id="node9" class="node">
<title>a</title>
<path fill="none" stroke="#000000" d="M67.6667,-43.5C67.6667,-43.5 95.3333,-43.5 95.3333,-43.5 100.1667,-43.5 105,-48.3333 105,-53.1667 105,-53.1667 105,-62.8333 105,-62.8333 105,-67.6667 100.1667,-72.5 95.3333,-72.5 95.3333,-72.5 67.6667,-72.5 67.6667,-72.5 62.8333,-72.5 58,-67.6667 58,-62.8333 58,-62.8333 58,-53.1667 58,-53.1667 58,-48.3333 62.8333,-43.5 67.6667,-43.5"/>
<text text-anchor="middle" x="81.5" y="-53.9" font-family="Times,serif" font-size="14.00" fill="#000000">a</text>
</g>
<!-- in&#45;&gt;a -->
<g id="edge1" class="edge">
<title>in-&gt;a</title>
<path fill="none" stroke="#000000" d="M22.0156,-58C28.9374,-58 38.2756,-58 47.4995,-58"/>
<polygon fill="#000000" stroke="#000000" points="47.7302,-61.5001 57.7302,-58 47.7302,-54.5001 47.7302,-61.5001"/>
</g>
<!-- out -->
<g id="node2" class="node">
<title>out</title>
<ellipse fill="none" stroke="#000000" stroke-width="3" cx="798" cy="-63" rx="11" ry="11"/>
</g>
<!-- x1 -->
<g id="node3" class="node">
<title>x1</title>
<polygon fill="#ffff00" stroke="#000000" points="155.5,-72.5 141,-58 155.5,-43.5 170,-58 155.5,-72.5"/>
<text text-anchor="start" x="151" y="-54.4" font-family="Times,serif" font-size="12.00" fill="#000000">✕</text>
</g>
<!-- b -->
<g id="node10" class="node">
<title>b</title>
<path fill="none" stroke="#000000" d="M215.6667,-91.5C215.6667,-91.5 243.3333,-91.5 243.3333,-91.5 248.1667,-91.5 253,-96.3333 253,-101.1667 253,-101.1667 253,-110.8333 253,-110.8333 253,-115.6667 248.1667,-120.5 243.3333,-120.5 243.3333,-120.5 215.6667,-120.5 215.6667,-120.5 210.8333,-120.5 206,-115.6667 206,-110.8333 206,-110.8333 206,-101.1667 206,-101.1667 206,-96.3333 210.8333,-91.5 215.6667,-91.5"/>
<text text-anchor="middle" x="229.5" y="-101.9" font-family="Times,serif" font-size="14.00" fill="#000000">b</text>
</g>
<!-- x1&#45;&gt;b -->
<g id="edge5" class="edge">
<title>x1-&gt;b</title>
<path fill="none" stroke="#000000" d="M164.5739,-63.8857C173.0211,-69.365 186.1113,-77.8559 198.331,-85.7823"/>
<polygon fill="#000000" stroke="#000000" points="196.7018,-88.8973 206.9962,-91.4029 200.5112,-83.0246 196.7018,-88.8973"/>
</g>
<!-- f -->
<g id="node14" class="node">
<title>f</title>
<path fill="none" stroke="#000000" d="M215.6667,-43.5C215.6667,-43.5 243.3333,-43.5 243.3333,-43.5 248.1667,-43.5 253,-48.3333 253,-53.1667 253,-53.1667 253,-62.8333 253,-62.8333 253,-67.6667 248.1667,-72.5 243.3333,-72.5 243.3333,-72.5 215.6667,-72.5 215.6667,-72.5 210.8333,-72.5 206,-67.6667 206,-62.8333 206,-62.8333 206,-53.1667 206,-53.1667 206,-48.3333 210.8333,-43.5 215.6667,-43.5"/>
<text text-anchor="middle" x="229.5" y="-53.9" font-family="Times,serif" font-size="14.00" fill="#000000">f</text>
</g>
<!-- x1&#45;&gt;f -->
<g id="edge3" class="edge">
<title>x1-&gt;f</title>
<path fill="none" stroke="#000000" d="M170.12,-58C177.4464,-58 186.648,-58 195.6052,-58"/>
<polygon fill="#000000" stroke="#000000" points="195.8809,-61.5001 205.8809,-58 195.8809,-54.5001 195.8809,-61.5001"/>
</g>
<!-- x2 -->
<g id="node4" class="node">
<title>x2</title>
<polygon fill="#ffff00" stroke="#000000" points="303.5,-102.5 289,-88 303.5,-73.5 318,-88 303.5,-102.5"/>
<text text-anchor="start" x="299" y="-84.4" font-family="Times,serif" font-size="12.00" fill="#000000">✕</text>
</g>
<!-- a1 -->
<g id="node7" class="node">
<title>a1</title>
<polygon fill="#ffff00" stroke="#000000" points="368.5,-102.5 354,-88 368.5,-73.5 383,-88 368.5,-102.5"/>
<text text-anchor="start" x="362.861" y="-82" font-family="Times,serif" font-size="20.00" fill="#000000">+</text>
</g>
<!-- x2&#45;&gt;a1 -->
<g id="edge7" class="edge">
<title>x2-&gt;a1</title>
<path fill="none" stroke="#000000" d="M318.2495,-88C325.7291,-88 335.0181,-88 343.5673,-88"/>
<polygon fill="#000000" stroke="#000000" points="343.8089,-91.5001 353.8089,-88 343.8088,-84.5001 343.8089,-91.5001"/>
</g>
<!-- o1 -->
<g id="node5" class="node">
<title>o1</title>
<polygon fill="#ffff00" stroke="#000000" points="433.5,-128.5 419,-114 433.5,-99.5 448,-114 433.5,-128.5"/>
<text text-anchor="start" x="429" y="-110.4" font-family="Times,serif" font-size="12.00" fill="#000000">✕</text>
</g>
<!-- c -->
<g id="node11" class="node">
<title>c</title>
<path fill="none" stroke="#000000" d="M497.1667,-150.5C497.1667,-150.5 524.8333,-150.5 524.8333,-150.5 529.6667,-150.5 534.5,-155.3333 534.5,-160.1667 534.5,-160.1667 534.5,-169.8333 534.5,-169.8333 534.5,-174.6667 529.6667,-179.5 524.8333,-179.5 524.8333,-179.5 497.1667,-179.5 497.1667,-179.5 492.3333,-179.5 487.5,-174.6667 487.5,-169.8333 487.5,-169.8333 487.5,-160.1667 487.5,-160.1667 487.5,-155.3333 492.3333,-150.5 497.1667,-150.5"/>
<text text-anchor="middle" x="511" y="-160.9" font-family="Times,serif" font-size="14.00" fill="#000000">c</text>
</g>
<!-- o1&#45;&gt;c -->
<g id="edge12" class="edge">
<title>o1-&gt;c</title>
<path fill="none" stroke="#000000" d="M442.3902,-119.8503C451.5877,-125.9029 466.4797,-135.7028 480.043,-144.6283"/>
<polygon fill="#000000" stroke="#000000" points="478.4135,-147.7458 488.691,-150.3192 482.2615,-141.8983 478.4135,-147.7458"/>
</g>
<!-- s1 -->
<g id="node16" class="node">
<title>s1</title>
<ellipse fill="none" stroke="#000000" cx="511" cy="-114" rx="27" ry="18"/>
<text text-anchor="middle" x="511" y="-109.8" font-family="Times,serif" font-size="14.00" fill="#000000">s1</text>
</g>
<!-- o1&#45;&gt;s1 -->
<g id="edge14" class="edge">
<title>o1-&gt;s1</title>
<path fill="none" stroke="#000000" d="M448.0772,-114C455.4045,-114 464.6517,-114 473.7851,-114"/>
<polygon fill="#000000" stroke="#000000" points="473.9402,-117.5001 483.9402,-114 473.9401,-110.5001 473.9402,-117.5001"/>
</g>
<!-- o2 -->
<g id="node6" class="node">
<title>o2</title>
<polygon fill="#ffff00" stroke="#000000" points="588.5,-128.5 574,-114 588.5,-99.5 603,-114 588.5,-128.5"/>
<text text-anchor="start" x="584" y="-110.4" font-family="Times,serif" font-size="12.00" fill="#000000">✕</text>
</g>
<!-- a2 -->
<g id="node8" class="node">
<title>a2</title>
<polygon fill="#ffff00" stroke="#000000" points="653.5,-77.5 639,-63 653.5,-48.5 668,-63 653.5,-77.5"/>
<text text-anchor="start" x="647.861" y="-57" font-family="Times,serif" font-size="20.00" fill="#000000">+</text>
</g>
<!-- o2&#45;&gt;a2 -->
<g id="edge9" class="edge">
<title>o2-&gt;a2</title>
<path fill="none" stroke="#000000" d="M596.7323,-107.5408C606.8355,-99.6137 624.2081,-85.9829 637.0809,-75.8827"/>
<polygon fill="#000000" stroke="#000000" points="639.4224,-78.4943 645.1292,-69.5678 635.1013,-72.9871 639.4224,-78.4943"/>
</g>
<!-- a1&#45;&gt;o1 -->
<g id="edge8" class="edge">
<title>a1-&gt;o1</title>
<path fill="none" stroke="#000000" d="M378.9434,-92.1773C388.1752,-95.8701 401.9028,-101.3611 413.2779,-105.9112"/>
<polygon fill="#000000" stroke="#000000" points="412.2819,-109.2823 422.8666,-109.7466 414.8817,-102.783 412.2819,-109.2823"/>
</g>
<!-- d -->
<g id="node12" class="node">
<title>d</title>
<path fill="none" stroke="#000000" d="M497.1667,-48.5C497.1667,-48.5 524.8333,-48.5 524.8333,-48.5 529.6667,-48.5 534.5,-53.3333 534.5,-58.1667 534.5,-58.1667 534.5,-67.8333 534.5,-67.8333 534.5,-72.6667 529.6667,-77.5 524.8333,-77.5 524.8333,-77.5 497.1667,-77.5 497.1667,-77.5 492.3333,-77.5 487.5,-72.6667 487.5,-67.8333 487.5,-67.8333 487.5,-58.1667 487.5,-58.1667 487.5,-53.3333 492.3333,-48.5 497.1667,-48.5"/>
<text text-anchor="middle" x="511" y="-58.9" font-family="Times,serif" font-size="14.00" fill="#000000">d</text>
</g>
<!-- a1&#45;&gt;d -->
<g id="edge10" class="edge">
<title>a1-&gt;d</title>
<path fill="none" stroke="#000000" d="M381.1459,-85.7814C402.565,-82.0237 446.6553,-74.2885 477.4898,-68.879"/>
<polygon fill="#000000" stroke="#000000" points="478.1418,-72.3181 487.3866,-67.1427 476.9322,-65.4234 478.1418,-72.3181"/>
</g>
<!-- e -->
<g id="node13" class="node">
<title>e</title>
<path fill="none" stroke="#000000" d="M713.6667,-48.5C713.6667,-48.5 741.3333,-48.5 741.3333,-48.5 746.1667,-48.5 751,-53.3333 751,-58.1667 751,-58.1667 751,-67.8333 751,-67.8333 751,-72.6667 746.1667,-77.5 741.3333,-77.5 741.3333,-77.5 713.6667,-77.5 713.6667,-77.5 708.8333,-77.5 704,-72.6667 704,-67.8333 704,-67.8333 704,-58.1667 704,-58.1667 704,-53.3333 708.8333,-48.5 713.6667,-48.5"/>
<text text-anchor="middle" x="727.5" y="-58.9" font-family="Times,serif" font-size="14.00" fill="#000000">e</text>
</g>
<!-- a2&#45;&gt;e -->
<g id="edge16" class="edge">
<title>a2-&gt;e</title>
<path fill="none" stroke="#000000" d="M668.12,-63C675.4464,-63 684.648,-63 693.6052,-63"/>
<polygon fill="#000000" stroke="#000000" points="693.8809,-66.5001 703.8809,-63 693.8809,-59.5001 693.8809,-66.5001"/>
</g>
<!-- g -->
<g id="node15" class="node">
<title>g</title>
<path fill="none" stroke="#000000" d="M497.1667,-.5C497.1667,-.5 524.8333,-.5 524.8333,-.5 529.6667,-.5 534.5,-5.3333 534.5,-10.1667 534.5,-10.1667 534.5,-19.8333 534.5,-19.8333 534.5,-24.6667 529.6667,-29.5 524.8333,-29.5 524.8333,-29.5 497.1667,-29.5 497.1667,-29.5 492.3333,-29.5 487.5,-24.6667 487.5,-19.8333 487.5,-19.8333 487.5,-10.1667 487.5,-10.1667 487.5,-5.3333 492.3333,-.5 497.1667,-.5"/>
<text text-anchor="middle" x="511" y="-10.9" font-family="Times,serif" font-size="14.00" fill="#000000">g</text>
</g>
<!-- a2&#45;&gt;g -->
<g id="edge17" class="edge">
<title>a2-&gt;g</title>
<path fill="none" stroke="#000000" d="M642.4183,-59.2672C621.5921,-52.2521 575.866,-36.8496 544.2505,-26.2002"/>
<polygon fill="#000000" stroke="#000000" points="545.1251,-22.8016 534.531,-22.9262 542.8905,-29.4354 545.1251,-22.8016"/>
</g>
<!-- a&#45;&gt;x1 -->
<g id="edge2" class="edge">
<title>a-&gt;x1</title>
<path fill="none" stroke="#000000" d="M105.3214,-58C113.4296,-58 122.5091,-58 130.6927,-58"/>
<polygon fill="#000000" stroke="#000000" points="130.7777,-61.5001 140.7777,-58 130.7776,-54.5001 130.7777,-61.5001"/>
</g>
<!-- b&#45;&gt;x2 -->
<g id="edge6" class="edge">
<title>b-&gt;x2</title>
<path fill="none" stroke="#000000" d="M253.3214,-100.2056C262.4529,-97.9844 272.8163,-95.4636 281.7445,-93.2919"/>
<polygon fill="#000000" stroke="#000000" points="282.8544,-96.624 291.7438,-90.8596 281.1999,-89.8224 282.8544,-96.624"/>
</g>
<!-- c&#45;&gt;o2 -->
<g id="edge13" class="edge">
<title>c-&gt;o2</title>
<path fill="none" stroke="#000000" d="M533.4162,-150.2487C545.4305,-142.3425 560.009,-132.7489 571.1495,-125.4177"/>
<polygon fill="#000000" stroke="#000000" points="573.1377,-128.2993 579.5672,-119.8784 569.2897,-122.4518 573.1377,-128.2993"/>
</g>
<!-- d&#45;&gt;a2 -->
<g id="edge11" class="edge">
<title>d-&gt;a2</title>
<path fill="none" stroke="#000000" d="M534.531,-63C560.5158,-63 602.1722,-63 628.667,-63"/>
<polygon fill="#000000" stroke="#000000" points="628.6742,-66.5001 638.6742,-63 628.6741,-59.5001 628.6742,-66.5001"/>
</g>
<!-- e&#45;&gt;out -->
<g id="edge19" class="edge">
<title>e-&gt;out</title>
<path fill="none" stroke="#000000" d="M751.3681,-63C759.607,-63 768.7753,-63 776.7872,-63"/>
<polygon fill="#000000" stroke="#000000" points="776.7999,-66.5001 786.7999,-63 776.7998,-59.5001 776.7999,-66.5001"/>
</g>
<!-- f&#45;&gt;x2 -->
<g id="edge4" class="edge">
<title>f-&gt;x2</title>
<path fill="none" stroke="#000000" d="M253.3214,-67.6573C263.022,-71.59 274.1128,-76.0863 283.3963,-79.8499"/>
<polygon fill="#000000" stroke="#000000" points="282.357,-83.2051 292.9394,-83.7187 284.987,-76.718 282.357,-83.2051"/>
</g>
<!-- g&#45;&gt;x1 -->
<g id="edge18" class="edge">
<title>g-&gt;x1</title>
<path fill="none" stroke="#000000" d="M487.299,-15C459.0201,-15 410.3099,-15 368.5,-15 303.5,-15 303.5,-15 303.5,-15 259.3515,-15 247.9342,-20.1939 206,-34 195.0308,-37.6114 183.3505,-43.0494 173.9891,-47.8363"/>
<polygon fill="#000000" stroke="#000000" points="172.0837,-44.8848 164.8844,-52.6579 175.3598,-51.071 172.0837,-44.8848"/>
</g>
<!-- s1&#45;&gt;o2 -->
<g id="edge15" class="edge">
<title>s1-&gt;o2</title>
<path fill="none" stroke="#000000" d="M538.1057,-114C546.4824,-114 555.6594,-114 563.86,-114"/>
<polygon fill="#000000" stroke="#000000" points="563.9286,-117.5001 573.9285,-114 563.9285,-110.5001 563.9286,-117.5001"/>
</g>
</g>
</svg>