<?xml version="1.0" encoding="UTF-8" standalone="no"?>
<!DOCTYPE svg PUBLIC "-//W3C//DTD SVG 1.1//EN" "http://www.w3.org/Graphics/SVG/1.1/DTD/svg11.dtd">
<!-- Generated by graphviz version 2.40.1 (20161225.0304)
 -->
<!-- Title: G Pages: 1 -->
<svg width="738pt" height="178pt" viewBox="0.00 0.00 738.00 178.00" xmlns="http://www.w3.org/2000/svg" xmlns:xlink="http://www.w3.org/1999/xlink">
<g id="graph0" class="graph" transform="scale(1 1) rotate(0) translate(4 174)">
<title>G</title>
<polygon fill="#ffffff" stroke="transparent" points="-4,4 -4,-174 734,-174 734,4 -4,4"/>
<!-- in -->
<g id="node1" class="node">
<title>in</title>
<ellipse fill="none" stroke="#000000" cx="11" cy="-57.5" rx="11" ry="11"/>
<text text-anchor="middle" x="11" y="-51.5" font-family="Times,serif" font-size="20.00" fill="#000000">•</text>
</g>
<!-- a -->
<g id="node9" class="node">
<title>a</title>
<polygon fill="none" stroke="#000000" points="87,-72 58,-72 58,-43 87,-43 87,-72"/>
<text text-anchor="middle" x="72.5" y="-53.3" font-family="Times,serif" font-size="14.00" fill="#000000">a</text>
</g>
<!-- in&#45;&gt;a -->
<g id="edge1" class="edge">
<title>in-&gt;a</title>
<path fill="none" stroke="#000000" d="M22.28,-57.5C29.3801,-57.5 38.8328,-57.5 47.621,-57.5"/>
<polygon fill="#000000" stroke="#000000" points="47.8083,-61.0001 57.8083,-57.5 47.8083,-54.0001 47.8083,-61.0001"/>
</g>
<!-- out -->
<g id="node2" class="node">
<title>out</title>
<ellipse fill="#000000" stroke="#000000" cx="719" cy="-61.5" rx="11" ry="11"/>
</g>
<!-- x1 -->
<g id="node3" class="node">
<title>x1</title>
<polygon fill="#ffff00" stroke="#000000" points="137.5,-72 123,-57.5 137.5,-43 152,-57.5 137.5,-72"/>
<text text-anchor="start" x="133" y="-53.9" font-family="Times,serif" font-size="12.00" fill="#000000">✕</text>
</g>
<!-- b -->
<g id="node10" class="node">
<title>b</title>
<polygon fill="none" stroke="#000000" points="217,-119 188,-119 188,-90 217,-90 217,-119"/>
<text text-anchor="middle" x="202.5" y="-100.3" font-family="Times,serif" font-size="14.00" fill="#000000">b</text>
</g>
<!-- x1&#45;&gt;b -->
<g id="edge5" class="edge">
<title>x1-&gt;b</title>
<path fill="none" stroke="#000000" d="M145.9976,-63.6444C154.4436,-69.7516 167.7761,-79.392 179.3694,-87.7748"/>
<polygon fill="#000000" stroke="#000000" points="177.6317,-90.8374 187.786,-93.8607 181.7333,-85.1649 177.6317,-90.8374"/>
</g>
<!-- f -->
<g id="node14" class="node">
<title>f</title>
<polygon fill="none" stroke="#000000" points="217,-72 188,-72 188,-43 217,-43 217,-72"/>
<text text-anchor="middle" x="202.5" y="-53.3" font-family="Times,serif" font-size="14.00" fill="#000000">f</text>
</g>
<!-- x1&#45;&gt;f -->
<g id="edge3" class="edge">
<title>x1-&gt;f</title>
<path fill="none" stroke="#000000" d="M152.2495,-57.5C159.7291,-57.5 169.0181,-57.5 177.5673,-57.5"/>
<polygon fill="#000000" stroke="#000000" points="177.8089,-61.0001 187.8089,-57.5 177.8088,-54.0001 177.8089,-61.0001"/>
</g>
<!-- x2 -->
<g id="node4" class="node">
<title>x2</title>
<polygon fill="#ffff00" stroke="#000000" points="267.5,-99 253,-84.5 267.5,-70 282,-84.5 267.5,-99"/>
<text text-anchor="start" x="263" y="-80.9" font-family="Times,serif" font-size="12.00" fill="#000000">✕</text>
</g>
<!-- a1 -->
<g id="node5" class="node">
<title>a1</title>
<polygon fill="#ffff00" stroke="#000000" points="332.5,-99 318,-84.5 332.5,-70 347,-84.5 332.5,-99"/>
<text text-anchor="start" x="326.861" y="-78.5" font-family="Times,serif" font-size="20.00" fill="#000000">+</text>
</g>
<!-- x2&#45;&gt;a1 -->
<g id="edge7" class="edge">
<title>x2-&gt;a1</title>
<path fill="none" stroke="#000000" d="M282.2495,-84.5C289.7291,-84.5 299.0181,-84.5 307.5673,-84.5"/>
<polygon fill="#000000" stroke="#000000" points="307.8089,-88.0001 317.8089,-84.5 307.8088,-81.0001 307.8089,-88.0001"/>
</g>
<!-- o1 -->
<g id="node7" class="node">
<title>o1</title>
<polygon fill="#ffff00" stroke="#000000" points="397.5,-123 383,-108.5 397.5,-94 412,-108.5 397.5,-123"/>
<text text-anchor="start" x="391.1646" y="-104.9" font-family="Times,serif" font-size="12.00" fill="#000000">◯</text>
</g>
<!-- a1&#45;&gt;o1 -->
<g id="edge8" class="edge">
<title>a1-&gt;o1</title>
<path fill="none" stroke="#000000" d="M343.2334,-88.4631C352.399,-91.8473 365.8391,-96.8098 377.0504,-100.9494"/>
<polygon fill="#000000" stroke="#000000" points="375.9401,-104.2703 386.5334,-104.4508 378.3647,-97.7036 375.9401,-104.2703"/>
</g>
<!-- d -->
<g id="node12" class="node">
<title>d</title>
<polygon fill="none" stroke="#000000" points="477,-76 448,-76 448,-47 477,-47 477,-76"/>
<text text-anchor="middle" x="462.5" y="-57.3" font-family="Times,serif" font-size="14.00" fill="#000000">d</text>
</g>
<!-- a1&#45;&gt;d -->
<g id="edge10" class="edge">
<title>a1-&gt;d</title>
<path fill="none" stroke="#000000" d="M344.9649,-82.2947C366.2842,-78.5228 410.1244,-70.7665 437.8211,-65.8663"/>
<polygon fill="#000000" stroke="#000000" points="438.6696,-69.2706 447.9069,-64.0819 437.45,-62.3776 438.6696,-69.2706"/>
</g>
<!-- a2 -->
<g id="node6" class="node">
<title>a2</title>
<polygon fill="#ffff00" stroke="#000000" points="592.5,-76 578,-61.5 592.5,-47 607,-61.5 592.5,-76"/>
<text text-anchor="start" x="586.861" y="-55.5" font-family="Times,serif" font-size="20.00" fill="#000000">+</text>
</g>
<!-- e -->
<g id="node13" class="node">
<title>e</title>
<polygon fill="none" stroke="#000000" points="672,-76 643,-76 643,-47 672,-47 672,-76"/>
<text text-anchor="middle" x="657.5" y="-57.3" font-family="Times,serif" font-size="14.00" fill="#000000">e</text>
</g>
<!-- a2&#45;&gt;e -->
<g id="edge16" class="edge">
<title>a2-&gt;e</title>
<path fill="none" stroke="#000000" d="M607.2495,-61.5C614.7291,-61.5 624.0181,-61.5 632.5673,-61.5"/>
<polygon fill="#000000" stroke="#000000" points="632.8089,-65.0001 642.8089,-61.5 632.8088,-58.0001 632.8089,-65.0001"/>
</g>
<!-- g -->
<g id="node15" class="node">
<title>g</title>
<polygon fill="none" stroke="#000000" points="477,-29 448,-29 448,0 477,0 477,-29"/>
<text text-anchor="middle" x="462.5" y="-10.3" font-family="Times,serif" font-size="14.00" fill="#000000">g</text>
</g>
<!-- a2&#45;&gt;g -->
<g id="edge17" class="edge">
<title>a2-&gt;g</title>
<path fill="none" stroke="#000000" d="M581.8227,-57.6398C561.1619,-50.1701 515.2466,-33.5699 486.7794,-23.2779"/>
<polygon fill="#000000" stroke="#000000" points="487.7542,-19.9087 477.1599,-19.8001 485.3742,-26.4917 487.7542,-19.9087"/>
</g>
<!-- c -->
<g id="node11" class="node">
<title>c</title>
<polygon fill="none" stroke="#000000" points="477,-170 448,-170 448,-141 477,-141 477,-170"/>
<text text-anchor="middle" x="462.5" y="-151.3" font-family="Times,serif" font-size="14.00" fill="#000000">c</text>
</g>
<!-- o1&#45;&gt;c -->
<g id="edge12" class="edge">
<title>o1-&gt;c</title>
<path fill="none" stroke="#000000" d="M405.9976,-114.6444C414.4436,-120.7516 427.7761,-130.392 439.3694,-138.7748"/>
<polygon fill="#000000" stroke="#000000" points="437.6317,-141.8374 447.786,-144.8607 441.7333,-136.1649 437.6317,-141.8374"/>
</g>
<!-- s1 -->
<g id="node16" class="node">
<title>s1</title>
<polygon fill="#000000" stroke="#000000" points="477,-123 448,-123 448,-94 477,-94 477,-123"/>
</g>
<!-- o1&#45;&gt;s1 -->
<g id="edge14" class="edge">
<title>o1-&gt;s1</title>
<path fill="none" stroke="#000000" d="M412.2495,-108.5C419.7291,-108.5 429.0181,-108.5 437.5673,-108.5"/>
<polygon fill="#000000" stroke="#000000" points="437.8089,-112.0001 447.8089,-108.5 437.8088,-105.0001 437.8089,-112.0001"/>
</g>
<!-- o2 -->
<g id="node8" class="node">
<title>o2</title>
<polygon fill="#ffff00" stroke="#000000" points="527.5,-123 513,-108.5 527.5,-94 542,-108.5 527.5,-123"/>
<text text-anchor="start" x="521.1646" y="-104.9" font-family="Times,serif" font-size="12.00" fill="#000000">◯</text>
</g>
<!-- o2&#45;&gt;a2 -->
<g id="edge9" class="edge">
<title>o2-&gt;a2</title>
<path fill="none" stroke="#000000" d="M535.9976,-102.3556C545.9664,-95.1474 562.7424,-83.017 575.4314,-73.8419"/>
<polygon fill="#000000" stroke="#000000" points="577.7401,-76.4917 583.7928,-67.7959 573.6385,-70.8192 577.7401,-76.4917"/>
</g>
<!-- a&#45;&gt;x1 -->
<g id="edge2" class="edge">
<title>a-&gt;x1</title>
<path fill="none" stroke="#000000" d="M87.2495,-57.5C94.7291,-57.5 104.0181,-57.5 112.5673,-57.5"/>
<polygon fill="#000000" stroke="#000000" points="112.8089,-61.0001 122.8089,-57.5 112.8088,-54.0001 112.8089,-61.0001"/>
</g>
<!-- b&#45;&gt;x2 -->
<g id="edge6" class="edge">
<title>b-&gt;x2</title>
<path fill="none" stroke="#000000" d="M217.2495,-99.9617C225.9418,-97.2872 237.0776,-93.8607 246.6563,-90.9134"/>
<polygon fill="#000000" stroke="#000000" points="247.7213,-94.2478 256.2498,-87.9616 245.6626,-87.5573 247.7213,-94.2478"/>
</g>
<!-- c&#45;&gt;o2 -->
<g id="edge13" class="edge">
<title>c-&gt;o2</title>
<path fill="none" stroke="#000000" d="M477.2495,-144.835C487.2153,-137.629 500.3932,-128.1003 510.7537,-120.6089"/>
<polygon fill="#000000" stroke="#000000" points="512.9288,-123.3552 518.9815,-114.6595 508.8272,-117.6828 512.9288,-123.3552"/>
</g>
<!-- d&#45;&gt;a2 -->
<g id="edge11" class="edge">
<title>d-&gt;a2</title>
<path fill="none" stroke="#000000" d="M477.1599,-61.5C499.104,-61.5 540.7715,-61.5 567.5596,-61.5"/>
<polygon fill="#000000" stroke="#000000" points="567.6942,-65.0001 577.6942,-61.5 567.6941,-58.0001 567.6942,-65.0001"/>
</g>
<!-- e&#45;&gt;out -->
<g id="edge19" class="edge">
<title>e-&gt;out</title>
<path fill="none" stroke="#000000" d="M672.0746,-61.5C679.6815,-61.5 689.1346,-61.5 697.5586,-61.5"/>
<polygon fill="#000000" stroke="#000000" points="697.7982,-65.0001 707.7982,-61.5 697.7981,-58.0001 697.7982,-65.0001"/>
</g>
<!-- f&#45;&gt;x2 -->
<g id="edge4" class="edge">
<title>f-&gt;x2</title>
<path fill="none" stroke="#000000" d="M217.2495,-63.6267C226.2566,-67.3681 237.8876,-72.1995 247.691,-76.2716"/>
<polygon fill="#000000" stroke="#000000" points="246.4813,-79.559 257.0589,-80.1629 249.1665,-73.0946 246.4813,-79.559"/>
</g>
<!-- g&#45;&gt;x1 -->
<g id="edge18" class="edge">
<title>g-&gt;x1</title>
<path fill="none" stroke="#000000" d="M447.683,-14.5C423.5503,-14.5 374.2535,-14.5 332.5,-14.5 267.5,-14.5 267.5,-14.5 267.5,-14.5 225.9221,-14.5 180.476,-34.5715 155.855,-47.2883"/>
<polygon fill="#000000" stroke="#000000" points="154.1018,-44.2567 146.9288,-52.054 157.3987,-50.4317 154.1018,-44.2567"/>
</g>
<!-- s1&#45;&gt;o2 -->
<g id="edge15" class="edge">
<title>s1-&gt;o2</title>
<path fill="none" stroke="#000000" d="M477.2495,-108.5C484.7291,-108.5 494.0181,-108.5 502.5673,-108.5"/>
<polygon fill="#000000" stroke="#000000" points="502.8089,-112.0001 512.8089,-108.5 502.8088,-105.0001 502.8089,-112.0001"/>
</g>
</g>
</svg>