<?xml version="1.0" encoding="UTF-8" standalone="no"?>
<!DOCTYPE svg PUBLIC "-//W3C//DTD SVG 1.1//EN" "http://www.w3.org/Graphics/SVG/1.1/DTD/svg11.dtd">
<!-- Generated by graphviz version 2.40.1 (20161225.0304)
 -->
<!-- Title: G Pages: 1 -->
<svg width="940pt" height="183pt" viewBox="0.00 0.00 940.00 183.00" xmlns="http://www.w3.org/2000/svg" xmlns:xlink="http://www.w3.org/1999/xlink">
<g id="graph0" class="graph" transform="scale(1 1) rotate(0) translate(4 179)">
<title>G</title>
<polygon fill="#ffffff" stroke="transparent" points="-4,4 -4,-179 936,-179 936,4 -4,4"/>
<!-- in -->
<g id="node1" class="node">
<title>in</title>
<ellipse fill="none" stroke="#000000" cx="11" cy="-42" rx="11" ry="11"/>
</g>
<!-- a -->
<g id="node11" class="node">
<title>a</title>
<path fill="none" stroke="#000000" d="M67.6667,-27.5C67.6667,-27.5 95.3333,-27.5 95.3333,-27.5 100.1667,-27.5 105,-32.3333 105,-37.1667 105,-37.1667 105,-46.8333 105,-46.8333 105,-51.6667 100.1667,-56.5 95.3333,-56.5 95.3333,-56.5 67.6667,-56.5 67.6667,-56.5 62.8333,-56.5 58,-51.6667 58,-46.8333 58,-46.8333 58,-37.1667 58,-37.1667 58,-32.3333 62.8333,-27.5 67.6667,-27.5"/>
<text text-anchor="middle" x="81.5" y="-37.9" font-family="Times,serif" font-size="14.00" fill="#000000">a</text>
</g>
<!-- in&#45;&gt;a -->
<g id="edge1" class="edge">
<title>in-&gt;a</title>
<path fill="none" stroke="#000000" d="M22.0156,-42C28.9374,-42 38.2756,-42 47.4995,-42"/>
<polygon fill="#000000" stroke="#000000" points="47.7302,-45.5001 57.7302,-42 47.7302,-38.5001 47.7302,-45.5001"/>
</g>
<!-- out -->
<g id="node2" class="node">
<title>out</title>
<ellipse fill="none" stroke="#000000" stroke-width="3" cx="921" cy="-39" rx="11" ry="11"/>
</g>
<!-- x1 -->
<g id="node3" class="node">
<title>x1</title>
<polygon fill="#ffff00" stroke="#000000" points="285.5,-126.5 271,-112 285.5,-97.5 300,-112 285.5,-126.5"/>
<text text-anchor="start" x="281" y="-108.4" font-family="Times,serif" font-size="12.00" fill="#000000">✕</text>
</g>
<!-- b -->
<g id="node12" class="node">
<title>b</title>
<path fill="none" stroke="#000000" d="M345.6667,-145.5C345.6667,-145.5 373.3333,-145.5 373.3333,-145.5 378.1667,-145.5 383,-150.3333 383,-155.1667 383,-155.1667 383,-164.8333 383,-164.8333 383,-169.6667 378.1667,-174.5 373.3333,-174.5 373.3333,-174.5 345.6667,-174.5 345.6667,-174.5 340.8333,-174.5 336,-169.6667 336,-164.8333 336,-164.8333 336,-155.1667 336,-155.1667 336,-150.3333 340.8333,-145.5 345.6667,-145.5"/>
<text text-anchor="middle" x="359.5" y="-155.9" font-family="Times,serif" font-size="14.00" fill="#000000">b</text>
</g>
<!-- x1&#45;&gt;b -->
<g id="edge3" class="edge">
<title>x1-&gt;b</title>
<path fill="none" stroke="#000000" d="M294.5739,-117.8857C303.0211,-123.365 316.1113,-131.8559 328.331,-139.7823"/>
<polygon fill="#000000" stroke="#000000" points="326.7018,-142.8973 336.9962,-145.4029 330.5112,-137.0246 326.7018,-142.8973"/>
</g>
<!-- c -->
<g id="node13" class="node">
<title>c</title>
<path fill="none" stroke="#000000" d="M345.6667,-97.5C345.6667,-97.5 373.3333,-97.5 373.3333,-97.5 378.1667,-97.5 383,-102.3333 383,-107.1667 383,-107.1667 383,-116.8333 383,-116.8333 383,-121.6667 378.1667,-126.5 373.3333,-126.5 373.3333,-126.5 345.6667,-126.5 345.6667,-126.5 340.8333,-126.5 336,-121.6667 336,-116.8333 336,-116.8333 336,-107.1667 336,-107.1667 336,-102.3333 340.8333,-97.5 345.6667,-97.5"/>
<text text-anchor="middle" x="359.5" y="-107.9" font-family="Times,serif" font-size="14.00" fill="#000000">c</text>
</g>
<!-- x1&#45;&gt;c -->
<g id="edge5" class="edge">
<title>x1-&gt;c</title>
<path fill="none" stroke="#000000" d="M300.12,-112C307.4464,-112 316.648,-112 325.6052,-112"/>
<polygon fill="#000000" stroke="#000000" points="325.8809,-115.5001 335.8809,-112 325.8809,-108.5001 325.8809,-115.5001"/>
</g>
<!-- x2 -->
<g id="node4" class="node">
<title>x2</title>
<polygon fill="#ffff00" stroke="#000000" points="433.5,-126.5 419,-112 433.5,-97.5 448,-112 433.5,-126.5"/>
<text text-anchor="start" x="429" y="-108.4" font-family="Times,serif" font-size="12.00" fill="#000000">✕</text>
</g>
<!-- a2 -->
<g id="node10" class="node">
<title>a2</title>
<polygon fill="#ffff00" stroke="#000000" points="498.5,-78.5 484,-64 498.5,-49.5 513,-64 498.5,-78.5"/>
<text text-anchor="start" x="492.861" y="-58" font-family="Times,serif" font-size="20.00" fill="#000000">+</text>
</g>
<!-- x2&#45;&gt;a2 -->
<g id="edge9" class="edge">
<title>x2-&gt;a2</title>
<path fill="none" stroke="#000000" d="M441.9976,-105.7248C451.9664,-98.3633 468.7424,-85.9748 481.4314,-76.6045"/>
<polygon fill="#000000" stroke="#000000" points="483.8276,-79.1859 489.7928,-70.4299 479.6693,-73.5549 483.8276,-79.1859"/>
</g>
<!-- x3 -->
<g id="node5" class="node">
<title>x3</title>
<polygon fill="#ffff00" stroke="#000000" points="711.5,-53.5 697,-39 711.5,-24.5 726,-39 711.5,-53.5"/>
<text text-anchor="start" x="707" y="-35.4" font-family="Times,serif" font-size="12.00" fill="#000000">✕</text>
</g>
<!-- g -->
<g id="node17" class="node">
<title>g</title>
<path fill="none" stroke="#000000" d="M771.6667,-48.5C771.6667,-48.5 799.3333,-48.5 799.3333,-48.5 804.1667,-48.5 809,-53.3333 809,-58.1667 809,-58.1667 809,-67.8333 809,-67.8333 809,-72.6667 804.1667,-77.5 799.3333,-77.5 799.3333,-77.5 771.6667,-77.5 771.6667,-77.5 766.8333,-77.5 762,-72.6667 762,-67.8333 762,-67.8333 762,-58.1667 762,-58.1667 762,-53.3333 766.8333,-48.5 771.6667,-48.5"/>
<text text-anchor="middle" x="785.5" y="-58.9" font-family="Times,serif" font-size="14.00" fill="#000000">g</text>
</g>
<!-- x3&#45;&gt;g -->
<g id="edge17" class="edge">
<title>x3-&gt;g</title>
<path fill="none" stroke="#000000" d="M722.739,-42.6451C730.6637,-45.2153 741.7184,-48.8006 752.3453,-52.2471"/>
<polygon fill="#000000" stroke="#000000" points="751.2905,-55.5844 761.8825,-55.3403 753.45,-48.9259 751.2905,-55.5844"/>
</g>
<!-- h -->
<g id="node18" class="node">
<title>h</title>
<path fill="none" stroke="#000000" d="M771.6667,-.5C771.6667,-.5 799.3333,-.5 799.3333,-.5 804.1667,-.5 809,-5.3333 809,-10.1667 809,-10.1667 809,-19.8333 809,-19.8333 809,-24.6667 804.1667,-29.5 799.3333,-29.5 799.3333,-29.5 771.6667,-29.5 771.6667,-29.5 766.8333,-29.5 762,-24.6667 762,-19.8333 762,-19.8333 762,-10.1667 762,-10.1667 762,-5.3333 766.8333,-.5 771.6667,-.5"/>
<text text-anchor="middle" x="785.5" y="-10.9" font-family="Times,serif" font-size="14.00" fill="#000000">h</text>
</g>
<!-- x3&#45;&gt;h -->
<g id="edge19" class="edge">
<title>x3-&gt;h</title>
<path fill="none" stroke="#000000" d="M722.739,-35.3549C730.6637,-32.7847 741.7184,-29.1994 752.3453,-25.7529"/>
<polygon fill="#000000" stroke="#000000" points="753.45,-29.0741 761.8825,-22.6597 751.2905,-22.4156 753.45,-29.0741"/>
</g>
<!-- x4 -->
<g id="node6" class="node">
<title>x4</title>
<polygon fill="#ffff00" stroke="#000000" points="859.5,-53.5 845,-39 859.5,-24.5 874,-39 859.5,-53.5"/>
<text text-anchor="start" x="855" y="-35.4" font-family="Times,serif" font-size="12.00" fill="#000000">✕</text>
</g>
<!-- x4&#45;&gt;out -->
<g id="edge21" class="edge">
<title>x4-&gt;out</title>
<path fill="none" stroke="#000000" d="M874.0746,-39C881.6815,-39 891.1346,-39 899.5586,-39"/>
<polygon fill="#000000" stroke="#000000" points="899.7982,-42.5001 909.7982,-39 899.7981,-35.5001 899.7982,-42.5001"/>
</g>
<!-- x5 -->
<g id="node7" class="node">
<title>x5</title>
<polygon fill="#ffff00" stroke="#000000" points="155.5,-56.5 141,-42 155.5,-27.5 170,-42 155.5,-56.5"/>
<text text-anchor="start" x="151" y="-38.4" font-family="Times,serif" font-size="12.00" fill="#000000">✕</text>
</g>
<!-- a1 -->
<g id="node9" class="node">
<title>a1</title>
<polygon fill="#ffff00" stroke="#000000" points="220.5,-78.5 206,-64 220.5,-49.5 235,-64 220.5,-78.5"/>
<text text-anchor="start" x="214.861" y="-58" font-family="Times,serif" font-size="20.00" fill="#000000">+</text>
</g>
<!-- x5&#45;&gt;a1 -->
<g id="edge7" class="edge">
<title>x5-&gt;a1</title>
<path fill="none" stroke="#000000" d="M166.5264,-45.732C175.6392,-48.8163 188.8289,-53.2806 199.8884,-57.0238"/>
<polygon fill="#000000" stroke="#000000" points="199.0422,-60.4323 209.6365,-60.3231 201.2864,-53.8018 199.0422,-60.4323"/>
</g>
<!-- x6 -->
<g id="node8" class="node">
<title>x6</title>
<polygon fill="#ffff00" stroke="#000000" points="646.5,-53.5 632,-39 646.5,-24.5 661,-39 646.5,-53.5"/>
<text text-anchor="start" x="642" y="-35.4" font-family="Times,serif" font-size="12.00" fill="#000000">✕</text>
</g>
<!-- x6&#45;&gt;x3 -->
<g id="edge13" class="edge">
<title>x6-&gt;x3</title>
<path fill="none" stroke="#000000" d="M661.2495,-39C668.7291,-39 678.0181,-39 686.5673,-39"/>
<polygon fill="#000000" stroke="#000000" points="686.8089,-42.5001 696.8089,-39 686.8088,-35.5001 686.8089,-42.5001"/>
</g>
<!-- f -->
<g id="node16" class="node">
<title>f</title>
<path fill="none" stroke="#000000" d="M345.6667,-1.5C345.6667,-1.5 373.3333,-1.5 373.3333,-1.5 378.1667,-1.5 383,-6.3333 383,-11.1667 383,-11.1667 383,-20.8333 383,-20.8333 383,-25.6667 378.1667,-30.5 373.3333,-30.5 373.3333,-30.5 345.6667,-30.5 345.6667,-30.5 340.8333,-30.5 336,-25.6667 336,-20.8333 336,-20.8333 336,-11.1667 336,-11.1667 336,-6.3333 340.8333,-1.5 345.6667,-1.5"/>
<text text-anchor="middle" x="359.5" y="-11.9" font-family="Times,serif" font-size="14.00" fill="#000000">f</text>
</g>
<!-- x6&#45;&gt;f -->
<g id="edge15" class="edge">
<title>x6-&gt;f</title>
<path fill="none" stroke="#000000" d="M632.879,-37.9084C590.0313,-34.4746 457.0894,-23.8208 393.7406,-18.744"/>
<polygon fill="#000000" stroke="#000000" points="393.7235,-15.2315 383.4758,-17.9214 393.1642,-22.2091 393.7235,-15.2315"/>
</g>
<!-- a1&#45;&gt;x1 -->
<g id="edge8" class="edge">
<title>a1-&gt;x1</title>
<path fill="none" stroke="#000000" d="M228.9976,-70.2752C238.9664,-77.6367 255.7424,-90.0252 268.4314,-99.3955"/>
<polygon fill="#000000" stroke="#000000" points="266.6693,-102.4451 276.7928,-105.5701 270.8276,-96.8141 266.6693,-102.4451"/>
</g>
<!-- d -->
<g id="node14" class="node">
<title>d</title>
<path fill="none" stroke="#000000" d="M345.6667,-49.5C345.6667,-49.5 373.3333,-49.5 373.3333,-49.5 378.1667,-49.5 383,-54.3333 383,-59.1667 383,-59.1667 383,-68.8333 383,-68.8333 383,-73.6667 378.1667,-78.5 373.3333,-78.5 373.3333,-78.5 345.6667,-78.5 345.6667,-78.5 340.8333,-78.5 336,-73.6667 336,-68.8333 336,-68.8333 336,-59.1667 336,-59.1667 336,-54.3333 340.8333,-49.5 345.6667,-49.5"/>
<text text-anchor="middle" x="359.5" y="-59.9" font-family="Times,serif" font-size="14.00" fill="#000000">d</text>
</g>
<!-- a1&#45;&gt;d -->
<g id="edge10" class="edge">
<title>a1-&gt;d</title>
<path fill="none" stroke="#000000" d="M235.1127,-64C256.4678,-64 296.8049,-64 325.7601,-64"/>
<polygon fill="#000000" stroke="#000000" points="325.8566,-67.5001 335.8566,-64 325.8565,-60.5001 325.8566,-67.5001"/>
</g>
<!-- e -->
<g id="node15" class="node">
<title>e</title>
<path fill="none" stroke="#000000" d="M558.6667,-48.5C558.6667,-48.5 586.3333,-48.5 586.3333,-48.5 591.1667,-48.5 596,-53.3333 596,-58.1667 596,-58.1667 596,-67.8333 596,-67.8333 596,-72.6667 591.1667,-77.5 586.3333,-77.5 586.3333,-77.5 558.6667,-77.5 558.6667,-77.5 553.8333,-77.5 549,-72.6667 549,-67.8333 549,-67.8333 549,-58.1667 549,-58.1667 549,-53.3333 553.8333,-48.5 558.6667,-48.5"/>
<text text-anchor="middle" x="572.5" y="-58.9" font-family="Times,serif" font-size="14.00" fill="#000000">e</text>
</g>
<!-- a2&#45;&gt;e -->
<g id="edge12" class="edge">
<title>a2-&gt;e</title>
<path fill="none" stroke="#000000" d="M513.12,-63.8024C520.4464,-63.7034 529.648,-63.5791 538.6052,-63.458"/>
<polygon fill="#000000" stroke="#000000" points="538.9291,-66.9541 548.8809,-63.3192 538.8345,-59.9547 538.9291,-66.9541"/>
</g>
<!-- a&#45;&gt;x5 -->
<g id="edge2" class="edge">
<title>a-&gt;x5</title>
<path fill="none" stroke="#000000" d="M105.3214,-42C113.4296,-42 122.5091,-42 130.6927,-42"/>
<polygon fill="#000000" stroke="#000000" points="130.7777,-45.5001 140.7777,-42 130.7776,-38.5001 130.7777,-45.5001"/>
</g>
<!-- b&#45;&gt;x2 -->
<g id="edge4" class="edge">
<title>b-&gt;x2</title>
<path fill="none" stroke="#000000" d="M382.1045,-145.3376C393.0387,-138.2452 405.9599,-129.8638 416.1112,-123.2792"/>
<polygon fill="#000000" stroke="#000000" points="418.0336,-126.2041 424.5186,-117.8258 414.2243,-120.3314 418.0336,-126.2041"/>
</g>
<!-- c&#45;&gt;x2 -->
<g id="edge6" class="edge">
<title>c-&gt;x2</title>
<path fill="none" stroke="#000000" d="M383.3214,-112C391.4296,-112 400.5091,-112 408.6927,-112"/>
<polygon fill="#000000" stroke="#000000" points="408.7777,-115.5001 418.7777,-112 408.7776,-108.5001 408.7777,-115.5001"/>
</g>
<!-- d&#45;&gt;a2 -->
<g id="edge11" class="edge">
<title>d-&gt;a2</title>
<path fill="none" stroke="#000000" d="M383.0795,-64C408.2913,-64 448.096,-64 473.7491,-64"/>
<polygon fill="#000000" stroke="#000000" points="473.7931,-67.5001 483.7931,-64 473.7931,-60.5001 473.7931,-67.5001"/>
</g>
<!-- e&#45;&gt;x6 -->
<g id="edge14" class="edge">
<title>e-&gt;x6</title>
<path fill="none" stroke="#000000" d="M596.3214,-55.2741C605.7962,-52.2012 616.5972,-48.6982 625.7452,-45.7313"/>
<polygon fill="#000000" stroke="#000000" points="627.1138,-48.967 635.5462,-42.5526 624.9542,-42.3084 627.1138,-48.967"/>
</g>
<!-- f&#45;&gt;x5 -->
<g id="edge16" class="edge">
<title>f-&gt;x5</title>
<path fill="none" stroke="#000000" d="M335.999,-18.9952C296.6452,-24.0109 217.8847,-34.049 178.7196,-39.0406"/>
<polygon fill="#000000" stroke="#000000" points="178.0487,-35.5977 168.5714,-40.334 178.9337,-42.5416 178.0487,-35.5977"/>
</g>
<!-- g&#45;&gt;x4 -->
<g id="edge18" class="edge">
<title>g-&gt;x4</title>
<path fill="none" stroke="#000000" d="M809.3214,-55.2741C818.7962,-52.2012 829.5972,-48.6982 838.7452,-45.7313"/>
<polygon fill="#000000" stroke="#000000" points="840.1138,-48.967 848.5462,-42.5526 837.9542,-42.3084 840.1138,-48.967"/>
</g>
<!-- h&#45;&gt;x4 -->
<g id="edge20" class="edge">
<title>h-&gt;x4</title>
<path fill="none" stroke="#000000" d="M809.3214,-22.7259C818.7962,-25.7988 829.5972,-29.3018 838.7452,-32.2687"/>
<polygon fill="#000000" stroke="#000000" points="837.9542,-35.6916 848.5462,-35.4474 840.1138,-29.033 837.9542,-35.6916"/>
</g>
</g>
</svg>