<?xml version="1.0" encoding="UTF-8" standalone="no"?>
<!DOCTYPE svg PUBLIC "-//W3C//DTD SVG 1.1//EN" "http://www.w3.org/Graphics/SVG/1.1/DTD/svg11.dtd">
<!-- Generated by graphviz version 2.40.1 (20161225.0304)
 -->
<!-- Title: G Pages: 1 -->
<svg width="738pt" height="178pt" viewBox="0.00 0.00 738.00 178.00" xmlns="http://www.w3.org/2000/svg" xmlns:xlink="http://www.w3.org/1999/xlink">
<g id="graph0" class="graph" transform="scale(1 1) rotate(0) translate(4 174)">
<title>G</title>
<polygon fill="#ffffff" stroke="transparent" points="-4,4 -4,-174 734,-174 734,4 -4,4"/>
<!-- in -->
<g id="node1" class="node">
<title>in</title>
<ellipse fill="none" stroke="#000000" cx="11" cy="-61.5" rx="11" ry="11"/>
<text text-anchor="middle" x="11" y="-55.5" font-family="Times,serif" font-size="20.00" fill="#000000">•</text>
</g>
<!-- a -->
<g id="node9" class="node">
<title>a</title>
<polygon fill="none" stroke="#000000" points="87,-76 58,-76 58,-47 87,-47 87,-76"/>
<text text-anchor="middle" x="72.5" y="-57.3" font-family="Times,serif" font-size="14.00" fill="#000000">a</text>
</g>
<!-- in&#45;&gt;a -->
<g id="edge1" class="edge">
<title>in-&gt;a</title>
<path fill="none" stroke="#000000" d="M22.28,-61.5C29.3801,-61.5 38.8328,-61.5 47.621,-61.5"/>
<polygon fill="#000000" stroke="#000000" points="47.8083,-65.0001 57.8083,-61.5 47.8083,-58.0001 47.8083,-65.0001"/>
</g>
<!-- out -->
<g id="node2" class="node">
<title>out</title>
<ellipse fill="#000000" stroke="#000000" cx="719" cy="-37.5" rx="11" ry="11"/>
</g>
<!-- x1 -->
<g id="node3" class="node">
<title>x1</title>
<polygon fill="#ffff00" stroke="#000000" points="202.5,-123 188,-108.5 202.5,-94 217,-108.5 202.5,-123"/>
<text text-anchor="start" x="198" y="-104.9" font-family="Times,serif" font-size="12.00" fill="#000000">✕</text>
</g>
<!-- b -->
<g id="node10" class="node">
<title>b</title>
<polygon fill="none" stroke="#000000" points="282,-170 253,-170 253,-141 282,-141 282,-170"/>
<text text-anchor="middle" x="267.5" y="-151.3" font-family="Times,serif" font-size="14.00" fill="#000000">b</text>
</g>
<!-- x1&#45;&gt;b -->
<g id="edge3" class="edge">
<title>x1-&gt;b</title>
<path fill="none" stroke="#000000" d="M210.9976,-114.6444C219.4436,-120.7516 232.7761,-130.392 244.3694,-138.7748"/>
<polygon fill="#000000" stroke="#000000" points="242.6317,-141.8374 252.786,-144.8607 246.7333,-136.1649 242.6317,-141.8374"/>
</g>
<!-- c -->
<g id="node11" class="node">
<title>c</title>
<polygon fill="none" stroke="#000000" points="282,-123 253,-123 253,-94 282,-94 282,-123"/>
<text text-anchor="middle" x="267.5" y="-104.3" font-family="Times,serif" font-size="14.00" fill="#000000">c</text>
</g>
<!-- x1&#45;&gt;c -->
<g id="edge5" class="edge">
<title>x1-&gt;c</title>
<path fill="none" stroke="#000000" d="M217.2495,-108.5C224.7291,-108.5 234.0181,-108.5 242.5673,-108.5"/>
<polygon fill="#000000" stroke="#000000" points="242.8089,-112.0001 252.8089,-108.5 242.8088,-105.0001 242.8089,-112.0001"/>
</g>
<!-- x2 -->
<g id="node4" class="node">
<title>x2</title>
<polygon fill="#ffff00" stroke="#000000" points="332.5,-123 318,-108.5 332.5,-94 347,-108.5 332.5,-123"/>
<text text-anchor="start" x="328" y="-104.9" font-family="Times,serif" font-size="12.00" fill="#000000">✕</text>
</g>
<!-- a2 -->
<g id="node8" class="node">
<title>a2</title>
<polygon fill="#ffff00" stroke="#000000" points="397.5,-76 383,-61.5 397.5,-47 412,-61.5 397.5,-76"/>
<text text-anchor="start" x="391.861" y="-55.5" font-family="Times,serif" font-size="20.00" fill="#000000">+</text>
</g>
<!-- x2&#45;&gt;a2 -->
<g id="edge8" class="edge">
<title>x2-&gt;a2</title>
<path fill="none" stroke="#000000" d="M340.9976,-102.3556C350.9664,-95.1474 367.7424,-83.017 380.4314,-73.8419"/>
<polygon fill="#000000" stroke="#000000" points="382.7401,-76.4917 388.7928,-67.7959 378.6385,-70.8192 382.7401,-76.4917"/>
</g>
<!-- x3 -->
<g id="node5" class="node">
<title>x3</title>
<polygon fill="#ffff00" stroke="#000000" points="527.5,-52 513,-37.5 527.5,-23 542,-37.5 527.5,-52"/>
<text text-anchor="start" x="523" y="-33.9" font-family="Times,serif" font-size="12.00" fill="#000000">✕</text>
</g>
<!-- g -->
<g id="node15" class="node">
<title>g</title>
<polygon fill="none" stroke="#000000" points="607,-76 578,-76 578,-47 607,-47 607,-76"/>
<text text-anchor="middle" x="592.5" y="-57.3" font-family="Times,serif" font-size="14.00" fill="#000000">g</text>
</g>
<!-- x3&#45;&gt;g -->
<g id="edge15" class="edge">
<title>x3-&gt;g</title>
<path fill="none" stroke="#000000" d="M538.2334,-41.4631C546.431,-44.4899 558.0481,-48.7793 568.4315,-52.6132"/>
<polygon fill="#000000" stroke="#000000" points="567.2637,-55.9129 577.857,-56.0934 569.6884,-49.3462 567.2637,-55.9129"/>
</g>
<!-- h -->
<g id="node16" class="node">
<title>h</title>
<polygon fill="none" stroke="#000000" points="607,-29 578,-29 578,0 607,0 607,-29"/>
<text text-anchor="middle" x="592.5" y="-10.3" font-family="Times,serif" font-size="14.00" fill="#000000">h</text>
</g>
<!-- x3&#45;&gt;h -->
<g id="edge17" class="edge">
<title>x3-&gt;h</title>
<path fill="none" stroke="#000000" d="M538.2334,-33.702C546.3465,-30.8312 557.8089,-26.7753 568.11,-23.1303"/>
<polygon fill="#000000" stroke="#000000" points="569.5973,-26.3167 577.857,-19.6814 567.2623,-19.7177 569.5973,-26.3167"/>
</g>
<!-- x4 -->
<g id="node6" class="node">
<title>x4</title>
<polygon fill="#ffff00" stroke="#000000" points="657.5,-52 643,-37.5 657.5,-23 672,-37.5 657.5,-52"/>
<text text-anchor="start" x="653" y="-33.9" font-family="Times,serif" font-size="12.00" fill="#000000">✕</text>
</g>
<!-- x4&#45;&gt;out -->
<g id="edge19" class="edge">
<title>x4-&gt;out</title>
<path fill="none" stroke="#000000" d="M672.0746,-37.5C679.6815,-37.5 689.1346,-37.5 697.5586,-37.5"/>
<polygon fill="#000000" stroke="#000000" points="697.7982,-41.0001 707.7982,-37.5 697.7981,-34.0001 697.7982,-41.0001"/>
</g>
<!-- a1 -->
<g id="node7" class="node">
<title>a1</title>
<polygon fill="#ffff00" stroke="#000000" points="137.5,-76 123,-61.5 137.5,-47 152,-61.5 137.5,-76"/>
<text text-anchor="start" x="131.861" y="-55.5" font-family="Times,serif" font-size="20.00" fill="#000000">+</text>
</g>
<!-- a1&#45;&gt;x1 -->
<g id="edge7" class="edge">
<title>a1-&gt;x1</title>
<path fill="none" stroke="#000000" d="M145.9976,-67.6444C155.9664,-74.8526 172.7424,-86.983 185.4314,-96.1581"/>
<polygon fill="#000000" stroke="#000000" points="183.6385,-99.1808 193.7928,-102.2041 187.7401,-93.5083 183.6385,-99.1808"/>
</g>
<!-- d -->
<g id="node12" class="node">
<title>d</title>
<polygon fill="none" stroke="#000000" points="282,-76 253,-76 253,-47 282,-47 282,-76"/>
<text text-anchor="middle" x="267.5" y="-57.3" font-family="Times,serif" font-size="14.00" fill="#000000">d</text>
</g>
<!-- a1&#45;&gt;d -->
<g id="edge9" class="edge">
<title>a1-&gt;d</title>
<path fill="none" stroke="#000000" d="M152.1599,-61.5C174.104,-61.5 215.7715,-61.5 242.5596,-61.5"/>
<polygon fill="#000000" stroke="#000000" points="242.6942,-65.0001 252.6942,-61.5 242.6941,-58.0001 242.6942,-65.0001"/>
</g>
<!-- e -->
<g id="node13" class="node">
<title>e</title>
<polygon fill="none" stroke="#000000" points="477,-52 448,-52 448,-23 477,-23 477,-52"/>
<text text-anchor="middle" x="462.5" y="-33.3" font-family="Times,serif" font-size="14.00" fill="#000000">e</text>
</g>
<!-- a2&#45;&gt;e -->
<g id="edge11" class="edge">
<title>a2-&gt;e</title>
<path fill="none" stroke="#000000" d="M408.2334,-57.5369C416.431,-54.5101 428.0481,-50.2207 438.4315,-46.3868"/>
<polygon fill="#000000" stroke="#000000" points="439.6884,-49.6538 447.857,-42.9066 437.2637,-43.0871 439.6884,-49.6538"/>
</g>
<!-- a&#45;&gt;a1 -->
<g id="edge2" class="edge">
<title>a-&gt;a1</title>
<path fill="none" stroke="#000000" d="M87.2495,-61.5C94.7291,-61.5 104.0181,-61.5 112.5673,-61.5"/>
<polygon fill="#000000" stroke="#000000" points="112.8089,-65.0001 122.8089,-61.5 112.8088,-58.0001 112.8089,-65.0001"/>
</g>
<!-- b&#45;&gt;x2 -->
<g id="edge4" class="edge">
<title>b-&gt;x2</title>
<path fill="none" stroke="#000000" d="M282.2495,-144.835C292.2153,-137.629 305.3932,-128.1003 315.7537,-120.6089"/>
<polygon fill="#000000" stroke="#000000" points="317.9288,-123.3552 323.9815,-114.6595 313.8272,-117.6828 317.9288,-123.3552"/>
</g>
<!-- c&#45;&gt;x2 -->
<g id="edge6" class="edge">
<title>c-&gt;x2</title>
<path fill="none" stroke="#000000" d="M282.2495,-108.5C289.7291,-108.5 299.0181,-108.5 307.5673,-108.5"/>
<polygon fill="#000000" stroke="#000000" points="307.8089,-112.0001 317.8089,-108.5 307.8088,-105.0001 307.8089,-112.0001"/>
</g>
<!-- d&#45;&gt;a2 -->
<g id="edge10" class="edge">
<title>d-&gt;a2</title>
<path fill="none" stroke="#000000" d="M282.1599,-61.5C304.104,-61.5 345.7715,-61.5 372.5596,-61.5"/>
<polygon fill="#000000" stroke="#000000" points="372.6942,-65.0001 382.6942,-61.5 372.6941,-58.0001 372.6942,-65.0001"/>
</g>
<!-- e&#45;&gt;x3 -->
<g id="edge12" class="edge">
<title>e-&gt;x3</title>
<path fill="none" stroke="#000000" d="M477.2495,-37.5C484.7291,-37.5 494.0181,-37.5 502.5673,-37.5"/>
<polygon fill="#000000" stroke="#000000" points="502.8089,-41.0001 512.8089,-37.5 502.8088,-34.0001 502.8089,-41.0001"/>
</g>
<!-- f -->
<g id="node14" class="node">
<title>f</title>
<polygon fill="none" stroke="#000000" points="282,-29 253,-29 253,0 282,0 282,-29"/>
<text text-anchor="middle" x="267.5" y="-10.3" font-family="Times,serif" font-size="14.00" fill="#000000">f</text>
</g>
<!-- e&#45;&gt;f -->
<g id="edge13" class="edge">
<title>e-&gt;f</title>
<path fill="none" stroke="#000000" d="M447.9392,-35.7826C414.7774,-31.8712 333.326,-22.2641 292.1634,-17.409"/>
<polygon fill="#000000" stroke="#000000" points="292.4979,-13.9243 282.1567,-16.2287 291.6778,-20.8761 292.4979,-13.9243"/>
</g>
<!-- f&#45;&gt;a1 -->
<g id="edge14" class="edge">
<title>f-&gt;a1</title>
<path fill="none" stroke="#000000" d="M252.9304,-19.7675C229.7652,-28.1426 184.4578,-44.5229 158.0191,-54.0816"/>
<polygon fill="#000000" stroke="#000000" points="156.798,-50.8012 148.5837,-57.4928 159.178,-57.3842 156.798,-50.8012"/>
</g>
<!-- g&#45;&gt;x4 -->
<g id="edge16" class="edge">
<title>g-&gt;x4</title>
<path fill="none" stroke="#000000" d="M607.2495,-56.054C616.0518,-52.804 627.3599,-48.6286 637.0193,-45.0621"/>
<polygon fill="#000000" stroke="#000000" points="638.4884,-48.2507 646.6571,-41.5035 636.0638,-41.684 638.4884,-48.2507"/>
</g>
<!-- h&#45;&gt;x4 -->
<g id="edge18" class="edge">
<title>h-&gt;x4</title>
<path fill="none" stroke="#000000" d="M607.2495,-19.7191C616.0518,-22.8337 627.3599,-26.8351 637.0193,-30.253"/>
<polygon fill="#000000" stroke="#000000" points="636.0623,-33.6269 646.6571,-33.6633 638.3974,-27.0279 636.0623,-33.6269"/>
</g>
</g>
</svg>