<?xml version="1.0" encoding="UTF-8" standalone="no"?>
<!DOCTYPE svg PUBLIC "-//W3C//DTD SVG 1.1//EN" "http://www.w3.org/Graphics/SVG/1.1/DTD/svg11.dtd">
<!-- Generated by graphviz version 2.40.1 (20161225.0304)
 -->
<!-- Title: G Pages: 1 -->
<svg width="875pt" height="183pt" viewBox="0.00 0.00 875.00 183.00" xmlns="http://www.w3.org/2000/svg" xmlns:xlink="http://www.w3.org/1999/xlink">
<g id="graph0" class="graph" transform="scale(1 1) rotate(0) translate(4 179)">
<title>G</title>
<polygon fill="#ffffff" stroke="transparent" points="-4,4 -4,-179 871,-179 871,4 -4,4"/>
<!-- in -->
<g id="node1" class="node">
<title>in</title>
<ellipse fill="none" stroke="#000000" cx="11" cy="-64" rx="11" ry="11"/>
</g>
<!-- a -->
<g id="node10" class="node">
<title>a</title>
<path fill="none" stroke="#000000" d="M67.6667,-49.5C67.6667,-49.5 95.3333,-49.5 95.3333,-49.5 100.1667,-49.5 105,-54.3333 105,-59.1667 105,-59.1667 105,-68.8333 105,-68.8333 105,-73.6667 100.1667,-78.5 95.3333,-78.5 95.3333,-78.5 67.6667,-78.5 67.6667,-78.5 62.8333,-78.5 58,-73.6667 58,-68.8333 58,-68.8333 58,-59.1667 58,-59.1667 58,-54.3333 62.8333,-49.5 67.6667,-49.5"/>
<text text-anchor="middle" x="81.5" y="-59.9" font-family="Times,serif" font-size="14.00" fill="#000000">a</text>
</g>
<!-- in&#45;&gt;a -->
<g id="edge1" class="edge">
<title>in-&gt;a</title>
<path fill="none" stroke="#000000" d="M22.0156,-64C28.9374,-64 38.2756,-64 47.4995,-64"/>
<polygon fill="#000000" stroke="#000000" points="47.7302,-67.5001 57.7302,-64 47.7302,-60.5001 47.7302,-67.5001"/>
</g>
<!-- out -->
<g id="node2" class="node">
<title>out</title>
<ellipse fill="none" stroke="#000000" stroke-width="3" cx="856" cy="-39" rx="11" ry="11"/>
</g>
<!-- x1 -->
<g id="node3" class="node">
<title>x1</title>
<polygon fill="#ffff00" stroke="#000000" points="220.5,-126.5 206,-112 220.5,-97.5 235,-112 220.5,-126.5"/>
<text text-anchor="start" x="216" y="-108.4" font-family="Times,serif" font-size="12.00" fill="#000000">✕</text>
</g>
<!-- b -->
<g id="node11" class="node">
<title>b</title>
<path fill="none" stroke="#000000" d="M280.6667,-145.5C280.6667,-145.5 308.3333,-145.5 308.3333,-145.5 313.1667,-145.5 318,-150.3333 318,-155.1667 318,-155.1667 318,-164.8333 318,-164.8333 318,-169.6667 313.1667,-174.5 308.3333,-174.5 308.3333,-174.5 280.6667,-174.5 280.6667,-174.5 275.8333,-174.5 271,-169.6667 271,-164.8333 271,-164.8333 271,-155.1667 271,-155.1667 271,-150.3333 275.8333,-145.5 280.6667,-145.5"/>
<text text-anchor="middle" x="294.5" y="-155.9" font-family="Times,serif" font-size="14.00" fill="#000000">b</text>
</g>
<!-- x1&#45;&gt;b -->
<g id="edge2" class="edge">
<title>x1-&gt;b</title>
<path fill="none" stroke="#000000" d="M229.5739,-117.8857C238.0211,-123.365 251.1113,-131.8559 263.331,-139.7823"/>
<polygon fill="#000000" stroke="#000000" points="261.7018,-142.8973 271.9962,-145.4029 265.5112,-137.0246 261.7018,-142.8973"/>
</g>
<!-- c -->
<g id="node12" class="node">
<title>c</title>
<path fill="none" stroke="#000000" d="M280.6667,-97.5C280.6667,-97.5 308.3333,-97.5 308.3333,-97.5 313.1667,-97.5 318,-102.3333 318,-107.1667 318,-107.1667 318,-116.8333 318,-116.8333 318,-121.6667 313.1667,-126.5 308.3333,-126.5 308.3333,-126.5 280.6667,-126.5 280.6667,-126.5 275.8333,-126.5 271,-121.6667 271,-116.8333 271,-116.8333 271,-107.1667 271,-107.1667 271,-102.3333 275.8333,-97.5 280.6667,-97.5"/>
<text text-anchor="middle" x="294.5" y="-107.9" font-family="Times,serif" font-size="14.00" fill="#000000">c</text>
</g>
<!-- x1&#45;&gt;c -->
<g id="edge4" class="edge">
<title>x1-&gt;c</title>
<path fill="none" stroke="#000000" d="M235.12,-112C242.4464,-112 251.648,-112 260.6052,-112"/>
<polygon fill="#000000" stroke="#000000" points="260.8809,-115.5001 270.8809,-112 260.8809,-108.5001 260.8809,-115.5001"/>
</g>
<!-- x2 -->
<g id="node4" class="node">
<title>x2</title>
<polygon fill="#ffff00" stroke="#000000" points="368.5,-126.5 354,-112 368.5,-97.5 383,-112 368.5,-126.5"/>
<text text-anchor="start" x="364" y="-108.4" font-family="Times,serif" font-size="12.00" fill="#000000">✕</text>
</g>
<!-- a2 -->
<g id="node9" class="node">
<title>a2</title>
<polygon fill="#ffff00" stroke="#000000" points="433.5,-78.5 419,-64 433.5,-49.5 448,-64 433.5,-78.5"/>
<text text-anchor="start" x="427.861" y="-58" font-family="Times,serif" font-size="20.00" fill="#000000">+</text>
</g>
<!-- x2&#45;&gt;a2 -->
<g id="edge8" class="edge">
<title>x2-&gt;a2</title>
<path fill="none" stroke="#000000" d="M376.9976,-105.7248C386.9664,-98.3633 403.7424,-85.9748 416.4314,-76.6045"/>
<polygon fill="#000000" stroke="#000000" points="418.8276,-79.1859 424.7928,-70.4299 414.6693,-73.5549 418.8276,-79.1859"/>
</g>
<!-- x3 -->
<g id="node5" class="node">
<title>x3</title>
<polygon fill="#ffff00" stroke="#000000" points="646.5,-53.5 632,-39 646.5,-24.5 661,-39 646.5,-53.5"/>
<text text-anchor="start" x="642" y="-35.4" font-family="Times,serif" font-size="12.00" fill="#000000">✕</text>
</g>
<!-- g -->
<g id="node16" class="node">
<title>g</title>
<path fill="none" stroke="#000000" d="M706.6667,-48.5C706.6667,-48.5 734.3333,-48.5 734.3333,-48.5 739.1667,-48.5 744,-53.3333 744,-58.1667 744,-58.1667 744,-67.8333 744,-67.8333 744,-72.6667 739.1667,-77.5 734.3333,-77.5 734.3333,-77.5 706.6667,-77.5 706.6667,-77.5 701.8333,-77.5 697,-72.6667 697,-67.8333 697,-67.8333 697,-58.1667 697,-58.1667 697,-53.3333 701.8333,-48.5 706.6667,-48.5"/>
<text text-anchor="middle" x="720.5" y="-58.9" font-family="Times,serif" font-size="14.00" fill="#000000">g</text>
</g>
<!-- x3&#45;&gt;g -->
<g id="edge16" class="edge">
<title>x3-&gt;g</title>
<path fill="none" stroke="#000000" d="M657.739,-42.6451C665.6637,-45.2153 676.7184,-48.8006 687.3453,-52.2471"/>
<polygon fill="#000000" stroke="#000000" points="686.2905,-55.5844 696.8825,-55.3403 688.45,-48.9259 686.2905,-55.5844"/>
</g>
<!-- h -->
<g id="node17" class="node">
<title>h</title>
<path fill="none" stroke="#000000" d="M706.6667,-.5C706.6667,-.5 734.3333,-.5 734.3333,-.5 739.1667,-.5 744,-5.3333 744,-10.1667 744,-10.1667 744,-19.8333 744,-19.8333 744,-24.6667 739.1667,-29.5 734.3333,-29.5 734.3333,-29.5 706.6667,-29.5 706.6667,-29.5 701.8333,-29.5 697,-24.6667 697,-19.8333 697,-19.8333 697,-10.1667 697,-10.1667 697,-5.3333 701.8333,-.5 706.6667,-.5"/>
<text text-anchor="middle" x="720.5" y="-10.9" font-family="Times,serif" font-size="14.00" fill="#000000">h</text>
</g>
<!-- x3&#45;&gt;h -->
<g id="edge18" class="edge">
<title>x3-&gt;h</title>
<path fill="none" stroke="#000000" d="M657.739,-35.3549C665.6637,-32.7847 676.7184,-29.1994 687.3453,-25.7529"/>
<polygon fill="#000000" stroke="#000000" points="688.45,-29.0741 696.8825,-22.6597 686.2905,-22.4156 688.45,-29.0741"/>
</g>
<!-- x4 -->
<g id="node6" class="node">
<title>x4</title>
<polygon fill="#ffff00" stroke="#000000" points="794.5,-53.5 780,-39 794.5,-24.5 809,-39 794.5,-53.5"/>
<text text-anchor="start" x="790" y="-35.4" font-family="Times,serif" font-size="12.00" fill="#000000">✕</text>
</g>
<!-- x4&#45;&gt;out -->
<g id="edge20" class="edge">
<title>x4-&gt;out</title>
<path fill="none" stroke="#000000" d="M809.0746,-39C816.6815,-39 826.1346,-39 834.5586,-39"/>
<polygon fill="#000000" stroke="#000000" points="834.7982,-42.5001 844.7982,-39 834.7981,-35.5001 834.7982,-42.5001"/>
</g>
<!-- x6 -->
<g id="node7" class="node">
<title>x6</title>
<polygon fill="#ffff00" stroke="#000000" points="581.5,-53.5 567,-39 581.5,-24.5 596,-39 581.5,-53.5"/>
<text text-anchor="start" x="577" y="-35.4" font-family="Times,serif" font-size="12.00" fill="#000000">✕</text>
</g>
<!-- x6&#45;&gt;x3 -->
<g id="edge12" class="edge">
<title>x6-&gt;x3</title>
<path fill="none" stroke="#000000" d="M596.2495,-39C603.7291,-39 613.0181,-39 621.5673,-39"/>
<polygon fill="#000000" stroke="#000000" points="621.8089,-42.5001 631.8089,-39 621.8088,-35.5001 621.8089,-42.5001"/>
</g>
<!-- f -->
<g id="node15" class="node">
<title>f</title>
<path fill="none" stroke="#000000" d="M280.6667,-1.5C280.6667,-1.5 308.3333,-1.5 308.3333,-1.5 313.1667,-1.5 318,-6.3333 318,-11.1667 318,-11.1667 318,-20.8333 318,-20.8333 318,-25.6667 313.1667,-30.5 308.3333,-30.5 308.3333,-30.5 280.6667,-30.5 280.6667,-30.5 275.8333,-30.5 271,-25.6667 271,-20.8333 271,-20.8333 271,-11.1667 271,-11.1667 271,-6.3333 275.8333,-1.5 280.6667,-1.5"/>
<text text-anchor="middle" x="294.5" y="-11.9" font-family="Times,serif" font-size="14.00" fill="#000000">f</text>
</g>
<!-- x6&#45;&gt;f -->
<g id="edge14" class="edge">
<title>x6-&gt;f</title>
<path fill="none" stroke="#000000" d="M567.879,-37.9084C525.0313,-34.4746 392.0894,-23.8208 328.7406,-18.744"/>
<polygon fill="#000000" stroke="#000000" points="328.7235,-15.2315 318.4758,-17.9214 328.1642,-22.2091 328.7235,-15.2315"/>
</g>
<!-- a1 -->
<g id="node8" class="node">
<title>a1</title>
<polygon fill="#ffff00" stroke="#000000" points="155.5,-78.5 141,-64 155.5,-49.5 170,-64 155.5,-78.5"/>
<text text-anchor="start" x="149.861" y="-58" font-family="Times,serif" font-size="20.00" fill="#000000">+</text>
</g>
<!-- a1&#45;&gt;x1 -->
<g id="edge7" class="edge">
<title>a1-&gt;x1</title>
<path fill="none" stroke="#000000" d="M163.9976,-70.2752C173.9664,-77.6367 190.7424,-90.0252 203.4314,-99.3955"/>
<polygon fill="#000000" stroke="#000000" points="201.6693,-102.4451 211.7928,-105.5701 205.8276,-96.8141 201.6693,-102.4451"/>
</g>
<!-- d -->
<g id="node13" class="node">
<title>d</title>
<path fill="none" stroke="#000000" d="M280.6667,-49.5C280.6667,-49.5 308.3333,-49.5 308.3333,-49.5 313.1667,-49.5 318,-54.3333 318,-59.1667 318,-59.1667 318,-68.8333 318,-68.8333 318,-73.6667 313.1667,-78.5 308.3333,-78.5 308.3333,-78.5 280.6667,-78.5 280.6667,-78.5 275.8333,-78.5 271,-73.6667 271,-68.8333 271,-68.8333 271,-59.1667 271,-59.1667 271,-54.3333 275.8333,-49.5 280.6667,-49.5"/>
<text text-anchor="middle" x="294.5" y="-59.9" font-family="Times,serif" font-size="14.00" fill="#000000">d</text>
</g>
<!-- a1&#45;&gt;d -->
<g id="edge9" class="edge">
<title>a1-&gt;d</title>
<path fill="none" stroke="#000000" d="M170.1127,-64C191.4678,-64 231.8049,-64 260.7601,-64"/>
<polygon fill="#000000" stroke="#000000" points="260.8566,-67.5001 270.8566,-64 260.8565,-60.5001 260.8566,-67.5001"/>
</g>
<!-- e -->
<g id="node14" class="node">
<title>e</title>
<path fill="none" stroke="#000000" d="M493.6667,-48.5C493.6667,-48.5 521.3333,-48.5 521.3333,-48.5 526.1667,-48.5 531,-53.3333 531,-58.1667 531,-58.1667 531,-67.8333 531,-67.8333 531,-72.6667 526.1667,-77.5 521.3333,-77.5 521.3333,-77.5 493.6667,-77.5 493.6667,-77.5 488.8333,-77.5 484,-72.6667 484,-67.8333 484,-67.8333 484,-58.1667 484,-58.1667 484,-53.3333 488.8333,-48.5 493.6667,-48.5"/>
<text text-anchor="middle" x="507.5" y="-58.9" font-family="Times,serif" font-size="14.00" fill="#000000">e</text>
</g>
<!-- a2&#45;&gt;e -->
<g id="edge11" class="edge">
<title>a2-&gt;e</title>
<path fill="none" stroke="#000000" d="M448.12,-63.8024C455.4464,-63.7034 464.648,-63.5791 473.6052,-63.458"/>
<polygon fill="#000000" stroke="#000000" points="473.9291,-66.9541 483.8809,-63.3192 473.8345,-59.9547 473.9291,-66.9541"/>
</g>
<!-- a&#45;&gt;a1 -->
<g id="edge6" class="edge">
<title>a-&gt;a1</title>
<path fill="none" stroke="#000000" d="M105.3214,-64C113.4296,-64 122.5091,-64 130.6927,-64"/>
<polygon fill="#000000" stroke="#000000" points="130.7777,-67.5001 140.7777,-64 130.7776,-60.5001 130.7777,-67.5001"/>
</g>
<!-- b&#45;&gt;x2 -->
<g id="edge3" class="edge">
<title>b-&gt;x2</title>
<path fill="none" stroke="#000000" d="M317.1045,-145.3376C328.0387,-138.2452 340.9599,-129.8638 351.1112,-123.2792"/>
<polygon fill="#000000" stroke="#000000" points="353.0336,-126.2041 359.5186,-117.8258 349.2243,-120.3314 353.0336,-126.2041"/>
</g>
<!-- c&#45;&gt;x2 -->
<g id="edge5" class="edge">
<title>c-&gt;x2</title>
<path fill="none" stroke="#000000" d="M318.3214,-112C326.4296,-112 335.5091,-112 343.6927,-112"/>
<polygon fill="#000000" stroke="#000000" points="343.7777,-115.5001 353.7777,-112 343.7776,-108.5001 343.7777,-115.5001"/>
</g>
<!-- d&#45;&gt;a2 -->
<g id="edge10" class="edge">
<title>d-&gt;a2</title>
<path fill="none" stroke="#000000" d="M318.0795,-64C343.2913,-64 383.096,-64 408.7491,-64"/>
<polygon fill="#000000" stroke="#000000" points="408.7931,-67.5001 418.7931,-64 408.7931,-60.5001 408.7931,-67.5001"/>
</g>
<!-- e&#45;&gt;x6 -->
<g id="edge13" class="edge">
<title>e-&gt;x6</title>
<path fill="none" stroke="#000000" d="M531.3214,-55.2741C540.7962,-52.2012 551.5972,-48.6982 560.7452,-45.7313"/>
<polygon fill="#000000" stroke="#000000" points="562.1138,-48.967 570.5462,-42.5526 559.9542,-42.3084 562.1138,-48.967"/>
</g>
<!-- f&#45;&gt;a1 -->
<g id="edge15" class="edge">
<title>f-&gt;a1</title>
<path fill="none" stroke="#000000" d="M270.8713,-24.1595C244.2439,-33.3546 201.384,-48.1552 176.0789,-56.8936"/>
<polygon fill="#000000" stroke="#000000" points="174.7169,-53.6611 166.4071,-60.2335 177.0018,-60.2777 174.7169,-53.6611"/>
</g>
<!-- g&#45;&gt;x4 -->
<g id="edge17" class="edge">
<title>g-&gt;x4</title>
<path fill="none" stroke="#000000" d="M744.3214,-55.2741C753.7962,-52.2012 764.5972,-48.6982 773.7452,-45.7313"/>
<polygon fill="#000000" stroke="#000000" points="775.1138,-48.967 783.5462,-42.5526 772.9542,-42.3084 775.1138,-48.967"/>
</g>
<!-- h&#45;&gt;x4 -->
<g id="edge19" class="edge">
<title>h-&gt;x4</title>
<path fill="none" stroke="#000000" d="M744.3214,-22.7259C753.7962,-25.7988 764.5972,-29.3018 773.7452,-32.2687"/>
<polygon fill="#000000" stroke="#000000" points="772.9542,-35.6916 783.5462,-35.4474 775.1138,-29.033 772.9542,-35.6916"/>
</g>
</g>
</svg>