<?xml version="1.0" encoding="UTF-8" standalone="no"?>
<!DOCTYPE svg PUBLIC "-//W3C//DTD SVG 1.1//EN" "http://www.w3.org/Graphics/SVG/1.1/DTD/svg11.dtd">
<!-- Generated by graphviz version 2.40.1 (20161225.0304)
 -->
<!-- Title: G Pages: 1 -->
<svg width="420pt" height="105pt" viewBox="0.00 0.00 420.00 105.00" xmlns="http://www.w3.org/2000/svg" xmlns:xlink="http://www.w3.org/1999/xlink">
<g id="graph0" class="graph" transform="scale(1 1) rotate(0) translate(4 101)">
<title>G</title>
<polygon fill="#ffffff" stroke="transparent" points="-4,4 -4,-101 416,-101 416,4 -4,4"/>
<!-- in -->
<g id="node1" class="node">
<title>in</title>
<ellipse fill="none" stroke="#000000" cx="11" cy="-35.5" rx="11" ry="11"/>
<text text-anchor="middle" x="11" y="-29.5" font-family="Times,serif" font-size="20.00" fill="#000000">•</text>
</g>
<!-- a -->
<g id="node5" class="node">
<title>a</title>
<polygon fill="none" stroke="#000000" points="87,-50 58,-50 58,-21 87,-21 87,-50"/>
<text text-anchor="middle" x="72.5" y="-31.3" font-family="Times,serif" font-size="14.00" fill="#000000">a</text>
</g>
<!-- in&#45;&gt;a -->
<g id="edge1" class="edge">
<title>in-&gt;a</title>
<path fill="none" stroke="#000000" d="M22.28,-35.5C29.3801,-35.5 38.8328,-35.5 47.621,-35.5"/>
<polygon fill="#000000" stroke="#000000" points="47.8083,-39.0001 57.8083,-35.5 47.8083,-32.0001 47.8083,-39.0001"/>
</g>
<!-- out -->
<g id="node2" class="node">
<title>out</title>
<ellipse fill="#000000" stroke="#000000" cx="397.5" cy="-82.5" rx="11" ry="11"/>
</g>
<!-- a1 -->
<g id="node3" class="node">
<title>a1</title>
<polygon fill="#ffff00" stroke="#000000" points="137.5,-50 123,-35.5 137.5,-21 152,-35.5 137.5,-50"/>
<text text-anchor="start" x="131.861" y="-29.5" font-family="Times,serif" font-size="20.00" fill="#000000">+</text>
</g>
<!-- b -->
<g id="node6" class="node">
<title>b</title>
<polygon fill="none" stroke="#000000" points="217,-97 188,-97 188,-68 217,-68 217,-97"/>
<text text-anchor="middle" x="202.5" y="-78.3" font-family="Times,serif" font-size="14.00" fill="#000000">b</text>
</g>
<!-- a1&#45;&gt;b -->
<g id="edge3" class="edge">
<title>a1-&gt;b</title>
<path fill="none" stroke="#000000" d="M145.9976,-41.6444C154.4436,-47.7516 167.7761,-57.392 179.3694,-65.7748"/>
<polygon fill="#000000" stroke="#000000" points="177.6317,-68.8374 187.786,-71.8607 181.7333,-63.1649 177.6317,-68.8374"/>
</g>
<!-- c -->
<g id="node7" class="node">
<title>c</title>
<polygon fill="none" stroke="#000000" points="217,-50 188,-50 188,-21 217,-21 217,-50"/>
<text text-anchor="middle" x="202.5" y="-31.3" font-family="Times,serif" font-size="14.00" fill="#000000">c</text>
</g>
<!-- a1&#45;&gt;c -->
<g id="edge5" class="edge">
<title>a1-&gt;c</title>
<path fill="none" stroke="#000000" d="M152.2495,-35.5C159.7291,-35.5 169.0181,-35.5 177.5673,-35.5"/>
<polygon fill="#000000" stroke="#000000" points="177.8089,-39.0001 187.8089,-35.5 177.8088,-32.0001 177.8089,-39.0001"/>
</g>
<!-- a2 -->
<g id="node4" class="node">
<title>a2</title>
<polygon fill="#ffff00" stroke="#000000" points="267.5,-73 253,-58.5 267.5,-44 282,-58.5 267.5,-73"/>
<text text-anchor="start" x="261.861" y="-52.5" font-family="Times,serif" font-size="20.00" fill="#000000">+</text>
</g>
<!-- d -->
<g id="node8" class="node">
<title>d</title>
<polygon fill="none" stroke="#000000" points="347,-97 318,-97 318,-68 347,-68 347,-97"/>
<text text-anchor="middle" x="332.5" y="-78.3" font-family="Times,serif" font-size="14.00" fill="#000000">d</text>
</g>
<!-- a2&#45;&gt;d -->
<g id="edge10" class="edge">
<title>a2-&gt;d</title>
<path fill="none" stroke="#000000" d="M278.2334,-62.4631C286.431,-65.4899 298.0481,-69.7793 308.4315,-73.6132"/>
<polygon fill="#000000" stroke="#000000" points="307.2637,-76.9129 317.857,-77.0934 309.6884,-70.3462 307.2637,-76.9129"/>
</g>
<!-- e -->
<g id="node9" class="node">
<title>e</title>
<polygon fill="none" stroke="#000000" points="347,-50 318,-50 318,-21 347,-21 347,-50"/>
<text text-anchor="middle" x="332.5" y="-31.3" font-family="Times,serif" font-size="14.00" fill="#000000">e</text>
</g>
<!-- a2&#45;&gt;e -->
<g id="edge7" class="edge">
<title>a2-&gt;e</title>
<path fill="none" stroke="#000000" d="M278.2334,-54.702C286.3465,-51.8312 297.8089,-47.7753 308.11,-44.1303"/>
<polygon fill="#000000" stroke="#000000" points="309.5973,-47.3167 317.857,-40.6814 307.2623,-40.7177 309.5973,-47.3167"/>
</g>
<!-- a&#45;&gt;a1 -->
<g id="edge2" class="edge">
<title>a-&gt;a1</title>
<path fill="none" stroke="#000000" d="M87.2495,-35.5C94.7291,-35.5 104.0181,-35.5 112.5673,-35.5"/>
<polygon fill="#000000" stroke="#000000" points="112.8089,-39.0001 122.8089,-35.5 112.8088,-32.0001 112.8089,-39.0001"/>
</g>
<!-- b&#45;&gt;a2 -->
<g id="edge4" class="edge">
<title>b-&gt;a2</title>
<path fill="none" stroke="#000000" d="M217.2495,-77.054C226.0518,-73.804 237.3599,-69.6286 247.0193,-66.0621"/>
<polygon fill="#000000" stroke="#000000" points="248.4884,-69.2507 256.6571,-62.5035 246.0638,-62.684 248.4884,-69.2507"/>
</g>
<!-- c&#45;&gt;a2 -->
<g id="edge6" class="edge">
<title>c-&gt;a2</title>
<path fill="none" stroke="#000000" d="M217.2495,-40.7191C226.0518,-43.8337 237.3599,-47.8351 247.0193,-51.253"/>
<polygon fill="#000000" stroke="#000000" points="246.0623,-54.6269 256.6571,-54.6633 248.3974,-48.0279 246.0623,-54.6269"/>
</g>
<!-- d&#45;&gt;out -->
<g id="edge11" class="edge">
<title>d-&gt;out</title>
<path fill="none" stroke="#000000" d="M347.2495,-82.5C355.7568,-82.5 366.6049,-82.5 376.0429,-82.5"/>
<polygon fill="#000000" stroke="#000000" points="376.2498,-86.0001 386.2498,-82.5 376.2497,-79.0001 376.2498,-86.0001"/>
</g>
<!-- f -->
<g id="node10" class="node">
<title>f</title>
<polygon fill="none" stroke="#000000" points="412,-29 383,-29 383,0 412,0 412,-29"/>
<text text-anchor="middle" x="397.5" y="-10.3" font-family="Times,serif" font-size="14.00" fill="#000000">f</text>
</g>
<!-- e&#45;&gt;f -->
<g id="edge8" class="edge">
<title>e-&gt;f</title>
<path fill="none" stroke="#000000" d="M347.2495,-30.7348C354.8953,-28.2646 364.4318,-25.1836 373.1361,-22.3714"/>
<polygon fill="#000000" stroke="#000000" points="374.3692,-25.6512 382.8089,-19.2464 372.2171,-18.9902 374.3692,-25.6512"/>
</g>
<!-- f&#45;&gt;a1 -->
<g id="edge9" class="edge">
<title>f-&gt;a1</title>
<path fill="none" stroke="#000000" d="M382.7963,-12.1534C348.2905,-7.1213 259.625,3.0426 188,-12.5 176.7994,-14.9305 165.1028,-20.0692 155.7902,-24.8741"/>
<polygon fill="#000000" stroke="#000000" points="153.8522,-21.9447 146.757,-29.813 157.2103,-28.0867 153.8522,-21.9447"/>
</g>
</g>
</svg>