<?xml version="1.0" encoding="UTF-8" standalone="no"?>
<!DOCTYPE svg PUBLIC "-//W3C//DTD SVG 1.1//EN" "http://www.w3.org/Graphics/SVG/1.1/DTD/svg11.dtd">
<!-- Generated by graphviz version 2.40.1 (20161225.0304)
 -->
<!-- Title: G Pages: 1 -->
<svg width="976pt" height="105pt" viewBox="0.00 0.00 976.00 105.00" xmlns="http://www.w3.org/2000/svg" xmlns:xlink="http://www.w3.org/1999/xlink">
<g id="graph0" class="graph" transform="scale(1 1) rotate(0) translate(4 101)">
<title>G</title>
<polygon fill="#ffffff" stroke="transparent" points="-4,4 -4,-101 972,-101 972,4 -4,4"/>
<!-- in -->
<g id="node1" class="node">
<title>in</title>
<ellipse fill="none" stroke="#000000" cx="11" cy="-36" rx="11" ry="11"/>
</g>
<!-- a -->
<g id="node9" class="node">
<title>a</title>
<path fill="none" stroke="#000000" d="M67.6667,-21.5C67.6667,-21.5 95.3333,-21.5 95.3333,-21.5 100.1667,-21.5 105,-26.3333 105,-31.1667 105,-31.1667 105,-40.8333 105,-40.8333 105,-45.6667 100.1667,-50.5 95.3333,-50.5 95.3333,-50.5 67.6667,-50.5 67.6667,-50.5 62.8333,-50.5 58,-45.6667 58,-40.8333 58,-40.8333 58,-31.1667 58,-31.1667 58,-26.3333 62.8333,-21.5 67.6667,-21.5"/>
<text text-anchor="middle" x="81.5" y="-31.9" font-family="Times,serif" font-size="14.00" fill="#000000">a</text>
</g>
<!-- in&#45;&gt;a -->
<g id="edge1" class="edge">
<title>in-&gt;a</title>
<path fill="none" stroke="#000000" d="M22.0156,-36C28.9374,-36 38.2756,-36 47.4995,-36"/>
<polygon fill="#000000" stroke="#000000" points="47.7302,-39.5001 57.7302,-36 47.7302,-32.5001 47.7302,-39.5001"/>
</g>
<!-- out -->
<g id="node2" class="node">
<title>out</title>
<ellipse fill="none" stroke="#000000" stroke-width="3" cx="957" cy="-36" rx="11" ry="11"/>
</g>
<!-- x1 -->
<g id="node3" class="node">
<title>x1</title>
<polygon fill="#ffff00" stroke="#000000" points="155.5,-50.5 141,-36 155.5,-21.5 170,-36 155.5,-50.5"/>
<text text-anchor="start" x="151" y="-32.4" font-family="Times,serif" font-size="12.00" fill="#000000">✕</text>
</g>
<!-- o1 -->
<g id="node5" class="node">
<title>o1</title>
<polygon fill="#ffff00" stroke="#000000" points="220.5,-72.5 206,-58 220.5,-43.5 235,-58 220.5,-72.5"/>
<text text-anchor="start" x="216" y="-54.4" font-family="Times,serif" font-size="12.00" fill="#000000">✕</text>
</g>
<!-- x1&#45;&gt;o1 -->
<g id="edge3" class="edge">
<title>x1-&gt;o1</title>
<path fill="none" stroke="#000000" d="M166.5264,-39.732C175.6392,-42.8163 188.8289,-47.2806 199.8884,-51.0238"/>
<polygon fill="#000000" stroke="#000000" points="199.0422,-54.4323 209.6365,-54.3231 201.2864,-47.8018 199.0422,-54.4323"/>
</g>
<!-- f -->
<g id="node15" class="node">
<title>f</title>
<path fill="none" stroke="#000000" d="M428.6667,-.5C428.6667,-.5 456.3333,-.5 456.3333,-.5 461.1667,-.5 466,-5.3333 466,-10.1667 466,-10.1667 466,-19.8333 466,-19.8333 466,-24.6667 461.1667,-29.5 456.3333,-29.5 456.3333,-29.5 428.6667,-29.5 428.6667,-29.5 423.8333,-29.5 419,-24.6667 419,-19.8333 419,-19.8333 419,-10.1667 419,-10.1667 419,-5.3333 423.8333,-.5 428.6667,-.5"/>
<text text-anchor="middle" x="442.5" y="-10.9" font-family="Times,serif" font-size="14.00" fill="#000000">f</text>
</g>
<!-- x1&#45;&gt;f -->
<g id="edge6" class="edge">
<title>x1-&gt;f</title>
<path fill="none" stroke="#000000" d="M169.3426,-34.9871C212.5286,-31.8272 345.6554,-22.0862 408.7128,-17.4722"/>
<polygon fill="#000000" stroke="#000000" points="409.2043,-20.9457 418.9221,-16.7252 408.6934,-13.9644 409.2043,-20.9457"/>
</g>
<!-- x2 -->
<g id="node4" class="node">
<title>x2</title>
<polygon fill="#ffff00" stroke="#000000" points="812.5,-50.5 798,-36 812.5,-21.5 827,-36 812.5,-50.5"/>
<text text-anchor="start" x="808" y="-32.4" font-family="Times,serif" font-size="12.00" fill="#000000">✕</text>
</g>
<!-- d -->
<g id="node13" class="node">
<title>d</title>
<path fill="none" stroke="#000000" d="M872.6667,-21.5C872.6667,-21.5 900.3333,-21.5 900.3333,-21.5 905.1667,-21.5 910,-26.3333 910,-31.1667 910,-31.1667 910,-40.8333 910,-40.8333 910,-45.6667 905.1667,-50.5 900.3333,-50.5 900.3333,-50.5 872.6667,-50.5 872.6667,-50.5 867.8333,-50.5 863,-45.6667 863,-40.8333 863,-40.8333 863,-31.1667 863,-31.1667 863,-26.3333 867.8333,-21.5 872.6667,-21.5"/>
<text text-anchor="middle" x="886.5" y="-31.9" font-family="Times,serif" font-size="14.00" fill="#000000">d</text>
</g>
<!-- x2&#45;&gt;d -->
<g id="edge16" class="edge">
<title>x2-&gt;d</title>
<path fill="none" stroke="#000000" d="M827.12,-36C834.4464,-36 843.648,-36 852.6052,-36"/>
<polygon fill="#000000" stroke="#000000" points="852.8809,-39.5001 862.8809,-36 852.8809,-32.5001 852.8809,-39.5001"/>
</g>
<!-- o2 -->
<g id="node6" class="node">
<title>o2</title>
<polygon fill="#ffff00" stroke="#000000" points="368.5,-96.5 354,-82 368.5,-67.5 383,-82 368.5,-96.5"/>
<text text-anchor="start" x="364" y="-78.4" font-family="Times,serif" font-size="12.00" fill="#000000">✕</text>
</g>
<!-- o1&#45;&gt;o2 -->
<g id="edge15" class="edge">
<title>o1-&gt;o2</title>
<path fill="none" stroke="#000000" d="M229.3616,-63.7139C239.1129,-69.633 255.4704,-78.4975 271,-82 296.0781,-87.656 325.7165,-86.601 345.6778,-84.8071"/>
<polygon fill="#000000" stroke="#000000" points="346.0946,-88.2828 355.6814,-83.7724 345.3744,-81.3199 346.0946,-88.2828"/>
</g>
<!-- ba -->
<g id="node10" class="node">
<title>ba</title>
<path fill="none" stroke="#000000" d="M280.6667,-43.5C280.6667,-43.5 308.3333,-43.5 308.3333,-43.5 313.1667,-43.5 318,-48.3333 318,-53.1667 318,-53.1667 318,-62.8333 318,-62.8333 318,-67.6667 313.1667,-72.5 308.3333,-72.5 308.3333,-72.5 280.6667,-72.5 280.6667,-72.5 275.8333,-72.5 271,-67.6667 271,-62.8333 271,-62.8333 271,-53.1667 271,-53.1667 271,-48.3333 275.8333,-43.5 280.6667,-43.5"/>
<text text-anchor="middle" x="294.5" y="-53.9" font-family="Times,serif" font-size="14.00" fill="#000000">b</text>
</g>
<!-- o1&#45;&gt;ba -->
<g id="edge4" class="edge">
<title>o1-&gt;ba</title>
<path fill="none" stroke="#000000" d="M235.12,-58C242.4464,-58 251.648,-58 260.6052,-58"/>
<polygon fill="#000000" stroke="#000000" points="260.8809,-61.5001 270.8809,-58 260.8809,-54.5001 260.8809,-61.5001"/>
</g>
<!-- c -->
<g id="node12" class="node">
<title>c</title>
<path fill="none" stroke="#000000" d="M428.6667,-67.5C428.6667,-67.5 456.3333,-67.5 456.3333,-67.5 461.1667,-67.5 466,-72.3333 466,-77.1667 466,-77.1667 466,-86.8333 466,-86.8333 466,-91.6667 461.1667,-96.5 456.3333,-96.5 456.3333,-96.5 428.6667,-96.5 428.6667,-96.5 423.8333,-96.5 419,-91.6667 419,-86.8333 419,-86.8333 419,-77.1667 419,-77.1667 419,-72.3333 423.8333,-67.5 428.6667,-67.5"/>
<text text-anchor="middle" x="442.5" y="-77.9" font-family="Times,serif" font-size="14.00" fill="#000000">c</text>
</g>
<!-- o2&#45;&gt;c -->
<g id="edge8" class="edge">
<title>o2-&gt;c</title>
<path fill="none" stroke="#000000" d="M383.12,-82C390.4464,-82 399.648,-82 408.6052,-82"/>
<polygon fill="#000000" stroke="#000000" points="408.8809,-85.5001 418.8809,-82 408.8809,-78.5001 408.8809,-85.5001"/>
</g>
<!-- o3 -->
<g id="node7" class="node">
<title>o3</title>
<polygon fill="#ffff00" stroke="#000000" points="599.5,-96.5 585,-82 599.5,-67.5 614,-82 599.5,-96.5"/>
<text text-anchor="start" x="595" y="-78.4" font-family="Times,serif" font-size="12.00" fill="#000000">✕</text>
</g>
<!-- o4 -->
<g id="node8" class="node">
<title>o4</title>
<polygon fill="#ffff00" stroke="#000000" points="747.5,-72.5 733,-58 747.5,-43.5 762,-58 747.5,-72.5"/>
<text text-anchor="start" x="743" y="-54.4" font-family="Times,serif" font-size="12.00" fill="#000000">✕</text>
</g>
<!-- o3&#45;&gt;o4 -->
<g id="edge13" class="edge">
<title>o3-&gt;o4</title>
<path fill="none" stroke="#000000" d="M612.3186,-83.7724C631.1499,-85.9802 667.2778,-88.7034 697,-82 708.5259,-79.4005 720.5078,-73.8474 729.9065,-68.7369"/>
<polygon fill="#000000" stroke="#000000" points="731.7155,-71.7341 738.6384,-63.7139 728.225,-65.6664 731.7155,-71.7341"/>
</g>
<!-- e -->
<g id="node14" class="node">
<title>e</title>
<path fill="none" stroke="#000000" d="M659.6667,-43.5C659.6667,-43.5 687.3333,-43.5 687.3333,-43.5 692.1667,-43.5 697,-48.3333 697,-53.1667 697,-53.1667 697,-62.8333 697,-62.8333 697,-67.6667 692.1667,-72.5 687.3333,-72.5 687.3333,-72.5 659.6667,-72.5 659.6667,-72.5 654.8333,-72.5 650,-67.6667 650,-62.8333 650,-62.8333 650,-53.1667 650,-53.1667 650,-48.3333 654.8333,-43.5 659.6667,-43.5"/>
<text text-anchor="middle" x="673.5" y="-53.9" font-family="Times,serif" font-size="14.00" fill="#000000">e</text>
</g>
<!-- o3&#45;&gt;e -->
<g id="edge11" class="edge">
<title>o3-&gt;e</title>
<path fill="none" stroke="#000000" d="M610.739,-78.3549C618.6637,-75.7847 629.7184,-72.1994 640.3453,-68.7529"/>
<polygon fill="#000000" stroke="#000000" points="641.45,-72.0741 649.8825,-65.6597 639.2905,-65.4156 641.45,-72.0741"/>
</g>
<!-- o4&#45;&gt;x2 -->
<g id="edge14" class="edge">
<title>o4-&gt;x2</title>
<path fill="none" stroke="#000000" d="M758.5264,-54.268C767.6392,-51.1837 780.8289,-46.7194 791.8884,-42.9762"/>
<polygon fill="#000000" stroke="#000000" points="793.2864,-46.1982 801.6365,-39.6769 791.0422,-39.5677 793.2864,-46.1982"/>
</g>
<!-- a&#45;&gt;x1 -->
<g id="edge2" class="edge">
<title>a-&gt;x1</title>
<path fill="none" stroke="#000000" d="M105.3214,-36C113.4296,-36 122.5091,-36 130.6927,-36"/>
<polygon fill="#000000" stroke="#000000" points="130.7777,-39.5001 140.7777,-36 130.7776,-32.5001 130.7777,-39.5001"/>
</g>
<!-- ba&#45;&gt;o2 -->
<g id="edge5" class="edge">
<title>ba-&gt;o2</title>
<path fill="none" stroke="#000000" d="M318.3214,-65.7259C327.7962,-68.7988 338.5972,-72.3018 347.7452,-75.2687"/>
<polygon fill="#000000" stroke="#000000" points="346.9542,-78.6916 357.5462,-78.4474 349.1138,-72.033 346.9542,-78.6916"/>
</g>
<!-- bb -->
<g id="node11" class="node">
<title>bb</title>
<path fill="none" stroke="#000000" d="M511.6667,-67.5C511.6667,-67.5 539.3333,-67.5 539.3333,-67.5 544.1667,-67.5 549,-72.3333 549,-77.1667 549,-77.1667 549,-86.8333 549,-86.8333 549,-91.6667 544.1667,-96.5 539.3333,-96.5 539.3333,-96.5 511.6667,-96.5 511.6667,-96.5 506.8333,-96.5 502,-91.6667 502,-86.8333 502,-86.8333 502,-77.1667 502,-77.1667 502,-72.3333 506.8333,-67.5 511.6667,-67.5"/>
<text text-anchor="middle" x="525.5" y="-77.9" font-family="Times,serif" font-size="14.00" fill="#000000">b</text>
</g>
<!-- bb&#45;&gt;o3 -->
<g id="edge10" class="edge">
<title>bb-&gt;o3</title>
<path fill="none" stroke="#000000" d="M549.3214,-82C557.4296,-82 566.5091,-82 574.6927,-82"/>
<polygon fill="#000000" stroke="#000000" points="574.7777,-85.5001 584.7777,-82 574.7776,-78.5001 574.7777,-85.5001"/>
</g>
<!-- c&#45;&gt;bb -->
<g id="edge9" class="edge">
<title>c-&gt;bb</title>
<path fill="none" stroke="#000000" d="M466.0625,-82C474.0355,-82 483.1024,-82 491.7105,-82"/>
<polygon fill="#000000" stroke="#000000" points="491.8787,-85.5001 501.8786,-82 491.8786,-78.5001 491.8787,-85.5001"/>
</g>
<!-- d&#45;&gt;out -->
<g id="edge17" class="edge">
<title>d-&gt;out</title>
<path fill="none" stroke="#000000" d="M910.3681,-36C918.607,-36 927.7753,-36 935.7872,-36"/>
<polygon fill="#000000" stroke="#000000" points="935.7999,-39.5001 945.7999,-36 935.7998,-32.5001 935.7999,-39.5001"/>
</g>
<!-- e&#45;&gt;o4 -->
<g id="edge12" class="edge">
<title>e-&gt;o4</title>
<path fill="none" stroke="#000000" d="M697.3214,-58C705.4296,-58 714.5091,-58 722.6927,-58"/>
<polygon fill="#000000" stroke="#000000" points="722.7777,-61.5001 732.7777,-58 722.7776,-54.5001 722.7777,-61.5001"/>
</g>
<!-- f&#45;&gt;x2 -->
<g id="edge7" class="edge">
<title>f-&gt;x2</title>
<path fill="none" stroke="#000000" d="M466.1723,-15C496.9058,-15 552.2092,-15 599.5,-15 599.5,-15 599.5,-15 673.5,-15 715.3283,-15 763.4504,-24.4123 790.6916,-30.6341"/>
<polygon fill="#000000" stroke="#000000" points="790.1548,-34.1035 800.6911,-32.9912 791.7609,-27.2902 790.1548,-34.1035"/>
</g>
</g>
</svg>