<?xml version="1.0" encoding="UTF-8" standalone="no"?>
<!DOCTYPE svg PUBLIC "-//W3C//DTD SVG 1.1//EN" "http://www.w3.org/Graphics/SVG/1.1/DTD/svg11.dtd">
<!-- Generated by graphviz version 2.40.1 (20161225.0304)
 -->
<!-- Title: G Pages: 1 -->
<svg width="644pt" height="247pt" viewBox="0.00 0.00 644.00 247.10" xmlns="http://www.w3.org/2000/svg" xmlns:xlink="http://www.w3.org/1999/xlink">
<g id="graph0" class="graph" transform="scale(1 1) rotate(0) translate(4 243.0986)">
<title>G</title>
<polygon fill="#ffffff" stroke="transparent" points="-4,4 -4,-243.0986 640,-243.0986 640,4 -4,4"/>
<!-- in -->
<g id="node1" class="node">
<title>in</title>
<ellipse fill="none" stroke="#000000" cx="11" cy="-87" rx="11" ry="11"/>
</g>
<!-- a1 -->
<g id="node3" class="node">
<title>a1</title>
<polygon fill="#ffff00" stroke="#000000" points="72.5,-101.5 58,-87 72.5,-72.5 87,-87 72.5,-101.5"/>
<text text-anchor="start" x="66.861" y="-81" font-family="Times,serif" font-size="20.00" fill="#000000">+</text>
</g>
<!-- in&#45;&gt;a1 -->
<g id="edge1" class="edge">
<title>in-&gt;a1</title>
<path fill="none" stroke="#000000" d="M22.28,-87C29.3801,-87 38.8328,-87 47.621,-87"/>
<polygon fill="#000000" stroke="#000000" points="47.8083,-90.5001 57.8083,-87 47.8083,-83.5001 47.8083,-90.5001"/>
</g>
<!-- out -->
<g id="node2" class="node">
<title>out</title>
<ellipse fill="none" stroke="#000000" stroke-width="3" cx="625" cy="-87" rx="11" ry="11"/>
</g>
<!-- o1 -->
<g id="node5" class="node">
<title>o1</title>
<polygon fill="#ffff00" stroke="#000000" points="137.5,-149.5 123,-135 137.5,-120.5 152,-135 137.5,-149.5"/>
<text text-anchor="start" x="131.1646" y="-131.4" font-family="Times,serif" font-size="12.00" fill="#000000">◯</text>
</g>
<!-- a1&#45;&gt;o1 -->
<g id="edge2" class="edge">
<title>a1-&gt;o1</title>
<path fill="none" stroke="#000000" d="M80.9976,-93.2752C90.9664,-100.6367 107.7424,-113.0252 120.4314,-122.3955"/>
<polygon fill="#000000" stroke="#000000" points="118.6693,-125.4451 128.7928,-128.5701 122.8276,-119.8141 118.6693,-125.4451"/>
</g>
<!-- a -->
<g id="node9" class="node">
<title>a</title>
<path fill="none" stroke="#000000" d="M197.6667,-.5C197.6667,-.5 225.3333,-.5 225.3333,-.5 230.1667,-.5 235,-5.3333 235,-10.1667 235,-10.1667 235,-19.8333 235,-19.8333 235,-24.6667 230.1667,-29.5 225.3333,-29.5 225.3333,-29.5 197.6667,-29.5 197.6667,-29.5 192.8333,-29.5 188,-24.6667 188,-19.8333 188,-19.8333 188,-10.1667 188,-10.1667 188,-5.3333 192.8333,-.5 197.6667,-.5"/>
<text text-anchor="middle" x="211.5" y="-10.9" font-family="Times,serif" font-size="14.00" fill="#000000">a</text>
</g>
<!-- a1&#45;&gt;a -->
<g id="edge12" class="edge">
<title>a1-&gt;a</title>
<path fill="none" stroke="#000000" d="M82.054,-82.0511C101.6202,-71.9161 147.0544,-48.3819 178.5273,-32.0794"/>
<polygon fill="#000000" stroke="#000000" points="180.5327,-34.9823 187.8024,-27.275 177.3131,-28.7667 180.5327,-34.9823"/>
</g>
<!-- a2 -->
<g id="node4" class="node">
<title>a2</title>
<polygon fill="#ffff00" stroke="#000000" points="350.5,-101.5 336,-87 350.5,-72.5 365,-87 350.5,-101.5"/>
<text text-anchor="start" x="344.861" y="-81" font-family="Times,serif" font-size="20.00" fill="#000000">+</text>
</g>
<!-- o3 -->
<g id="node7" class="node">
<title>o3</title>
<polygon fill="#ffff00" stroke="#000000" points="415.5,-101.5 401,-87 415.5,-72.5 430,-87 415.5,-101.5"/>
<text text-anchor="start" x="409.1646" y="-83.4" font-family="Times,serif" font-size="12.00" fill="#000000">◯</text>
</g>
<!-- a2&#45;&gt;o3 -->
<g id="edge15" class="edge">
<title>a2-&gt;o3</title>
<path fill="none" stroke="#000000" d="M365.2495,-87C372.7291,-87 382.0181,-87 390.5673,-87"/>
<polygon fill="#000000" stroke="#000000" points="390.8089,-90.5001 400.8089,-87 390.8088,-83.5001 390.8089,-90.5001"/>
</g>
<!-- o2 -->
<g id="node6" class="node">
<title>o2</title>
<polygon fill="#ffff00" stroke="#000000" points="285.5,-149.5 271,-135 285.5,-120.5 300,-135 285.5,-149.5"/>
<text text-anchor="start" x="279.1646" y="-131.4" font-family="Times,serif" font-size="12.00" fill="#000000">◯</text>
</g>
<!-- o1&#45;&gt;o2 -->
<g id="edge11" class="edge">
<title>o1-&gt;o2</title>
<path fill="none" stroke="#000000" d="M139.8058,-147.5043C144.5264,-169.0436 157.532,-212.601 188,-231 205.8814,-241.7982 217.1186,-241.7982 235,-231 261.3025,-215.1165 274.591,-180.4836 280.77,-157.4529"/>
<polygon fill="#000000" stroke="#000000" points="284.2272,-158.0486 283.1942,-147.5043 277.4262,-156.3913 284.2272,-158.0486"/>
</g>
<!-- b -->
<g id="node10" class="node">
<title>b</title>
<path fill="none" stroke="#000000" d="M197.6667,-192.5C197.6667,-192.5 225.3333,-192.5 225.3333,-192.5 230.1667,-192.5 235,-197.3333 235,-202.1667 235,-202.1667 235,-211.8333 235,-211.8333 235,-216.6667 230.1667,-221.5 225.3333,-221.5 225.3333,-221.5 197.6667,-221.5 197.6667,-221.5 192.8333,-221.5 188,-216.6667 188,-211.8333 188,-211.8333 188,-202.1667 188,-202.1667 188,-197.3333 192.8333,-192.5 197.6667,-192.5"/>
<text text-anchor="middle" x="211.5" y="-202.9" font-family="Times,serif" font-size="14.00" fill="#000000">b</text>
</g>
<!-- o1&#45;&gt;b -->
<g id="edge5" class="edge">
<title>o1-&gt;b</title>
<path fill="none" stroke="#000000" d="M144.8659,-142.1669C155.0769,-152.1019 173.9777,-170.4918 189.0483,-185.1551"/>
<polygon fill="#000000" stroke="#000000" points="186.9058,-187.9539 196.5139,-192.4189 191.7873,-182.9368 186.9058,-187.9539"/>
</g>
<!-- c -->
<g id="node11" class="node">
<title>c</title>
<path fill="none" stroke="#000000" d="M197.6667,-144.5C197.6667,-144.5 225.3333,-144.5 225.3333,-144.5 230.1667,-144.5 235,-149.3333 235,-154.1667 235,-154.1667 235,-163.8333 235,-163.8333 235,-168.6667 230.1667,-173.5 225.3333,-173.5 225.3333,-173.5 197.6667,-173.5 197.6667,-173.5 192.8333,-173.5 188,-168.6667 188,-163.8333 188,-163.8333 188,-154.1667 188,-154.1667 188,-149.3333 192.8333,-144.5 197.6667,-144.5"/>
<text text-anchor="middle" x="211.5" y="-154.9" font-family="Times,serif" font-size="14.00" fill="#000000">c</text>
</g>
<!-- o1&#45;&gt;c -->
<g id="edge7" class="edge">
<title>o1-&gt;c</title>
<path fill="none" stroke="#000000" d="M148.739,-138.6451C156.6637,-141.2153 167.7184,-144.8006 178.3453,-148.2471"/>
<polygon fill="#000000" stroke="#000000" points="177.2905,-151.5844 187.8825,-151.3403 179.45,-144.9259 177.2905,-151.5844"/>
</g>
<!-- d -->
<g id="node12" class="node">
<title>d</title>
<path fill="none" stroke="#000000" d="M197.6667,-96.5C197.6667,-96.5 225.3333,-96.5 225.3333,-96.5 230.1667,-96.5 235,-101.3333 235,-106.1667 235,-106.1667 235,-115.8333 235,-115.8333 235,-120.6667 230.1667,-125.5 225.3333,-125.5 225.3333,-125.5 197.6667,-125.5 197.6667,-125.5 192.8333,-125.5 188,-120.6667 188,-115.8333 188,-115.8333 188,-106.1667 188,-106.1667 188,-101.3333 192.8333,-96.5 197.6667,-96.5"/>
<text text-anchor="middle" x="211.5" y="-106.9" font-family="Times,serif" font-size="14.00" fill="#000000">d</text>
</g>
<!-- o1&#45;&gt;d -->
<g id="edge3" class="edge">
<title>o1-&gt;d</title>
<path fill="none" stroke="#000000" d="M148.739,-131.3549C156.6637,-128.7847 167.7184,-125.1994 178.3453,-121.7529"/>
<polygon fill="#000000" stroke="#000000" points="179.45,-125.0741 187.8825,-118.6597 177.2905,-118.4156 179.45,-125.0741"/>
</g>
<!-- e -->
<g id="node13" class="node">
<title>e</title>
<path fill="none" stroke="#000000" d="M197.6667,-48.5C197.6667,-48.5 225.3333,-48.5 225.3333,-48.5 230.1667,-48.5 235,-53.3333 235,-58.1667 235,-58.1667 235,-67.8333 235,-67.8333 235,-72.6667 230.1667,-77.5 225.3333,-77.5 225.3333,-77.5 197.6667,-77.5 197.6667,-77.5 192.8333,-77.5 188,-72.6667 188,-67.8333 188,-67.8333 188,-58.1667 188,-58.1667 188,-53.3333 192.8333,-48.5 197.6667,-48.5"/>
<text text-anchor="middle" x="211.5" y="-58.9" font-family="Times,serif" font-size="14.00" fill="#000000">e</text>
</g>
<!-- o1&#45;&gt;e -->
<g id="edge9" class="edge">
<title>o1-&gt;e</title>
<path fill="none" stroke="#000000" d="M144.8659,-127.8331C155.0769,-117.8981 173.9777,-99.5082 189.0483,-84.8449"/>
<polygon fill="#000000" stroke="#000000" points="191.7873,-87.0632 196.5139,-77.5811 186.9058,-82.0461 191.7873,-87.0632"/>
</g>
<!-- o2&#45;&gt;a2 -->
<g id="edge14" class="edge">
<title>o2-&gt;a2</title>
<path fill="none" stroke="#000000" d="M293.9976,-128.7248C303.9664,-121.3633 320.7424,-108.9748 333.4314,-99.6045"/>
<polygon fill="#000000" stroke="#000000" points="335.8276,-102.1859 341.7928,-93.4299 331.6693,-96.5549 335.8276,-102.1859"/>
</g>
<!-- o4 -->
<g id="node8" class="node">
<title>o4</title>
<polygon fill="#ffff00" stroke="#000000" points="563.5,-101.5 549,-87 563.5,-72.5 578,-87 563.5,-101.5"/>
<text text-anchor="start" x="557.1646" y="-83.4" font-family="Times,serif" font-size="12.00" fill="#000000">◯</text>
</g>
<!-- o3&#45;&gt;o4 -->
<g id="edge20" class="edge">
<title>o3-&gt;o4</title>
<path fill="none" stroke="#000000" d="M424.3616,-92.7139C434.1129,-98.633 450.4704,-107.4975 466,-111 486.3771,-115.5958 492.6229,-115.5958 513,-111 524.5259,-108.4005 536.5078,-102.8474 545.9065,-97.7369"/>
<polygon fill="#000000" stroke="#000000" points="547.7155,-100.7341 554.6384,-92.7139 544.225,-94.6664 547.7155,-100.7341"/>
</g>
<!-- g -->
<g id="node14" class="node">
<title>g</title>
<path fill="none" stroke="#000000" d="M475.6667,-72.5C475.6667,-72.5 503.3333,-72.5 503.3333,-72.5 508.1667,-72.5 513,-77.3333 513,-82.1667 513,-82.1667 513,-91.8333 513,-91.8333 513,-96.6667 508.1667,-101.5 503.3333,-101.5 503.3333,-101.5 475.6667,-101.5 475.6667,-101.5 470.8333,-101.5 466,-96.6667 466,-91.8333 466,-91.8333 466,-82.1667 466,-82.1667 466,-77.3333 470.8333,-72.5 475.6667,-72.5"/>
<text text-anchor="middle" x="489.5" y="-82.9" font-family="Times,serif" font-size="14.00" fill="#000000">g</text>
</g>
<!-- o3&#45;&gt;g -->
<g id="edge16" class="edge">
<title>o3-&gt;g</title>
<path fill="none" stroke="#000000" d="M430.12,-87C437.4464,-87 446.648,-87 455.6052,-87"/>
<polygon fill="#000000" stroke="#000000" points="455.8809,-90.5001 465.8809,-87 455.8809,-83.5001 455.8809,-90.5001"/>
</g>
<!-- h -->
<g id="node15" class="node">
<title>h</title>
<path fill="none" stroke="#000000" d="M475.6667,-24.5C475.6667,-24.5 503.3333,-24.5 503.3333,-24.5 508.1667,-24.5 513,-29.3333 513,-34.1667 513,-34.1667 513,-43.8333 513,-43.8333 513,-48.6667 508.1667,-53.5 503.3333,-53.5 503.3333,-53.5 475.6667,-53.5 475.6667,-53.5 470.8333,-53.5 466,-48.6667 466,-43.8333 466,-43.8333 466,-34.1667 466,-34.1667 466,-29.3333 470.8333,-24.5 475.6667,-24.5"/>
<text text-anchor="middle" x="489.5" y="-34.9" font-family="Times,serif" font-size="14.00" fill="#000000">h</text>
</g>
<!-- o3&#45;&gt;h -->
<g id="edge18" class="edge">
<title>o3-&gt;h</title>
<path fill="none" stroke="#000000" d="M424.5739,-81.1143C433.0211,-75.635 446.1113,-67.1441 458.331,-59.2177"/>
<polygon fill="#000000" stroke="#000000" points="460.5112,-61.9754 466.9962,-53.5971 456.7018,-56.1027 460.5112,-61.9754"/>
</g>
<!-- o4&#45;&gt;out -->
<g id="edge21" class="edge">
<title>o4-&gt;out</title>
<path fill="none" stroke="#000000" d="M578.0746,-87C585.6815,-87 595.1346,-87 603.5586,-87"/>
<polygon fill="#000000" stroke="#000000" points="603.7982,-90.5001 613.7982,-87 603.7981,-83.5001 603.7982,-90.5001"/>
</g>
<!-- a&#45;&gt;a2 -->
<g id="edge13" class="edge">
<title>a-&gt;a2</title>
<path fill="none" stroke="#000000" d="M235.0795,-27.2138C262.31,-41.3188 306.5638,-64.2417 331.6242,-77.2226"/>
<polygon fill="#000000" stroke="#000000" points="330.3055,-80.4812 340.7948,-81.9729 333.5252,-74.2655 330.3055,-80.4812"/>
</g>
<!-- b&#45;&gt;o2 -->
<g id="edge6" class="edge">
<title>b-&gt;o2</title>
<path fill="none" stroke="#000000" d="M226.475,-192.4297C239.2239,-180.0254 257.4581,-162.2841 270.2774,-149.8112"/>
<polygon fill="#000000" stroke="#000000" points="273.0809,-151.9668 277.8075,-142.4846 268.1994,-146.9497 273.0809,-151.9668"/>
</g>
<!-- c&#45;&gt;o2 -->
<g id="edge8" class="edge">
<title>c-&gt;o2</title>
<path fill="none" stroke="#000000" d="M235.3214,-151.2741C244.7962,-148.2012 255.5972,-144.6982 264.7452,-141.7313"/>
<polygon fill="#000000" stroke="#000000" points="266.1138,-144.967 274.5462,-138.5526 263.9542,-138.3084 266.1138,-144.967"/>
</g>
<!-- d&#45;&gt;o2 -->
<g id="edge4" class="edge">
<title>d-&gt;o2</title>
<path fill="none" stroke="#000000" d="M235.3214,-118.7259C244.7962,-121.7988 255.5972,-125.3018 264.7452,-128.2687"/>
<polygon fill="#000000" stroke="#000000" points="263.9542,-131.6916 274.5462,-131.4474 266.1138,-125.033 263.9542,-131.6916"/>
</g>
<!-- e&#45;&gt;o2 -->
<g id="edge10" class="edge">
<title>e-&gt;o2</title>
<path fill="none" stroke="#000000" d="M226.475,-77.5703C239.2239,-89.9746 257.4581,-107.7159 270.2774,-120.1888"/>
<polygon fill="#000000" stroke="#000000" points="268.1994,-123.0503 277.8075,-127.5154 273.0809,-118.0332 268.1994,-123.0503"/>
</g>
<!-- g&#45;&gt;o4 -->
<g id="edge17" class="edge">
<title>g-&gt;o4</title>
<path fill="none" stroke="#000000" d="M513.3214,-87C521.4296,-87 530.5091,-87 538.6927,-87"/>
<polygon fill="#000000" stroke="#000000" points="538.7777,-90.5001 548.7777,-87 538.7776,-83.5001 538.7777,-90.5001"/>
</g>
<!-- h&#45;&gt;o4 -->
<g id="edge19" class="edge">
<title>h-&gt;o4</title>
<path fill="none" stroke="#000000" d="M512.1045,-53.6624C523.0387,-60.7548 535.9599,-69.1362 546.1112,-75.7208"/>
<polygon fill="#000000" stroke="#000000" points="544.2243,-78.6686 554.5186,-81.1742 548.0336,-72.7959 544.2243,-78.6686"/>
</g>
</g>
</svg>