<?xml version="1.0" encoding="UTF-8" standalone="no"?>
<!DOCTYPE svg PUBLIC "-//W3C//DTD SVG 1.1//EN" "http://www.w3.org/Graphics/SVG/1.1/DTD/svg11.dtd">
<!-- Generated by graphviz version 2.40.1 (20161225.0304)
 -->
<!-- Title: G Pages: 1 -->
<svg width="608pt" height="247pt" viewBox="0.00 0.00 608.00 247.00" xmlns="http://www.w3.org/2000/svg" xmlns:xlink="http://www.w3.org/1999/xlink">
<g id="graph0" class="graph" transform="scale(1 1) rotate(0) translate(4 243)">
<title>G</title>
<polygon fill="#ffffff" stroke="transparent" points="-4,4 -4,-243 604,-243 604,4 -4,4"/>
<!-- in -->
<g id="node1" class="node">
<title>in</title>
<ellipse fill="none" stroke="#000000" cx="11" cy="-38.5" rx="11" ry="11"/>
<text text-anchor="middle" x="11" y="-32.5" font-family="Times,serif" font-size="20.00" fill="#000000">•</text>
</g>
<!-- a1 -->
<g id="node3" class="node">
<title>a1</title>
<polygon fill="#ffff00" stroke="#000000" points="72.5,-53 58,-38.5 72.5,-24 87,-38.5 72.5,-53"/>
<text text-anchor="start" x="66.861" y="-32.5" font-family="Times,serif" font-size="20.00" fill="#000000">+</text>
</g>
<!-- in&#45;&gt;a1 -->
<g id="edge1" class="edge">
<title>in-&gt;a1</title>
<path fill="none" stroke="#000000" d="M22.28,-38.5C29.3801,-38.5 38.8328,-38.5 47.621,-38.5"/>
<polygon fill="#000000" stroke="#000000" points="47.8083,-42.0001 57.8083,-38.5 47.8083,-35.0001 47.8083,-42.0001"/>
</g>
<!-- out -->
<g id="node2" class="node">
<title>out</title>
<ellipse fill="#000000" stroke="#000000" cx="589" cy="-61.5" rx="11" ry="11"/>
</g>
<!-- o1 -->
<g id="node5" class="node">
<title>o1</title>
<polygon fill="#ffff00" stroke="#000000" points="137.5,-121 123,-106.5 137.5,-92 152,-106.5 137.5,-121"/>
<text text-anchor="start" x="131.1646" y="-102.9" font-family="Times,serif" font-size="12.00" fill="#000000">◯</text>
</g>
<!-- a1&#45;&gt;o1 -->
<g id="edge2" class="edge">
<title>a1-&gt;o1</title>
<path fill="none" stroke="#000000" d="M79.7045,-46.037C90.0937,-56.9057 109.5082,-77.2163 122.9516,-91.2801"/>
<polygon fill="#000000" stroke="#000000" points="120.6236,-93.9099 130.0635,-98.7202 125.6837,-89.073 120.6236,-93.9099"/>
</g>
<!-- a -->
<g id="node9" class="node">
<title>a</title>
<polygon fill="none" stroke="#000000" points="282,-53 253,-53 253,-24 282,-24 282,-53"/>
<text text-anchor="middle" x="267.5" y="-34.3" font-family="Times,serif" font-size="14.00" fill="#000000">a</text>
</g>
<!-- a1&#45;&gt;a -->
<g id="edge13" class="edge">
<title>a1-&gt;a</title>
<path fill="none" stroke="#000000" d="M82.7484,-33.7446C106.5245,-23.3439 167.2067,-.4345 217,-12.5 226.3307,-14.7609 235.8684,-19.0627 244.1061,-23.526"/>
<polygon fill="#000000" stroke="#000000" points="242.3642,-26.5617 252.774,-28.5336 245.866,-20.5005 242.3642,-26.5617"/>
</g>
<!-- a2 -->
<g id="node4" class="node">
<title>a2</title>
<polygon fill="#ffff00" stroke="#000000" points="332.5,-76 318,-61.5 332.5,-47 347,-61.5 332.5,-76"/>
<text text-anchor="start" x="326.861" y="-55.5" font-family="Times,serif" font-size="20.00" fill="#000000">+</text>
</g>
<!-- o3 -->
<g id="node7" class="node">
<title>o3</title>
<polygon fill="#ffff00" stroke="#000000" points="397.5,-76 383,-61.5 397.5,-47 412,-61.5 397.5,-76"/>
<text text-anchor="start" x="391.1646" y="-57.9" font-family="Times,serif" font-size="12.00" fill="#000000">◯</text>
</g>
<!-- a2&#45;&gt;o3 -->
<g id="edge16" class="edge">
<title>a2-&gt;o3</title>
<path fill="none" stroke="#000000" d="M347.2495,-61.5C354.7291,-61.5 364.0181,-61.5 372.5673,-61.5"/>
<polygon fill="#000000" stroke="#000000" points="372.8089,-65.0001 382.8089,-61.5 372.8088,-58.0001 372.8089,-65.0001"/>
</g>
<!-- b -->
<g id="node10" class="node">
<title>b</title>
<polygon fill="none" stroke="#000000" points="217,-239 188,-239 188,-210 217,-210 217,-239"/>
<text text-anchor="middle" x="202.5" y="-220.3" font-family="Times,serif" font-size="14.00" fill="#000000">b</text>
</g>
<!-- o1&#45;&gt;b -->
<g id="edge5" class="edge">
<title>o1-&gt;b</title>
<path fill="none" stroke="#000000" d="M142.4273,-116.3401C150.5527,-132.4434 167.5132,-165.5449 188.11,-201.3441"/>
<polygon fill="#000000" stroke="#000000" points="185.0854,-203.1054 193.1311,-209.9987 191.1402,-199.5926 185.0854,-203.1054"/>
</g>
<!-- c -->
<g id="node11" class="node">
<title>c</title>
<polygon fill="none" stroke="#000000" points="217,-192 188,-192 188,-163 217,-163 217,-192"/>
<text text-anchor="middle" x="202.5" y="-173.3" font-family="Times,serif" font-size="14.00" fill="#000000">c</text>
</g>
<!-- o1&#45;&gt;c -->
<g id="edge7" class="edge">
<title>o1-&gt;c</title>
<path fill="none" stroke="#000000" d="M144.4561,-114.0982C153.4093,-123.8778 169.3492,-141.2891 182.2625,-155.3944"/>
<polygon fill="#000000" stroke="#000000" points="179.7274,-157.8086 189.0615,-162.8211 184.8905,-153.0818 179.7274,-157.8086"/>
</g>
<!-- d -->
<g id="node12" class="node">
<title>d</title>
<polygon fill="none" stroke="#000000" points="217,-145 188,-145 188,-116 217,-116 217,-145"/>
<text text-anchor="middle" x="202.5" y="-126.3" font-family="Times,serif" font-size="14.00" fill="#000000">d</text>
</g>
<!-- o1&#45;&gt;d -->
<g id="edge3" class="edge">
<title>o1-&gt;d</title>
<path fill="none" stroke="#000000" d="M148.2334,-110.4631C156.431,-113.4899 168.0481,-117.7793 178.4315,-121.6132"/>
<polygon fill="#000000" stroke="#000000" points="177.2637,-124.9129 187.857,-125.0934 179.6884,-118.3462 177.2637,-124.9129"/>
</g>
<!-- e -->
<g id="node13" class="node">
<title>e</title>
<polygon fill="none" stroke="#000000" points="217,-98 188,-98 188,-69 217,-69 217,-98"/>
<text text-anchor="middle" x="202.5" y="-79.3" font-family="Times,serif" font-size="14.00" fill="#000000">e</text>
</g>
<!-- o1&#45;&gt;e -->
<g id="edge9" class="edge">
<title>o1-&gt;e</title>
<path fill="none" stroke="#000000" d="M148.2334,-102.702C156.3465,-99.8312 167.8089,-95.7753 178.11,-92.1303"/>
<polygon fill="#000000" stroke="#000000" points="179.5973,-95.3167 187.857,-88.6814 177.2623,-88.7177 179.5973,-95.3167"/>
</g>
<!-- s1 -->
<g id="node16" class="node">
<title>s1</title>
<polygon fill="#000000" stroke="#000000" points="217,-51 188,-51 188,-22 217,-22 217,-51"/>
</g>
<!-- o1&#45;&gt;s1 -->
<g id="edge11" class="edge">
<title>o1-&gt;s1</title>
<path fill="none" stroke="#000000" d="M144.7045,-98.7413C153.6016,-89.1598 169.1179,-72.45 181.8344,-58.7552"/>
<polygon fill="#000000" stroke="#000000" points="184.6873,-60.8266 188.927,-51.117 179.5577,-56.0634 184.6873,-60.8266"/>
</g>
<!-- o2 -->
<g id="node6" class="node">
<title>o2</title>
<polygon fill="#ffff00" stroke="#000000" points="267.5,-121 253,-106.5 267.5,-92 282,-106.5 267.5,-121"/>
<text text-anchor="start" x="261.1646" y="-102.9" font-family="Times,serif" font-size="12.00" fill="#000000">◯</text>
</g>
<!-- o2&#45;&gt;a2 -->
<g id="edge15" class="edge">
<title>o2-&gt;a2</title>
<path fill="none" stroke="#000000" d="M276.2662,-100.4311C286.3047,-93.4814 302.9855,-81.9331 315.5787,-73.2147"/>
<polygon fill="#000000" stroke="#000000" points="317.643,-76.0426 323.8727,-67.4727 313.6585,-70.2872 317.643,-76.0426"/>
</g>
<!-- g -->
<g id="node14" class="node">
<title>g</title>
<polygon fill="none" stroke="#000000" points="477,-123 448,-123 448,-94 477,-94 477,-123"/>
<text text-anchor="middle" x="462.5" y="-104.3" font-family="Times,serif" font-size="14.00" fill="#000000">g</text>
</g>
<!-- o3&#45;&gt;g -->
<g id="edge17" class="edge">
<title>o3-&gt;g</title>
<path fill="none" stroke="#000000" d="M405.9976,-67.6444C414.4436,-73.7516 427.7761,-83.392 439.3694,-91.7748"/>
<polygon fill="#000000" stroke="#000000" points="437.6317,-94.8374 447.786,-97.8607 441.7333,-89.1649 437.6317,-94.8374"/>
</g>
<!-- h -->
<g id="node15" class="node">
<title>h</title>
<polygon fill="none" stroke="#000000" points="477,-76 448,-76 448,-47 477,-47 477,-76"/>
<text text-anchor="middle" x="462.5" y="-57.3" font-family="Times,serif" font-size="14.00" fill="#000000">h</text>
</g>
<!-- o3&#45;&gt;h -->
<g id="edge19" class="edge">
<title>o3-&gt;h</title>
<path fill="none" stroke="#000000" d="M412.2495,-61.5C419.7291,-61.5 429.0181,-61.5 437.5673,-61.5"/>
<polygon fill="#000000" stroke="#000000" points="437.8089,-65.0001 447.8089,-61.5 437.8088,-58.0001 437.8089,-65.0001"/>
</g>
<!-- s2 -->
<g id="node17" class="node">
<title>s2</title>
<polygon fill="#000000" stroke="#000000" points="477,-29 448,-29 448,0 477,0 477,-29"/>
</g>
<!-- o3&#45;&gt;s2 -->
<g id="edge21" class="edge">
<title>o3-&gt;s2</title>
<path fill="none" stroke="#000000" d="M405.9976,-55.3556C414.4436,-49.2484 427.7761,-39.608 439.3694,-31.2252"/>
<polygon fill="#000000" stroke="#000000" points="441.7333,-33.8351 447.786,-25.1393 437.6317,-28.1626 441.7333,-33.8351"/>
</g>
<!-- o4 -->
<g id="node8" class="node">
<title>o4</title>
<polygon fill="#ffff00" stroke="#000000" points="527.5,-76 513,-61.5 527.5,-47 542,-61.5 527.5,-76"/>
<text text-anchor="start" x="521.1646" y="-57.9" font-family="Times,serif" font-size="12.00" fill="#000000">◯</text>
</g>
<!-- o4&#45;&gt;out -->
<g id="edge23" class="edge">
<title>o4-&gt;out</title>
<path fill="none" stroke="#000000" d="M542.0746,-61.5C549.6815,-61.5 559.1346,-61.5 567.5586,-61.5"/>
<polygon fill="#000000" stroke="#000000" points="567.7982,-65.0001 577.7982,-61.5 567.7981,-58.0001 567.7982,-65.0001"/>
</g>
<!-- a&#45;&gt;a2 -->
<g id="edge14" class="edge">
<title>a-&gt;a2</title>
<path fill="none" stroke="#000000" d="M282.2495,-43.7191C291.0518,-46.8337 302.3599,-50.8351 312.0193,-54.253"/>
<polygon fill="#000000" stroke="#000000" points="311.0623,-57.6269 321.6571,-57.6633 313.3974,-51.0279 311.0623,-57.6269"/>
</g>
<!-- b&#45;&gt;o2 -->
<g id="edge6" class="edge">
<title>b-&gt;o2</title>
<path fill="none" stroke="#000000" d="M211.8689,-209.9987C213.6118,-207.201 215.3897,-204.2767 217,-201.5 232.0817,-175.4946 248.1603,-144.6389 258.0211,-125.3103"/>
<polygon fill="#000000" stroke="#000000" points="261.1689,-126.8415 262.5727,-116.3401 254.9265,-123.674 261.1689,-126.8415"/>
</g>
<!-- c&#45;&gt;o2 -->
<g id="edge8" class="edge">
<title>c-&gt;o2</title>
<path fill="none" stroke="#000000" d="M215.968,-162.7888C226.9656,-150.776 242.4523,-133.8597 253.5725,-121.7131"/>
<polygon fill="#000000" stroke="#000000" points="256.2937,-123.924 260.4647,-114.1847 251.1306,-119.1972 256.2937,-123.924"/>
</g>
<!-- d&#45;&gt;o2 -->
<g id="edge4" class="edge">
<title>d-&gt;o2</title>
<path fill="none" stroke="#000000" d="M217.2495,-125.054C226.0518,-121.804 237.3599,-117.6286 247.0193,-114.0621"/>
<polygon fill="#000000" stroke="#000000" points="248.4884,-117.2507 256.6571,-110.5035 246.0638,-110.684 248.4884,-117.2507"/>
</g>
<!-- e&#45;&gt;o2 -->
<g id="edge10" class="edge">
<title>e-&gt;o2</title>
<path fill="none" stroke="#000000" d="M217.2495,-88.7191C226.0518,-91.8337 237.3599,-95.8351 247.0193,-99.253"/>
<polygon fill="#000000" stroke="#000000" points="246.0623,-102.6269 256.6571,-102.6633 248.3974,-96.0279 246.0623,-102.6269"/>
</g>
<!-- g&#45;&gt;o4 -->
<g id="edge18" class="edge">
<title>g-&gt;o4</title>
<path fill="none" stroke="#000000" d="M477.2495,-97.835C487.2153,-90.629 500.3932,-81.1003 510.7537,-73.6089"/>
<polygon fill="#000000" stroke="#000000" points="512.9288,-76.3552 518.9815,-67.6595 508.8272,-70.6828 512.9288,-76.3552"/>
</g>
<!-- h&#45;&gt;o4 -->
<g id="edge20" class="edge">
<title>h-&gt;o4</title>
<path fill="none" stroke="#000000" d="M477.2495,-61.5C484.7291,-61.5 494.0181,-61.5 502.5673,-61.5"/>
<polygon fill="#000000" stroke="#000000" points="502.8089,-65.0001 512.8089,-61.5 502.8088,-58.0001 502.8089,-65.0001"/>
</g>
<!-- s1&#45;&gt;o2 -->
<g id="edge12" class="edge">
<title>s1-&gt;o2</title>
<path fill="none" stroke="#000000" d="M215.968,-51.004C226.9656,-62.8476 242.4523,-79.5256 253.5725,-91.5012"/>
<polygon fill="#000000" stroke="#000000" points="251.0954,-93.9771 260.4647,-98.9235 256.2249,-89.214 251.0954,-93.9771"/>
</g>
<!-- s2&#45;&gt;o4 -->
<g id="edge22" class="edge">
<title>s2-&gt;o4</title>
<path fill="none" stroke="#000000" d="M477.2495,-25.165C487.2153,-32.371 500.3932,-41.8997 510.7537,-49.3911"/>
<polygon fill="#000000" stroke="#000000" points="508.8272,-52.3172 518.9815,-55.3405 512.9288,-46.6448 508.8272,-52.3172"/>
</g>
</g>
</svg>