<?xml version="1.0" encoding="UTF-8" standalone="no"?>
<!DOCTYPE svg PUBLIC "-//W3C//DTD SVG 1.1//EN" "http://www.w3.org/Graphics/SVG/1.1/DTD/svg11.dtd">
<!-- Generated by graphviz version 2.40.1 (20161225.0304)
 -->
<!-- Title: G Pages: 1 -->
<svg width="1128pt" height="225pt" viewBox="0.00 0.00 1128.00 225.00" xmlns="http://www.w3.org/2000/svg" xmlns:xlink="http://www.w3.org/1999/xlink">
<g id="graph0" class="graph" transform="scale(1 1) rotate(0) translate(4 221)">
<title>G</title>
<polygon fill="#ffffff" stroke="transparent" points="-4,4 -4,-221 1124,-221 1124,4 -4,4"/>
<!-- in -->
<g id="node1" class="node">
<title>in</title>
<ellipse fill="none" stroke="#000000" cx="11" cy="-61.5" rx="11" ry="11"/>
<text text-anchor="middle" x="11" y="-55.5" font-family="Times,serif" font-size="20.00" fill="#000000">•</text>
</g>
<!-- a -->
<g id="node13" class="node">
<title>a</title>
<polygon fill="none" stroke="#000000" points="87,-76 58,-76 58,-47 87,-47 87,-76"/>
<text text-anchor="middle" x="72.5" y="-57.3" font-family="Times,serif" font-size="14.00" fill="#000000">a</text>
</g>
<!-- in&#45;&gt;a -->
<g id="edge1" class="edge">
<title>in-&gt;a</title>
<path fill="none" stroke="#000000" d="M22.28,-61.5C29.3801,-61.5 38.8328,-61.5 47.621,-61.5"/>
<polygon fill="#000000" stroke="#000000" points="47.8083,-65.0001 57.8083,-61.5 47.8083,-58.0001 47.8083,-65.0001"/>
</g>
<!-- out -->
<g id="node2" class="node">
<title>out</title>
<ellipse fill="#000000" stroke="#000000" cx="1109" cy="-61.5" rx="11" ry="11"/>
</g>
<!-- x1 -->
<g id="node3" class="node">
<title>x1</title>
<polygon fill="#ffff00" stroke="#000000" points="137.5,-76 123,-61.5 137.5,-47 152,-61.5 137.5,-76"/>
<text text-anchor="start" x="133" y="-57.9" font-family="Times,serif" font-size="12.00" fill="#000000">✕</text>
</g>
<!-- b -->
<g id="node14" class="node">
<title>b</title>
<polygon fill="none" stroke="#000000" points="217,-100 188,-100 188,-71 217,-71 217,-100"/>
<text text-anchor="middle" x="202.5" y="-81.3" font-family="Times,serif" font-size="14.00" fill="#000000">b</text>
</g>
<!-- x1&#45;&gt;b -->
<g id="edge3" class="edge">
<title>x1-&gt;b</title>
<path fill="none" stroke="#000000" d="M148.2334,-65.4631C156.431,-68.4899 168.0481,-72.7793 178.4315,-76.6132"/>
<polygon fill="#000000" stroke="#000000" points="177.2637,-79.9129 187.857,-80.0934 179.6884,-73.3462 177.2637,-79.9129"/>
</g>
<!-- j -->
<g id="node22" class="node">
<title>j</title>
<polygon fill="none" stroke="#000000" points="217,-53 188,-53 188,-24 217,-24 217,-53"/>
<text text-anchor="middle" x="202.5" y="-34.3" font-family="Times,serif" font-size="14.00" fill="#000000">j</text>
</g>
<!-- x1&#45;&gt;j -->
<g id="edge5" class="edge">
<title>x1-&gt;j</title>
<path fill="none" stroke="#000000" d="M148.2334,-57.702C156.3465,-54.8312 167.8089,-50.7753 178.11,-47.1303"/>
<polygon fill="#000000" stroke="#000000" points="179.5973,-50.3167 187.857,-43.6814 177.2623,-43.7177 179.5973,-50.3167"/>
</g>
<!-- x2 -->
<g id="node4" class="node">
<title>x2</title>
<polygon fill="#ffff00" stroke="#000000" points="267.5,-76 253,-61.5 267.5,-47 282,-61.5 267.5,-76"/>
<text text-anchor="start" x="263" y="-57.9" font-family="Times,serif" font-size="12.00" fill="#000000">✕</text>
</g>
<!-- o1 -->
<g id="node7" class="node">
<title>o1</title>
<polygon fill="#ffff00" stroke="#000000" points="332.5,-76 318,-61.5 332.5,-47 347,-61.5 332.5,-76"/>
<text text-anchor="start" x="326.1646" y="-57.9" font-family="Times,serif" font-size="12.00" fill="#000000">◯</text>
</g>
<!-- x2&#45;&gt;o1 -->
<g id="edge7" class="edge">
<title>x2-&gt;o1</title>
<path fill="none" stroke="#000000" d="M282.2495,-61.5C289.7291,-61.5 299.0181,-61.5 307.5673,-61.5"/>
<polygon fill="#000000" stroke="#000000" points="307.8089,-65.0001 317.8089,-61.5 307.8088,-58.0001 307.8089,-65.0001"/>
</g>
<!-- a1 -->
<g id="node5" class="node">
<title>a1</title>
<polygon fill="#ffff00" stroke="#000000" points="787.5,-146 773,-131.5 787.5,-117 802,-131.5 787.5,-146"/>
<text text-anchor="start" x="781.861" y="-125.5" font-family="Times,serif" font-size="20.00" fill="#000000">+</text>
</g>
<!-- f -->
<g id="node18" class="node">
<title>f</title>
<polygon fill="none" stroke="#000000" points="867,-217 838,-217 838,-188 867,-188 867,-217"/>
<text text-anchor="middle" x="852.5" y="-198.3" font-family="Times,serif" font-size="14.00" fill="#000000">f</text>
</g>
<!-- a1&#45;&gt;f -->
<g id="edge24" class="edge">
<title>a1-&gt;f</title>
<path fill="none" stroke="#000000" d="M794.4561,-139.0982C803.4093,-148.8778 819.3492,-166.2891 832.2625,-180.3944"/>
<polygon fill="#000000" stroke="#000000" points="829.7274,-182.8086 839.0615,-187.8211 834.8905,-178.0818 829.7274,-182.8086"/>
</g>
<!-- g -->
<g id="node19" class="node">
<title>g</title>
<polygon fill="none" stroke="#000000" points="867,-170 838,-170 838,-141 867,-141 867,-170"/>
<text text-anchor="middle" x="852.5" y="-151.3" font-family="Times,serif" font-size="14.00" fill="#000000">g</text>
</g>
<!-- a1&#45;&gt;g -->
<g id="edge26" class="edge">
<title>a1-&gt;g</title>
<path fill="none" stroke="#000000" d="M798.2334,-135.4631C806.431,-138.4899 818.0481,-142.7793 828.4315,-146.6132"/>
<polygon fill="#000000" stroke="#000000" points="827.2637,-149.9129 837.857,-150.0934 829.6884,-143.3462 827.2637,-149.9129"/>
</g>
<!-- h -->
<g id="node20" class="node">
<title>h</title>
<polygon fill="none" stroke="#000000" points="867,-123 838,-123 838,-94 867,-94 867,-123"/>
<text text-anchor="middle" x="852.5" y="-104.3" font-family="Times,serif" font-size="14.00" fill="#000000">h</text>
</g>
<!-- a1&#45;&gt;h -->
<g id="edge28" class="edge">
<title>a1-&gt;h</title>
<path fill="none" stroke="#000000" d="M798.2334,-127.702C806.3465,-124.8312 817.8089,-120.7753 828.11,-117.1303"/>
<polygon fill="#000000" stroke="#000000" points="829.5973,-120.3167 837.857,-113.6814 827.2623,-113.7177 829.5973,-120.3167"/>
</g>
<!-- a2 -->
<g id="node6" class="node">
<title>a2</title>
<polygon fill="#ffff00" stroke="#000000" points="917.5,-146 903,-131.5 917.5,-117 932,-131.5 917.5,-146"/>
<text text-anchor="start" x="911.861" y="-125.5" font-family="Times,serif" font-size="20.00" fill="#000000">+</text>
</g>
<!-- o6 -->
<g id="node12" class="node">
<title>o6</title>
<polygon fill="#ffff00" stroke="#000000" points="982.5,-76 968,-61.5 982.5,-47 997,-61.5 982.5,-76"/>
<text text-anchor="start" x="976.1646" y="-57.9" font-family="Times,serif" font-size="12.00" fill="#000000">◯</text>
</g>
<!-- a2&#45;&gt;o6 -->
<g id="edge21" class="edge">
<title>a2-&gt;o6</title>
<path fill="none" stroke="#000000" d="M924.7045,-123.7413C935.2042,-112.4339 954.9223,-91.1991 968.3786,-76.7077"/>
<polygon fill="#000000" stroke="#000000" points="971.2211,-78.7902 975.4608,-69.0807 966.0915,-74.027 971.2211,-78.7902"/>
</g>
<!-- k -->
<g id="node23" class="node">
<title>k</title>
<polygon fill="none" stroke="#000000" points="412,-100 383,-100 383,-71 412,-71 412,-100"/>
<text text-anchor="middle" x="397.5" y="-81.3" font-family="Times,serif" font-size="14.00" fill="#000000">k</text>
</g>
<!-- o1&#45;&gt;k -->
<g id="edge8" class="edge">
<title>o1-&gt;k</title>
<path fill="none" stroke="#000000" d="M343.2334,-65.4631C351.431,-68.4899 363.0481,-72.7793 373.4315,-76.6132"/>
<polygon fill="#000000" stroke="#000000" points="372.2637,-79.9129 382.857,-80.0934 374.6884,-73.3462 372.2637,-79.9129"/>
</g>
<!-- s1 -->
<g id="node24" class="node">
<title>s1</title>
<polygon fill="#000000" stroke="#000000" points="412,-53 383,-53 383,-24 412,-24 412,-53"/>
</g>
<!-- o1&#45;&gt;s1 -->
<g id="edge10" class="edge">
<title>o1-&gt;s1</title>
<path fill="none" stroke="#000000" d="M343.2334,-57.702C351.3465,-54.8312 362.8089,-50.7753 373.11,-47.1303"/>
<polygon fill="#000000" stroke="#000000" points="374.5973,-50.3167 382.857,-43.6814 372.2623,-43.7177 374.5973,-50.3167"/>
</g>
<!-- o2 -->
<g id="node8" class="node">
<title>o2</title>
<polygon fill="#ffff00" stroke="#000000" points="462.5,-76 448,-61.5 462.5,-47 477,-61.5 462.5,-76"/>
<text text-anchor="start" x="456.1646" y="-57.9" font-family="Times,serif" font-size="12.00" fill="#000000">◯</text>
</g>
<!-- o3 -->
<g id="node9" class="node">
<title>o3</title>
<polygon fill="#ffff00" stroke="#000000" points="527.5,-76 513,-61.5 527.5,-47 542,-61.5 527.5,-76"/>
<text text-anchor="start" x="521.1646" y="-57.9" font-family="Times,serif" font-size="12.00" fill="#000000">◯</text>
</g>
<!-- o2&#45;&gt;o3 -->
<g id="edge12" class="edge">
<title>o2-&gt;o3</title>
<path fill="none" stroke="#000000" d="M477.2495,-61.5C484.7291,-61.5 494.0181,-61.5 502.5673,-61.5"/>
<polygon fill="#000000" stroke="#000000" points="502.8089,-65.0001 512.8089,-61.5 502.8088,-58.0001 502.8089,-65.0001"/>
</g>
<!-- c -->
<g id="node15" class="node">
<title>c</title>
<polygon fill="none" stroke="#000000" points="607,-100 578,-100 578,-71 607,-71 607,-100"/>
<text text-anchor="middle" x="592.5" y="-81.3" font-family="Times,serif" font-size="14.00" fill="#000000">c</text>
</g>
<!-- o3&#45;&gt;c -->
<g id="edge13" class="edge">
<title>o3-&gt;c</title>
<path fill="none" stroke="#000000" d="M538.2334,-65.4631C546.431,-68.4899 558.0481,-72.7793 568.4315,-76.6132"/>
<polygon fill="#000000" stroke="#000000" points="567.2637,-79.9129 577.857,-80.0934 569.6884,-73.3462 567.2637,-79.9129"/>
</g>
<!-- s2 -->
<g id="node25" class="node">
<title>s2</title>
<polygon fill="#000000" stroke="#000000" points="607,-53 578,-53 578,-24 607,-24 607,-53"/>
</g>
<!-- o3&#45;&gt;s2 -->
<g id="edge15" class="edge">
<title>o3-&gt;s2</title>
<path fill="none" stroke="#000000" d="M538.2334,-57.702C546.3465,-54.8312 557.8089,-50.7753 568.11,-47.1303"/>
<polygon fill="#000000" stroke="#000000" points="569.5973,-50.3167 577.857,-43.6814 567.2623,-43.7177 569.5973,-50.3167"/>
</g>
<!-- o4 -->
<g id="node10" class="node">
<title>o4</title>
<polygon fill="#ffff00" stroke="#000000" points="657.5,-76 643,-61.5 657.5,-47 672,-61.5 657.5,-76"/>
<text text-anchor="start" x="651.1646" y="-57.9" font-family="Times,serif" font-size="12.00" fill="#000000">◯</text>
</g>
<!-- o5 -->
<g id="node11" class="node">
<title>o5</title>
<polygon fill="#ffff00" stroke="#000000" points="722.5,-76 708,-61.5 722.5,-47 737,-61.5 722.5,-76"/>
<text text-anchor="start" x="716.1646" y="-57.9" font-family="Times,serif" font-size="12.00" fill="#000000">◯</text>
</g>
<!-- o4&#45;&gt;o5 -->
<g id="edge17" class="edge">
<title>o4-&gt;o5</title>
<path fill="none" stroke="#000000" d="M672.2495,-61.5C679.7291,-61.5 689.0181,-61.5 697.5673,-61.5"/>
<polygon fill="#000000" stroke="#000000" points="697.8089,-65.0001 707.8089,-61.5 697.8088,-58.0001 697.8089,-65.0001"/>
</g>
<!-- o5&#45;&gt;a1 -->
<g id="edge20" class="edge">
<title>o5-&gt;a1</title>
<path fill="none" stroke="#000000" d="M729.7045,-69.2587C740.2042,-80.5661 759.9223,-101.8009 773.3786,-116.2923"/>
<polygon fill="#000000" stroke="#000000" points="771.0915,-118.973 780.4608,-123.9193 776.2211,-114.2098 771.0915,-118.973"/>
</g>
<!-- d -->
<g id="node16" class="node">
<title>d</title>
<polygon fill="none" stroke="#000000" points="867,-76 838,-76 838,-47 867,-47 867,-76"/>
<text text-anchor="middle" x="852.5" y="-57.3" font-family="Times,serif" font-size="14.00" fill="#000000">d</text>
</g>
<!-- o5&#45;&gt;d -->
<g id="edge22" class="edge">
<title>o5-&gt;d</title>
<path fill="none" stroke="#000000" d="M737.1599,-61.5C759.104,-61.5 800.7715,-61.5 827.5596,-61.5"/>
<polygon fill="#000000" stroke="#000000" points="827.6942,-65.0001 837.6942,-61.5 827.6941,-58.0001 827.6942,-65.0001"/>
</g>
<!-- e -->
<g id="node17" class="node">
<title>e</title>
<polygon fill="none" stroke="#000000" points="867,-29 838,-29 838,0 867,0 867,-29"/>
<text text-anchor="middle" x="852.5" y="-10.3" font-family="Times,serif" font-size="14.00" fill="#000000">e</text>
</g>
<!-- o5&#45;&gt;e -->
<g id="edge18" class="edge">
<title>o5-&gt;e</title>
<path fill="none" stroke="#000000" d="M733.5837,-57.4928C754.4737,-49.9403 800.1084,-33.4416 828.3787,-23.2208"/>
<polygon fill="#000000" stroke="#000000" points="829.7162,-26.459 837.9304,-19.7675 827.3362,-19.876 829.7162,-26.459"/>
</g>
<!-- i -->
<g id="node21" class="node">
<title>i</title>
<polygon fill="none" stroke="#000000" points="1062,-76 1033,-76 1033,-47 1062,-47 1062,-76"/>
<text text-anchor="middle" x="1047.5" y="-57.3" font-family="Times,serif" font-size="14.00" fill="#000000">i</text>
</g>
<!-- o6&#45;&gt;i -->
<g id="edge30" class="edge">
<title>o6-&gt;i</title>
<path fill="none" stroke="#000000" d="M997.2495,-61.5C1004.7291,-61.5 1014.0181,-61.5 1022.5673,-61.5"/>
<polygon fill="#000000" stroke="#000000" points="1022.8089,-65.0001 1032.8089,-61.5 1022.8088,-58.0001 1022.8089,-65.0001"/>
</g>
<!-- a&#45;&gt;x1 -->
<g id="edge2" class="edge">
<title>a-&gt;x1</title>
<path fill="none" stroke="#000000" d="M87.2495,-61.5C94.7291,-61.5 104.0181,-61.5 112.5673,-61.5"/>
<polygon fill="#000000" stroke="#000000" points="112.8089,-65.0001 122.8089,-61.5 112.8088,-58.0001 112.8089,-65.0001"/>
</g>
<!-- b&#45;&gt;x2 -->
<g id="edge4" class="edge">
<title>b-&gt;x2</title>
<path fill="none" stroke="#000000" d="M217.2495,-80.054C226.0518,-76.804 237.3599,-72.6286 247.0193,-69.0621"/>
<polygon fill="#000000" stroke="#000000" points="248.4884,-72.2507 256.6571,-65.5035 246.0638,-65.684 248.4884,-72.2507"/>
</g>
<!-- c&#45;&gt;o4 -->
<g id="edge14" class="edge">
<title>c-&gt;o4</title>
<path fill="none" stroke="#000000" d="M607.2495,-80.054C616.0518,-76.804 627.3599,-72.6286 637.0193,-69.0621"/>
<polygon fill="#000000" stroke="#000000" points="638.4884,-72.2507 646.6571,-65.5035 636.0638,-65.684 638.4884,-72.2507"/>
</g>
<!-- d&#45;&gt;o6 -->
<g id="edge23" class="edge">
<title>d-&gt;o6</title>
<path fill="none" stroke="#000000" d="M867.1599,-61.5C889.104,-61.5 930.7715,-61.5 957.5596,-61.5"/>
<polygon fill="#000000" stroke="#000000" points="957.6942,-65.0001 967.6942,-61.5 957.6941,-58.0001 957.6942,-65.0001"/>
</g>
<!-- e&#45;&gt;o6 -->
<g id="edge19" class="edge">
<title>e-&gt;o6</title>
<path fill="none" stroke="#000000" d="M867.1599,-19.8001C890.388,-28.198 935.715,-44.5854 962.102,-54.1253"/>
<polygon fill="#000000" stroke="#000000" points="961.2284,-57.5312 971.8227,-57.6398 963.6085,-50.9482 961.2284,-57.5312"/>
</g>
<!-- f&#45;&gt;a2 -->
<g id="edge25" class="edge">
<title>f-&gt;a2</title>
<path fill="none" stroke="#000000" d="M865.968,-187.7888C876.9656,-175.776 892.4523,-158.8597 903.5725,-146.7131"/>
<polygon fill="#000000" stroke="#000000" points="906.2937,-148.924 910.4647,-139.1847 901.1306,-144.1972 906.2937,-148.924"/>
</g>
<!-- g&#45;&gt;a2 -->
<g id="edge27" class="edge">
<title>g-&gt;a2</title>
<path fill="none" stroke="#000000" d="M867.2495,-150.054C876.0518,-146.804 887.3599,-142.6286 897.0193,-139.0621"/>
<polygon fill="#000000" stroke="#000000" points="898.4884,-142.2507 906.6571,-135.5035 896.0638,-135.684 898.4884,-142.2507"/>
</g>
<!-- h&#45;&gt;a2 -->
<g id="edge29" class="edge">
<title>h-&gt;a2</title>
<path fill="none" stroke="#000000" d="M867.2495,-113.7191C876.0518,-116.8337 887.3599,-120.8351 897.0193,-124.253"/>
<polygon fill="#000000" stroke="#000000" points="896.0623,-127.6269 906.6571,-127.6633 898.3974,-121.0279 896.0623,-127.6269"/>
</g>
<!-- i&#45;&gt;out -->
<g id="edge31" class="edge">
<title>i-&gt;out</title>
<path fill="none" stroke="#000000" d="M1062.0746,-61.5C1069.6815,-61.5 1079.1346,-61.5 1087.5586,-61.5"/>
<polygon fill="#000000" stroke="#000000" points="1087.7982,-65.0001 1097.7982,-61.5 1087.7981,-58.0001 1087.7982,-65.0001"/>
</g>
<!-- j&#45;&gt;x2 -->
<g id="edge6" class="edge">
<title>j-&gt;x2</title>
<path fill="none" stroke="#000000" d="M217.2495,-43.7191C226.0518,-46.8337 237.3599,-50.8351 247.0193,-54.253"/>
<polygon fill="#000000" stroke="#000000" points="246.0623,-57.6269 256.6571,-57.6633 248.3974,-51.0279 246.0623,-57.6269"/>
</g>
<!-- k&#45;&gt;o2 -->
<g id="edge9" class="edge">
<title>k-&gt;o2</title>
<path fill="none" stroke="#000000" d="M412.2495,-80.054C421.0518,-76.804 432.3599,-72.6286 442.0193,-69.0621"/>
<polygon fill="#000000" stroke="#000000" points="443.4884,-72.2507 451.6571,-65.5035 441.0638,-65.684 443.4884,-72.2507"/>
</g>
<!-- s1&#45;&gt;o2 -->
<g id="edge11" class="edge">
<title>s1-&gt;o2</title>
<path fill="none" stroke="#000000" d="M412.2495,-43.7191C421.0518,-46.8337 432.3599,-50.8351 442.0193,-54.253"/>
<polygon fill="#000000" stroke="#000000" points="441.0623,-57.6269 451.6571,-57.6633 443.3974,-51.0279 441.0623,-57.6269"/>
</g>
<!-- s2&#45;&gt;o4 -->
<g id="edge16" class="edge">
<title>s2-&gt;o4</title>
<path fill="none" stroke="#000000" d="M607.2495,-43.7191C616.0518,-46.8337 627.3599,-50.8351 637.0193,-54.253"/>
<polygon fill="#000000" stroke="#000000" points="636.0623,-57.6269 646.6571,-57.6633 638.3974,-51.0279 636.0623,-57.6269"/>
</g>
</g>
</svg>