<?xml version="1.0" encoding="UTF-8" standalone="no"?>
<!DOCTYPE svg PUBLIC "-//W3C//DTD SVG 1.1//EN" "http://www.w3.org/Graphics/SVG/1.1/DTD/svg11.dtd">
<!-- Generated by graphviz version 2.40.1 (20161225.0304)
 -->
<!-- Title: G Pages: 1 -->
<svg width="1128pt" height="240pt" viewBox="0.00 0.00 1128.00 240.40" xmlns="http://www.w3.org/2000/svg" xmlns:xlink="http://www.w3.org/1999/xlink">
<g id="graph0" class="graph" transform="scale(1 1) rotate(0) translate(4 236.4029)">
<title>G</title>
<polygon fill="#ffffff" stroke="transparent" points="-4,4 -4,-236.4029 1124,-236.4029 1124,4 -4,4"/>
<!-- in -->
<g id="node1" class="node">
<title>in</title>
<ellipse fill="none" stroke="#000000" cx="11" cy="-60.9029" rx="11" ry="11"/>
<text text-anchor="middle" x="11" y="-54.9029" font-family="Times,serif" font-size="20.00" fill="#000000">•</text>
</g>
<!-- a -->
<g id="node13" class="node">
<title>a</title>
<polygon fill="none" stroke="#000000" points="87,-75.4029 58,-75.4029 58,-46.4029 87,-46.4029 87,-75.4029"/>
<text text-anchor="middle" x="72.5" y="-56.7029" font-family="Times,serif" font-size="14.00" fill="#000000">a</text>
</g>
<!-- in&#45;&gt;a -->
<g id="edge1" class="edge">
<title>in-&gt;a</title>
<path fill="none" stroke="#000000" d="M22.28,-60.9029C29.3801,-60.9029 38.8328,-60.9029 47.621,-60.9029"/>
<polygon fill="#000000" stroke="#000000" points="47.8083,-64.403 57.8083,-60.9029 47.8083,-57.403 47.8083,-64.403"/>
</g>
<!-- out -->
<g id="node2" class="node">
<title>out</title>
<ellipse fill="#000000" stroke="#000000" cx="1109" cy="-54.9029" rx="11" ry="11"/>
</g>
<!-- x1 -->
<g id="node3" class="node">
<title>x1</title>
<polygon fill="#ffff00" stroke="#000000" points="137.5,-75.4029 123,-60.9029 137.5,-46.4029 152,-60.9029 137.5,-75.4029"/>
<text text-anchor="start" x="133" y="-57.3029" font-family="Times,serif" font-size="12.00" fill="#000000">✕</text>
</g>
<!-- b -->
<g id="node14" class="node">
<title>b</title>
<polygon fill="none" stroke="#000000" points="217,-99.4029 188,-99.4029 188,-70.4029 217,-70.4029 217,-99.4029"/>
<text text-anchor="middle" x="202.5" y="-80.7029" font-family="Times,serif" font-size="14.00" fill="#000000">b</text>
</g>
<!-- x1&#45;&gt;b -->
<g id="edge3" class="edge">
<title>x1-&gt;b</title>
<path fill="none" stroke="#000000" d="M148.2334,-64.8661C156.431,-67.8929 168.0481,-72.1822 178.4315,-76.0161"/>
<polygon fill="#000000" stroke="#000000" points="177.2637,-79.3158 187.857,-79.4963 179.6884,-72.7492 177.2637,-79.3158"/>
</g>
<!-- j -->
<g id="node22" class="node">
<title>j</title>
<polygon fill="none" stroke="#000000" points="217,-52.4029 188,-52.4029 188,-23.4029 217,-23.4029 217,-52.4029"/>
<text text-anchor="middle" x="202.5" y="-33.7029" font-family="Times,serif" font-size="14.00" fill="#000000">j</text>
</g>
<!-- x1&#45;&gt;j -->
<g id="edge5" class="edge">
<title>x1-&gt;j</title>
<path fill="none" stroke="#000000" d="M148.2334,-57.105C156.3465,-54.2342 167.8089,-50.1783 178.11,-46.5332"/>
<polygon fill="#000000" stroke="#000000" points="179.5973,-49.7197 187.857,-43.0843 177.2623,-43.1206 179.5973,-49.7197"/>
</g>
<!-- x2 -->
<g id="node4" class="node">
<title>x2</title>
<polygon fill="#ffff00" stroke="#000000" points="267.5,-75.4029 253,-60.9029 267.5,-46.4029 282,-60.9029 267.5,-75.4029"/>
<text text-anchor="start" x="263" y="-57.3029" font-family="Times,serif" font-size="12.00" fill="#000000">✕</text>
</g>
<!-- o1 -->
<g id="node5" class="node">
<title>o1</title>
<polygon fill="#ffff00" stroke="#000000" points="332.5,-75.4029 318,-60.9029 332.5,-46.4029 347,-60.9029 332.5,-75.4029"/>
<text text-anchor="start" x="328" y="-57.3029" font-family="Times,serif" font-size="12.00" fill="#000000">✕</text>
</g>
<!-- x2&#45;&gt;o1 -->
<g id="edge7" class="edge">
<title>x2-&gt;o1</title>
<path fill="none" stroke="#000000" d="M282.2495,-60.9029C289.7291,-60.9029 299.0181,-60.9029 307.5673,-60.9029"/>
<polygon fill="#000000" stroke="#000000" points="307.8089,-64.403 317.8089,-60.9029 307.8088,-57.403 307.8089,-64.403"/>
</g>
<!-- o2 -->
<g id="node6" class="node">
<title>o2</title>
<polygon fill="#ffff00" stroke="#000000" points="462.5,-71.4029 448,-56.9029 462.5,-42.4029 477,-56.9029 462.5,-71.4029"/>
<text text-anchor="start" x="458" y="-53.3029" font-family="Times,serif" font-size="12.00" fill="#000000">✕</text>
</g>
<!-- o1&#45;&gt;o2 -->
<g id="edge10" class="edge">
<title>o1:se-&gt;o2</title>
<path fill="none" stroke="#000000" d="M340.5,-52.9029C367.0901,-26.3128 415.4336,-38.5062 442.5987,-48.493"/>
<polygon fill="#000000" stroke="#000000" points="441.6092,-51.8645 452.1967,-52.2576 444.1652,-45.3478 441.6092,-51.8645"/>
</g>
<!-- k -->
<g id="node23" class="node">
<title>k</title>
<polygon fill="none" stroke="#000000" points="412,-93.4029 383,-93.4029 383,-64.4029 412,-64.4029 412,-93.4029"/>
<text text-anchor="middle" x="397.5" y="-74.7029" font-family="Times,serif" font-size="14.00" fill="#000000">k</text>
</g>
<!-- o1&#45;&gt;k -->
<g id="edge8" class="edge">
<title>o1-&gt;k</title>
<path fill="none" stroke="#000000" d="M344.1207,-64.121C352.1429,-66.3425 363.1083,-69.3791 373.0143,-72.1223"/>
<polygon fill="#000000" stroke="#000000" points="372.2146,-75.5325 382.786,-74.8283 374.0828,-68.7864 372.2146,-75.5325"/>
</g>
<!-- o3 -->
<g id="node7" class="node">
<title>o3</title>
<polygon fill="#ffff00" stroke="#000000" points="527.5,-71.4029 513,-56.9029 527.5,-42.4029 542,-56.9029 527.5,-71.4029"/>
<text text-anchor="start" x="523" y="-53.3029" font-family="Times,serif" font-size="12.00" fill="#000000">✕</text>
</g>
<!-- o2&#45;&gt;o3 -->
<g id="edge11" class="edge">
<title>o2-&gt;o3</title>
<path fill="none" stroke="#000000" d="M477.2495,-56.9029C484.7291,-56.9029 494.0181,-56.9029 502.5673,-56.9029"/>
<polygon fill="#000000" stroke="#000000" points="502.8089,-60.403 512.8089,-56.9029 502.8088,-53.403 502.8089,-60.403"/>
</g>
<!-- o4 -->
<g id="node8" class="node">
<title>o4</title>
<polygon fill="#ffff00" stroke="#000000" points="657.5,-67.4029 643,-52.9029 657.5,-38.4029 672,-52.9029 657.5,-67.4029"/>
<text text-anchor="start" x="653" y="-49.3029" font-family="Times,serif" font-size="12.00" fill="#000000">✕</text>
</g>
<!-- o3&#45;&gt;o4 -->
<g id="edge14" class="edge">
<title>o3:se-&gt;o4</title>
<path fill="none" stroke="#000000" d="M535.5,-48.9029C562.0901,-22.3128 610.4336,-34.5062 637.5987,-44.493"/>
<polygon fill="#000000" stroke="#000000" points="636.6092,-47.8645 647.1967,-48.2576 639.1652,-41.3478 636.6092,-47.8645"/>
</g>
<!-- c -->
<g id="node15" class="node">
<title>c</title>
<polygon fill="none" stroke="#000000" points="607,-89.4029 578,-89.4029 578,-60.4029 607,-60.4029 607,-89.4029"/>
<text text-anchor="middle" x="592.5" y="-70.7029" font-family="Times,serif" font-size="14.00" fill="#000000">c</text>
</g>
<!-- o3&#45;&gt;c -->
<g id="edge12" class="edge">
<title>o3-&gt;c</title>
<path fill="none" stroke="#000000" d="M539.1207,-60.121C547.1429,-62.3425 558.1083,-65.3791 568.0143,-68.1223"/>
<polygon fill="#000000" stroke="#000000" points="567.2146,-71.5325 577.786,-70.8283 569.0828,-64.7864 567.2146,-71.5325"/>
</g>
<!-- o5 -->
<g id="node11" class="node">
<title>o5</title>
<polygon fill="#ffff00" stroke="#000000" points="722.5,-67.4029 708,-52.9029 722.5,-38.4029 737,-52.9029 722.5,-67.4029"/>
<text text-anchor="start" x="716.1646" y="-49.3029" font-family="Times,serif" font-size="12.00" fill="#000000">◯</text>
</g>
<!-- o4&#45;&gt;o5 -->
<g id="edge15" class="edge">
<title>o4-&gt;o5</title>
<path fill="none" stroke="#000000" d="M672.2495,-52.9029C679.7291,-52.9029 689.0181,-52.9029 697.5673,-52.9029"/>
<polygon fill="#000000" stroke="#000000" points="697.8089,-56.403 707.8089,-52.9029 697.8088,-49.403 697.8089,-56.403"/>
</g>
<!-- a1 -->
<g id="node9" class="node">
<title>a1</title>
<polygon fill="#ffff00" stroke="#000000" points="787.5,-161.4029 773,-146.9029 787.5,-132.4029 802,-146.9029 787.5,-161.4029"/>
<text text-anchor="start" x="781.861" y="-140.9029" font-family="Times,serif" font-size="20.00" fill="#000000">+</text>
</g>
<!-- f -->
<g id="node18" class="node">
<title>f</title>
<polygon fill="none" stroke="#000000" points="867,-232.4029 838,-232.4029 838,-203.4029 867,-203.4029 867,-232.4029"/>
<text text-anchor="middle" x="852.5" y="-213.7029" font-family="Times,serif" font-size="14.00" fill="#000000">f</text>
</g>
<!-- a1&#45;&gt;f -->
<g id="edge22" class="edge">
<title>a1-&gt;f</title>
<path fill="none" stroke="#000000" d="M794.4561,-154.5012C803.4093,-164.2808 819.3492,-181.6921 832.2625,-195.7973"/>
<polygon fill="#000000" stroke="#000000" points="829.7274,-198.2115 839.0615,-203.224 834.8905,-193.4847 829.7274,-198.2115"/>
</g>
<!-- g -->
<g id="node19" class="node">
<title>g</title>
<polygon fill="none" stroke="#000000" points="867,-185.4029 838,-185.4029 838,-156.4029 867,-156.4029 867,-185.4029"/>
<text text-anchor="middle" x="852.5" y="-166.7029" font-family="Times,serif" font-size="14.00" fill="#000000">g</text>
</g>
<!-- a1&#45;&gt;g -->
<g id="edge24" class="edge">
<title>a1-&gt;g</title>
<path fill="none" stroke="#000000" d="M798.2334,-150.8661C806.431,-153.8929 818.0481,-158.1822 828.4315,-162.0161"/>
<polygon fill="#000000" stroke="#000000" points="827.2637,-165.3158 837.857,-165.4963 829.6884,-158.7492 827.2637,-165.3158"/>
</g>
<!-- h -->
<g id="node20" class="node">
<title>h</title>
<polygon fill="none" stroke="#000000" points="867,-138.4029 838,-138.4029 838,-109.4029 867,-109.4029 867,-138.4029"/>
<text text-anchor="middle" x="852.5" y="-119.7029" font-family="Times,serif" font-size="14.00" fill="#000000">h</text>
</g>
<!-- a1&#45;&gt;h -->
<g id="edge26" class="edge">
<title>a1-&gt;h</title>
<path fill="none" stroke="#000000" d="M798.2334,-143.105C806.3465,-140.2342 817.8089,-136.1783 828.11,-132.5332"/>
<polygon fill="#000000" stroke="#000000" points="829.5973,-135.7197 837.857,-129.0843 827.2623,-129.1206 829.5973,-135.7197"/>
</g>
<!-- a2 -->
<g id="node10" class="node">
<title>a2</title>
<polygon fill="#ffff00" stroke="#000000" points="917.5,-161.4029 903,-146.9029 917.5,-132.4029 932,-146.9029 917.5,-161.4029"/>
<text text-anchor="start" x="911.861" y="-140.9029" font-family="Times,serif" font-size="20.00" fill="#000000">+</text>
</g>
<!-- o6 -->
<g id="node12" class="node">
<title>o6</title>
<polygon fill="#ffff00" stroke="#000000" points="982.5,-69.4029 968,-54.9029 982.5,-40.4029 997,-54.9029 982.5,-69.4029"/>
<text text-anchor="start" x="976.1646" y="-51.3029" font-family="Times,serif" font-size="12.00" fill="#000000">◯</text>
</g>
<!-- a2&#45;&gt;o6 -->
<g id="edge19" class="edge">
<title>a2-&gt;o6</title>
<path fill="none" stroke="#000000" d="M923.7325,-138.0816C934.4854,-122.862 956.6969,-91.4242 970.5224,-71.8558"/>
<polygon fill="#000000" stroke="#000000" points="973.4695,-73.7501 976.3813,-63.5633 967.7524,-69.7109 973.4695,-73.7501"/>
</g>
<!-- o5&#45;&gt;a1 -->
<g id="edge18" class="edge">
<title>o5:ne-&gt;a1</title>
<path fill="none" stroke="#000000" d="M730.5,-60.9029C730.5,-60.9029 730.5,-67.4029 730.5,-67.4029 738.7442,-93.0499 758.6563,-117.4369 772.6115,-132.2784"/>
<polygon fill="#000000" stroke="#000000" points="770.1533,-134.7709 779.6396,-139.4891 775.1661,-129.885 770.1533,-134.7709"/>
</g>
<!-- o5&#45;&gt;o6 -->
<g id="edge28" class="edge">
<title>o5:se-&gt;o6</title>
<path fill="none" stroke="#000000" d="M730.5,-44.9029C775.1144,-.2885 805.1711,6.6699 867,-5.9029 903.28,-13.2805 942.2989,-32.4616 964.4268,-44.5203"/>
<polygon fill="#000000" stroke="#000000" points="962.8968,-47.6746 973.3347,-49.4917 966.3082,-41.562 962.8968,-47.6746"/>
</g>
<!-- d -->
<g id="node16" class="node">
<title>d</title>
<polygon fill="none" stroke="#000000" points="867,-91.4029 838,-91.4029 838,-62.4029 867,-62.4029 867,-91.4029"/>
<text text-anchor="middle" x="852.5" y="-72.7029" font-family="Times,serif" font-size="14.00" fill="#000000">d</text>
</g>
<!-- o5&#45;&gt;d -->
<g id="edge20" class="edge">
<title>o5-&gt;d</title>
<path fill="none" stroke="#000000" d="M734.9649,-55.2042C756.2842,-59.14 800.1244,-67.2336 827.8211,-72.3468"/>
<polygon fill="#000000" stroke="#000000" points="827.4376,-75.8351 837.9069,-74.2088 828.7085,-68.9514 827.4376,-75.8351"/>
</g>
<!-- e -->
<g id="node17" class="node">
<title>e</title>
<polygon fill="none" stroke="#000000" points="867,-44.4029 838,-44.4029 838,-15.4029 867,-15.4029 867,-44.4029"/>
<text text-anchor="middle" x="852.5" y="-25.7029" font-family="Times,serif" font-size="14.00" fill="#000000">e</text>
</g>
<!-- o5&#45;&gt;e -->
<g id="edge16" class="edge">
<title>o5-&gt;e</title>
<path fill="none" stroke="#000000" d="M734.9649,-50.6976C756.2842,-46.9257 800.1244,-39.1694 827.8211,-34.2692"/>
<polygon fill="#000000" stroke="#000000" points="828.6696,-37.6735 837.9069,-32.4848 827.45,-30.7806 828.6696,-37.6735"/>
</g>
<!-- i -->
<g id="node21" class="node">
<title>i</title>
<polygon fill="none" stroke="#000000" points="1062,-69.4029 1033,-69.4029 1033,-40.4029 1062,-40.4029 1062,-69.4029"/>
<text text-anchor="middle" x="1047.5" y="-50.7029" font-family="Times,serif" font-size="14.00" fill="#000000">i</text>
</g>
<!-- o6&#45;&gt;i -->
<g id="edge29" class="edge">
<title>o6-&gt;i</title>
<path fill="none" stroke="#000000" d="M997.2495,-54.9029C1004.7291,-54.9029 1014.0181,-54.9029 1022.5673,-54.9029"/>
<polygon fill="#000000" stroke="#000000" points="1022.8089,-58.403 1032.8089,-54.9029 1022.8088,-51.403 1022.8089,-58.403"/>
</g>
<!-- a&#45;&gt;x1 -->
<g id="edge2" class="edge">
<title>a-&gt;x1</title>
<path fill="none" stroke="#000000" d="M87.2495,-60.9029C94.7291,-60.9029 104.0181,-60.9029 112.5673,-60.9029"/>
<polygon fill="#000000" stroke="#000000" points="112.8089,-64.403 122.8089,-60.9029 112.8088,-57.403 112.8089,-64.403"/>
</g>
<!-- b&#45;&gt;x2 -->
<g id="edge4" class="edge">
<title>b-&gt;x2</title>
<path fill="none" stroke="#000000" d="M217.2495,-79.457C226.0518,-76.2069 237.3599,-72.0316 247.0193,-68.465"/>
<polygon fill="#000000" stroke="#000000" points="248.4884,-71.6536 256.6571,-64.9065 246.0638,-65.087 248.4884,-71.6536"/>
</g>
<!-- c&#45;&gt;o4 -->
<g id="edge13" class="edge">
<title>c-&gt;o4</title>
<path fill="none" stroke="#000000" d="M607.2495,-69.9108C616.0518,-66.9316 627.3599,-63.1042 637.0193,-59.8349"/>
<polygon fill="#000000" stroke="#000000" points="638.307,-63.0941 646.6571,-56.5729 636.0628,-56.4636 638.307,-63.0941"/>
</g>
<!-- d&#45;&gt;o6 -->
<g id="edge21" class="edge">
<title>d-&gt;o6</title>
<path fill="none" stroke="#000000" d="M867.1599,-74.422C889.8044,-70.5899 933.4512,-63.2035 960.0778,-58.6975"/>
<polygon fill="#000000" stroke="#000000" points="960.739,-62.1354 970.0148,-57.0158 959.5709,-55.2336 960.739,-62.1354"/>
</g>
<!-- e&#45;&gt;o6 -->
<g id="edge17" class="edge">
<title>e-&gt;o6</title>
<path fill="none" stroke="#000000" d="M867.1599,-32.7222C889.8044,-37.0769 933.4512,-45.4705 960.0778,-50.591"/>
<polygon fill="#000000" stroke="#000000" points="959.5337,-54.0504 970.0148,-52.5019 960.8557,-47.1764 959.5337,-54.0504"/>
</g>
<!-- f&#45;&gt;a2 -->
<g id="edge23" class="edge">
<title>f-&gt;a2</title>
<path fill="none" stroke="#000000" d="M865.968,-203.1917C876.9656,-191.179 892.4523,-174.2627 903.5725,-162.116"/>
<polygon fill="#000000" stroke="#000000" points="906.2937,-164.3269 910.4647,-154.5877 901.1306,-159.6001 906.2937,-164.3269"/>
</g>
<!-- g&#45;&gt;a2 -->
<g id="edge25" class="edge">
<title>g-&gt;a2</title>
<path fill="none" stroke="#000000" d="M867.2495,-165.457C876.0518,-162.2069 887.3599,-158.0316 897.0193,-154.465"/>
<polygon fill="#000000" stroke="#000000" points="898.4884,-157.6536 906.6571,-150.9065 896.0638,-151.087 898.4884,-157.6536"/>
</g>
<!-- h&#45;&gt;a2 -->
<g id="edge27" class="edge">
<title>h-&gt;a2</title>
<path fill="none" stroke="#000000" d="M867.2495,-129.122C876.0518,-132.2366 887.3599,-136.238 897.0193,-139.6559"/>
<polygon fill="#000000" stroke="#000000" points="896.0623,-143.0299 906.6571,-143.0662 898.3974,-136.4308 896.0623,-143.0299"/>
</g>
<!-- i&#45;&gt;out -->
<g id="edge30" class="edge">
<title>i-&gt;out</title>
<path fill="none" stroke="#000000" d="M1062.0746,-54.9029C1069.6815,-54.9029 1079.1346,-54.9029 1087.5586,-54.9029"/>
<polygon fill="#000000" stroke="#000000" points="1087.7982,-58.403 1097.7982,-54.9029 1087.7981,-51.403 1087.7982,-58.403"/>
</g>
<!-- j&#45;&gt;x2 -->
<g id="edge6" class="edge">
<title>j-&gt;x2</title>
<path fill="none" stroke="#000000" d="M217.2495,-43.122C226.0518,-46.2366 237.3599,-50.238 247.0193,-53.6559"/>
<polygon fill="#000000" stroke="#000000" points="246.0623,-57.0299 256.6571,-57.0662 248.3974,-50.4308 246.0623,-57.0299"/>
</g>
<!-- k&#45;&gt;o2 -->
<g id="edge9" class="edge">
<title>k-&gt;o2</title>
<path fill="none" stroke="#000000" d="M412.2495,-73.9108C421.0518,-70.9316 432.3599,-67.1042 442.0193,-63.8349"/>
<polygon fill="#000000" stroke="#000000" points="443.307,-67.0941 451.6571,-60.5729 441.0628,-60.4636 443.307,-67.0941"/>
</g>
</g>
</svg>