<?xml version="1.0" encoding="UTF-8" standalone="no"?>
<!DOCTYPE svg PUBLIC "-//W3C//DTD SVG 1.1//EN" "http://www.w3.org/Graphics/SVG/1.1/DTD/svg11.dtd">
<!-- Generated by graphviz version 2.40.1 (20161225.0304)
 -->
<!-- Title: G Pages: 1 -->
<svg width="1128pt" height="272pt" viewBox="0.00 0.00 1128.00 272.00" xmlns="http://www.w3.org/2000/svg" xmlns:xlink="http://www.w3.org/1999/xlink">
<g id="graph0" class="graph" transform="scale(1 1) rotate(0) translate(4 268)">
<title>G</title>
<polygon fill="#ffffff" stroke="transparent" points="-4,4 -4,-268 1124,-268 1124,4 -4,4"/>
<!-- in -->
<g id="node1" class="node">
<title>in</title>
<ellipse fill="none" stroke="#000000" cx="11" cy="-86.5" rx="11" ry="11"/>
<text text-anchor="middle" x="11" y="-80.5" font-family="Times,serif" font-size="20.00" fill="#000000">•</text>
</g>
<!-- a -->
<g id="node13" class="node">
<title>a</title>
<polygon fill="none" stroke="#000000" points="87,-101 58,-101 58,-72 87,-72 87,-101"/>
<text text-anchor="middle" x="72.5" y="-82.3" font-family="Times,serif" font-size="14.00" fill="#000000">a</text>
</g>
<!-- in&#45;&gt;a -->
<g id="edge1" class="edge">
<title>in-&gt;a</title>
<path fill="none" stroke="#000000" d="M22.28,-86.5C29.3801,-86.5 38.8328,-86.5 47.621,-86.5"/>
<polygon fill="#000000" stroke="#000000" points="47.8083,-90.0001 57.8083,-86.5 47.8083,-83.0001 47.8083,-90.0001"/>
</g>
<!-- out -->
<g id="node2" class="node">
<title>out</title>
<ellipse fill="#000000" stroke="#000000" cx="1109" cy="-86.5" rx="11" ry="11"/>
</g>
<!-- x1 -->
<g id="node3" class="node">
<title>x1</title>
<polygon fill="#ffff00" stroke="#000000" points="137.5,-101 123,-86.5 137.5,-72 152,-86.5 137.5,-101"/>
<text text-anchor="start" x="133" y="-82.9" font-family="Times,serif" font-size="12.00" fill="#000000">✕</text>
</g>
<!-- b -->
<g id="node14" class="node">
<title>b</title>
<polygon fill="none" stroke="#000000" points="217,-125 188,-125 188,-96 217,-96 217,-125"/>
<text text-anchor="middle" x="202.5" y="-106.3" font-family="Times,serif" font-size="14.00" fill="#000000">b</text>
</g>
<!-- x1&#45;&gt;b -->
<g id="edge3" class="edge">
<title>x1-&gt;b</title>
<path fill="none" stroke="#000000" d="M148.2334,-90.4631C156.431,-93.4899 168.0481,-97.7793 178.4315,-101.6132"/>
<polygon fill="#000000" stroke="#000000" points="177.2637,-104.9129 187.857,-105.0934 179.6884,-98.3462 177.2637,-104.9129"/>
</g>
<!-- j -->
<g id="node22" class="node">
<title>j</title>
<polygon fill="none" stroke="#000000" points="217,-78 188,-78 188,-49 217,-49 217,-78"/>
<text text-anchor="middle" x="202.5" y="-59.3" font-family="Times,serif" font-size="14.00" fill="#000000">j</text>
</g>
<!-- x1&#45;&gt;j -->
<g id="edge5" class="edge">
<title>x1-&gt;j</title>
<path fill="none" stroke="#000000" d="M148.2334,-82.702C156.3465,-79.8312 167.8089,-75.7753 178.11,-72.1303"/>
<polygon fill="#000000" stroke="#000000" points="179.5973,-75.3167 187.857,-68.6814 177.2623,-68.7177 179.5973,-75.3167"/>
</g>
<!-- x2 -->
<g id="node4" class="node">
<title>x2</title>
<polygon fill="#ffff00" stroke="#000000" points="267.5,-101 253,-86.5 267.5,-72 282,-86.5 267.5,-101"/>
<text text-anchor="start" x="263" y="-82.9" font-family="Times,serif" font-size="12.00" fill="#000000">✕</text>
</g>
<!-- o1 -->
<g id="node7" class="node">
<title>o1</title>
<polygon fill="#ffff00" stroke="#000000" points="332.5,-101 318,-86.5 332.5,-72 347,-86.5 332.5,-101"/>
<text text-anchor="start" x="326.1646" y="-82.9" font-family="Times,serif" font-size="12.00" fill="#000000">◯</text>
</g>
<!-- x2&#45;&gt;o1 -->
<g id="edge7" class="edge">
<title>x2-&gt;o1</title>
<path fill="none" stroke="#000000" d="M282.2495,-86.5C289.7291,-86.5 299.0181,-86.5 307.5673,-86.5"/>
<polygon fill="#000000" stroke="#000000" points="307.8089,-90.0001 317.8089,-86.5 307.8088,-83.0001 307.8089,-90.0001"/>
</g>
<!-- a1 -->
<g id="node5" class="node">
<title>a1</title>
<polygon fill="#ffff00" stroke="#000000" points="787.5,-193 773,-178.5 787.5,-164 802,-178.5 787.5,-193"/>
<text text-anchor="start" x="781.861" y="-172.5" font-family="Times,serif" font-size="20.00" fill="#000000">+</text>
</g>
<!-- f -->
<g id="node18" class="node">
<title>f</title>
<polygon fill="none" stroke="#000000" points="867,-264 838,-264 838,-235 867,-235 867,-264"/>
<text text-anchor="middle" x="852.5" y="-245.3" font-family="Times,serif" font-size="14.00" fill="#000000">f</text>
</g>
<!-- a1&#45;&gt;f -->
<g id="edge26" class="edge">
<title>a1-&gt;f</title>
<path fill="none" stroke="#000000" d="M794.4561,-186.0982C803.4093,-195.8778 819.3492,-213.2891 832.2625,-227.3944"/>
<polygon fill="#000000" stroke="#000000" points="829.7274,-229.8086 839.0615,-234.8211 834.8905,-225.0818 829.7274,-229.8086"/>
</g>
<!-- g -->
<g id="node19" class="node">
<title>g</title>
<polygon fill="none" stroke="#000000" points="867,-217 838,-217 838,-188 867,-188 867,-217"/>
<text text-anchor="middle" x="852.5" y="-198.3" font-family="Times,serif" font-size="14.00" fill="#000000">g</text>
</g>
<!-- a1&#45;&gt;g -->
<g id="edge28" class="edge">
<title>a1-&gt;g</title>
<path fill="none" stroke="#000000" d="M798.2334,-182.4631C806.431,-185.4899 818.0481,-189.7793 828.4315,-193.6132"/>
<polygon fill="#000000" stroke="#000000" points="827.2637,-196.9129 837.857,-197.0934 829.6884,-190.3462 827.2637,-196.9129"/>
</g>
<!-- h -->
<g id="node20" class="node">
<title>h</title>
<polygon fill="none" stroke="#000000" points="867,-170 838,-170 838,-141 867,-141 867,-170"/>
<text text-anchor="middle" x="852.5" y="-151.3" font-family="Times,serif" font-size="14.00" fill="#000000">h</text>
</g>
<!-- a1&#45;&gt;h -->
<g id="edge30" class="edge">
<title>a1-&gt;h</title>
<path fill="none" stroke="#000000" d="M798.2334,-174.702C806.3465,-171.8312 817.8089,-167.7753 828.11,-164.1303"/>
<polygon fill="#000000" stroke="#000000" points="829.5973,-167.3167 837.857,-160.6814 827.2623,-160.7177 829.5973,-167.3167"/>
</g>
<!-- a2 -->
<g id="node6" class="node">
<title>a2</title>
<polygon fill="#ffff00" stroke="#000000" points="917.5,-193 903,-178.5 917.5,-164 932,-178.5 917.5,-193"/>
<text text-anchor="start" x="911.861" y="-172.5" font-family="Times,serif" font-size="20.00" fill="#000000">+</text>
</g>
<!-- o6 -->
<g id="node12" class="node">
<title>o6</title>
<polygon fill="#ffff00" stroke="#000000" points="982.5,-101 968,-86.5 982.5,-72 997,-86.5 982.5,-101"/>
<text text-anchor="start" x="976.1646" y="-82.9" font-family="Times,serif" font-size="12.00" fill="#000000">◯</text>
</g>
<!-- a2&#45;&gt;o6 -->
<g id="edge21" class="edge">
<title>a2-&gt;o6</title>
<path fill="none" stroke="#000000" d="M923.7325,-169.6787C934.4854,-154.4591 956.6969,-123.0213 970.5224,-103.4529"/>
<polygon fill="#000000" stroke="#000000" points="973.4695,-105.3472 976.3813,-95.1603 967.7524,-101.3079 973.4695,-105.3472"/>
</g>
<!-- k -->
<g id="node23" class="node">
<title>k</title>
<polygon fill="none" stroke="#000000" points="412,-125 383,-125 383,-96 412,-96 412,-125"/>
<text text-anchor="middle" x="397.5" y="-106.3" font-family="Times,serif" font-size="14.00" fill="#000000">k</text>
</g>
<!-- o1&#45;&gt;k -->
<g id="edge8" class="edge">
<title>o1-&gt;k</title>
<path fill="none" stroke="#000000" d="M343.2334,-90.4631C351.431,-93.4899 363.0481,-97.7793 373.4315,-101.6132"/>
<polygon fill="#000000" stroke="#000000" points="372.2637,-104.9129 382.857,-105.0934 374.6884,-98.3462 372.2637,-104.9129"/>
</g>
<!-- s1 -->
<g id="node24" class="node">
<title>s1</title>
<polygon fill="#000000" stroke="#000000" points="412,-78 383,-78 383,-49 412,-49 412,-78"/>
</g>
<!-- o1&#45;&gt;s1 -->
<g id="edge10" class="edge">
<title>o1-&gt;s1</title>
<path fill="none" stroke="#000000" d="M343.2334,-82.702C351.3465,-79.8312 362.8089,-75.7753 373.11,-72.1303"/>
<polygon fill="#000000" stroke="#000000" points="374.5973,-75.3167 382.857,-68.6814 372.2623,-68.7177 374.5973,-75.3167"/>
</g>
<!-- o2 -->
<g id="node8" class="node">
<title>o2</title>
<polygon fill="#ffff00" stroke="#000000" points="462.5,-101 448,-86.5 462.5,-72 477,-86.5 462.5,-101"/>
<text text-anchor="start" x="456.1646" y="-82.9" font-family="Times,serif" font-size="12.00" fill="#000000">◯</text>
</g>
<!-- o3 -->
<g id="node9" class="node">
<title>o3</title>
<polygon fill="#ffff00" stroke="#000000" points="527.5,-101 513,-86.5 527.5,-72 542,-86.5 527.5,-101"/>
<text text-anchor="start" x="521.1646" y="-82.9" font-family="Times,serif" font-size="12.00" fill="#000000">◯</text>
</g>
<!-- o2&#45;&gt;o3 -->
<g id="edge12" class="edge">
<title>o2-&gt;o3</title>
<path fill="none" stroke="#000000" d="M477.2495,-86.5C484.7291,-86.5 494.0181,-86.5 502.5673,-86.5"/>
<polygon fill="#000000" stroke="#000000" points="502.8089,-90.0001 512.8089,-86.5 502.8088,-83.0001 502.8089,-90.0001"/>
</g>
<!-- c -->
<g id="node15" class="node">
<title>c</title>
<polygon fill="none" stroke="#000000" points="607,-125 578,-125 578,-96 607,-96 607,-125"/>
<text text-anchor="middle" x="592.5" y="-106.3" font-family="Times,serif" font-size="14.00" fill="#000000">c</text>
</g>
<!-- o3&#45;&gt;c -->
<g id="edge13" class="edge">
<title>o3-&gt;c</title>
<path fill="none" stroke="#000000" d="M538.2334,-90.4631C546.431,-93.4899 558.0481,-97.7793 568.4315,-101.6132"/>
<polygon fill="#000000" stroke="#000000" points="567.2637,-104.9129 577.857,-105.0934 569.6884,-98.3462 567.2637,-104.9129"/>
</g>
<!-- s2 -->
<g id="node25" class="node">
<title>s2</title>
<polygon fill="#000000" stroke="#000000" points="607,-78 578,-78 578,-49 607,-49 607,-78"/>
</g>
<!-- o3&#45;&gt;s2 -->
<g id="edge15" class="edge">
<title>o3-&gt;s2</title>
<path fill="none" stroke="#000000" d="M538.2334,-82.702C546.3465,-79.8312 557.8089,-75.7753 568.11,-72.1303"/>
<polygon fill="#000000" stroke="#000000" points="569.5973,-75.3167 577.857,-68.6814 567.2623,-68.7177 569.5973,-75.3167"/>
</g>
<!-- o4 -->
<g id="node10" class="node">
<title>o4</title>
<polygon fill="#ffff00" stroke="#000000" points="657.5,-101 643,-86.5 657.5,-72 672,-86.5 657.5,-101"/>
<text text-anchor="start" x="651.1646" y="-82.9" font-family="Times,serif" font-size="12.00" fill="#000000">◯</text>
</g>
<!-- o5 -->
<g id="node11" class="node">
<title>o5</title>
<polygon fill="#ffff00" stroke="#000000" points="722.5,-101 708,-86.5 722.5,-72 737,-86.5 722.5,-101"/>
<text text-anchor="start" x="716.1646" y="-82.9" font-family="Times,serif" font-size="12.00" fill="#000000">◯</text>
</g>
<!-- o4&#45;&gt;o5 -->
<g id="edge17" class="edge">
<title>o4-&gt;o5</title>
<path fill="none" stroke="#000000" d="M672.2495,-86.5C679.7291,-86.5 689.0181,-86.5 697.5673,-86.5"/>
<polygon fill="#000000" stroke="#000000" points="697.8089,-90.0001 707.8089,-86.5 697.8088,-83.0001 697.8089,-90.0001"/>
</g>
<!-- o5&#45;&gt;a1 -->
<g id="edge20" class="edge">
<title>o5-&gt;a1</title>
<path fill="none" stroke="#000000" d="M728.7325,-95.3213C739.4854,-110.5409 761.6969,-141.9787 775.5224,-161.5471"/>
<polygon fill="#000000" stroke="#000000" points="772.7524,-163.6921 781.3813,-169.8397 778.4695,-159.6528 772.7524,-163.6921"/>
</g>
<!-- d -->
<g id="node16" class="node">
<title>d</title>
<polygon fill="none" stroke="#000000" points="867,-123 838,-123 838,-94 867,-94 867,-123"/>
<text text-anchor="middle" x="852.5" y="-104.3" font-family="Times,serif" font-size="14.00" fill="#000000">d</text>
</g>
<!-- o5&#45;&gt;d -->
<g id="edge22" class="edge">
<title>o5-&gt;d</title>
<path fill="none" stroke="#000000" d="M734.9649,-88.6095C756.2842,-92.2173 800.1244,-99.6364 827.8211,-104.3236"/>
<polygon fill="#000000" stroke="#000000" points="827.463,-107.8127 837.9069,-106.0304 828.6311,-100.9108 827.463,-107.8127"/>
</g>
<!-- e -->
<g id="node17" class="node">
<title>e</title>
<polygon fill="none" stroke="#000000" points="867,-76 838,-76 838,-47 867,-47 867,-76"/>
<text text-anchor="middle" x="852.5" y="-57.3" font-family="Times,serif" font-size="14.00" fill="#000000">e</text>
</g>
<!-- o5&#45;&gt;e -->
<g id="edge18" class="edge">
<title>o5-&gt;e</title>
<path fill="none" stroke="#000000" d="M734.9649,-84.1029C756.2842,-80.003 800.1244,-71.5722 827.8211,-66.246"/>
<polygon fill="#000000" stroke="#000000" points="828.7478,-69.6319 837.9069,-64.3064 827.4258,-62.7579 828.7478,-69.6319"/>
</g>
<!-- s3 -->
<g id="node26" class="node">
<title>s3</title>
<polygon fill="#000000" stroke="#000000" points="867,-29 838,-29 838,0 867,0 867,-29"/>
</g>
<!-- o5&#45;&gt;s3 -->
<g id="edge24" class="edge">
<title>o5-&gt;s3</title>
<path fill="none" stroke="#000000" d="M731.8493,-81.3219C751.9346,-70.1977 799.7326,-43.725 828.7765,-27.6392"/>
<polygon fill="#000000" stroke="#000000" points="830.7879,-30.5262 837.8401,-22.6194 827.3964,-24.4026 830.7879,-30.5262"/>
</g>
<!-- i -->
<g id="node21" class="node">
<title>i</title>
<polygon fill="none" stroke="#000000" points="1062,-101 1033,-101 1033,-72 1062,-72 1062,-101"/>
<text text-anchor="middle" x="1047.5" y="-82.3" font-family="Times,serif" font-size="14.00" fill="#000000">i</text>
</g>
<!-- o6&#45;&gt;i -->
<g id="edge32" class="edge">
<title>o6-&gt;i</title>
<path fill="none" stroke="#000000" d="M997.2495,-86.5C1004.7291,-86.5 1014.0181,-86.5 1022.5673,-86.5"/>
<polygon fill="#000000" stroke="#000000" points="1022.8089,-90.0001 1032.8089,-86.5 1022.8088,-83.0001 1022.8089,-90.0001"/>
</g>
<!-- a&#45;&gt;x1 -->
<g id="edge2" class="edge">
<title>a-&gt;x1</title>
<path fill="none" stroke="#000000" d="M87.2495,-86.5C94.7291,-86.5 104.0181,-86.5 112.5673,-86.5"/>
<polygon fill="#000000" stroke="#000000" points="112.8089,-90.0001 122.8089,-86.5 112.8088,-83.0001 112.8089,-90.0001"/>
</g>
<!-- b&#45;&gt;x2 -->
<g id="edge4" class="edge">
<title>b-&gt;x2</title>
<path fill="none" stroke="#000000" d="M217.2495,-105.054C226.0518,-101.804 237.3599,-97.6286 247.0193,-94.0621"/>
<polygon fill="#000000" stroke="#000000" points="248.4884,-97.2507 256.6571,-90.5035 246.0638,-90.684 248.4884,-97.2507"/>
</g>
<!-- c&#45;&gt;o4 -->
<g id="edge14" class="edge">
<title>c-&gt;o4</title>
<path fill="none" stroke="#000000" d="M607.2495,-105.054C616.0518,-101.804 627.3599,-97.6286 637.0193,-94.0621"/>
<polygon fill="#000000" stroke="#000000" points="638.4884,-97.2507 646.6571,-90.5035 636.0638,-90.684 638.4884,-97.2507"/>
</g>
<!-- d&#45;&gt;o6 -->
<g id="edge23" class="edge">
<title>d-&gt;o6</title>
<path fill="none" stroke="#000000" d="M867.1599,-106.0191C889.8044,-102.1869 933.4512,-94.8006 960.0778,-90.2945"/>
<polygon fill="#000000" stroke="#000000" points="960.739,-93.7325 970.0148,-88.6129 959.5709,-86.8306 960.739,-93.7325"/>
</g>
<!-- e&#45;&gt;o6 -->
<g id="edge19" class="edge">
<title>e-&gt;o6</title>
<path fill="none" stroke="#000000" d="M867.1599,-64.3192C889.8044,-68.6739 933.4512,-77.0675 960.0778,-82.188"/>
<polygon fill="#000000" stroke="#000000" points="959.5337,-85.6475 970.0148,-84.099 960.8557,-78.7734 959.5337,-85.6475"/>
</g>
<!-- f&#45;&gt;a2 -->
<g id="edge27" class="edge">
<title>f-&gt;a2</title>
<path fill="none" stroke="#000000" d="M865.968,-234.7888C876.9656,-222.776 892.4523,-205.8597 903.5725,-193.7131"/>
<polygon fill="#000000" stroke="#000000" points="906.2937,-195.924 910.4647,-186.1847 901.1306,-191.1972 906.2937,-195.924"/>
</g>
<!-- g&#45;&gt;a2 -->
<g id="edge29" class="edge">
<title>g-&gt;a2</title>
<path fill="none" stroke="#000000" d="M867.2495,-197.054C876.0518,-193.804 887.3599,-189.6286 897.0193,-186.0621"/>
<polygon fill="#000000" stroke="#000000" points="898.4884,-189.2507 906.6571,-182.5035 896.0638,-182.684 898.4884,-189.2507"/>
</g>
<!-- h&#45;&gt;a2 -->
<g id="edge31" class="edge">
<title>h-&gt;a2</title>
<path fill="none" stroke="#000000" d="M867.2495,-160.7191C876.0518,-163.8337 887.3599,-167.8351 897.0193,-171.253"/>
<polygon fill="#000000" stroke="#000000" points="896.0623,-174.6269 906.6571,-174.6633 898.3974,-168.0279 896.0623,-174.6269"/>
</g>
<!-- i&#45;&gt;out -->
<g id="edge33" class="edge">
<title>i-&gt;out</title>
<path fill="none" stroke="#000000" d="M1062.0746,-86.5C1069.6815,-86.5 1079.1346,-86.5 1087.5586,-86.5"/>
<polygon fill="#000000" stroke="#000000" points="1087.7982,-90.0001 1097.7982,-86.5 1087.7981,-83.0001 1087.7982,-90.0001"/>
</g>
<!-- j&#45;&gt;x2 -->
<g id="edge6" class="edge">
<title>j-&gt;x2</title>
<path fill="none" stroke="#000000" d="M217.2495,-68.7191C226.0518,-71.8337 237.3599,-75.8351 247.0193,-79.253"/>
<polygon fill="#000000" stroke="#000000" points="246.0623,-82.6269 256.6571,-82.6633 248.3974,-76.0279 246.0623,-82.6269"/>
</g>
<!-- k&#45;&gt;o2 -->
<g id="edge9" class="edge">
<title>k-&gt;o2</title>
<path fill="none" stroke="#000000" d="M412.2495,-105.054C421.0518,-101.804 432.3599,-97.6286 442.0193,-94.0621"/>
<polygon fill="#000000" stroke="#000000" points="443.4884,-97.2507 451.6571,-90.5035 441.0638,-90.684 443.4884,-97.2507"/>
</g>
<!-- s1&#45;&gt;o2 -->
<g id="edge11" class="edge">
<title>s1-&gt;o2</title>
<path fill="none" stroke="#000000" d="M412.2495,-68.7191C421.0518,-71.8337 432.3599,-75.8351 442.0193,-79.253"/>
<polygon fill="#000000" stroke="#000000" points="441.0623,-82.6269 451.6571,-82.6633 443.3974,-76.0279 441.0623,-82.6269"/>
</g>
<!-- s2&#45;&gt;o4 -->
<g id="edge16" class="edge">
<title>s2-&gt;o4</title>
<path fill="none" stroke="#000000" d="M607.2495,-68.7191C616.0518,-71.8337 627.3599,-75.8351 637.0193,-79.253"/>
<polygon fill="#000000" stroke="#000000" points="636.0623,-82.6269 646.6571,-82.6633 638.3974,-76.0279 636.0623,-82.6269"/>
</g>
<!-- s3&#45;&gt;o6 -->
<g id="edge25" class="edge">
<title>s3-&gt;o6</title>
<path fill="none" stroke="#000000" d="M867.1599,-22.6194C890.9478,-35.7941 937.9124,-61.8053 963.9761,-76.2406"/>
<polygon fill="#000000" stroke="#000000" points="962.4063,-79.3721 972.85,-81.1554 965.7978,-73.2485 962.4063,-79.3721"/>
</g>
</g>
</svg>