<?xml version="1.0" encoding="UTF-8" standalone="no"?>
<!DOCTYPE svg PUBLIC "-//W3C//DTD SVG 1.1//EN" "http://www.w3.org/Graphics/SVG/1.1/DTD/svg11.dtd">
<!-- Generated by graphviz version 2.40.1 (20161225.0304)
 -->
<!-- Title: G Pages: 1 -->
<svg width="1236pt" height="247pt" viewBox="0.00 0.00 1236.00 246.94" xmlns="http://www.w3.org/2000/svg" xmlns:xlink="http://www.w3.org/1999/xlink">
<g id="graph0" class="graph" transform="scale(1 1) rotate(0) translate(4 242.9387)">
<title>G</title>
<polygon fill="#ffffff" stroke="transparent" points="-4,4 -4,-242.9387 1232,-242.9387 1232,4 -4,4"/>
<!-- in -->
<g id="node1" class="node">
<title>in</title>
<ellipse fill="none" stroke="#000000" cx="11" cy="-62.9387" rx="11" ry="11"/>
</g>
<!-- a -->
<g id="node13" class="node">
<title>a</title>
<path fill="none" stroke="#000000" d="M67.6667,-48.4387C67.6667,-48.4387 95.3333,-48.4387 95.3333,-48.4387 100.1667,-48.4387 105,-53.272 105,-58.1053 105,-58.1053 105,-67.772 105,-67.772 105,-72.6053 100.1667,-77.4387 95.3333,-77.4387 95.3333,-77.4387 67.6667,-77.4387 67.6667,-77.4387 62.8333,-77.4387 58,-72.6053 58,-67.772 58,-67.772 58,-58.1053 58,-58.1053 58,-53.272 62.8333,-48.4387 67.6667,-48.4387"/>
<text text-anchor="middle" x="81.5" y="-58.8387" font-family="Times,serif" font-size="14.00" fill="#000000">a</text>
</g>
<!-- in&#45;&gt;a -->
<g id="edge1" class="edge">
<title>in-&gt;a</title>
<path fill="none" stroke="#000000" d="M22.0156,-62.9387C28.9374,-62.9387 38.2756,-62.9387 47.4995,-62.9387"/>
<polygon fill="#000000" stroke="#000000" points="47.7302,-66.4388 57.7302,-62.9387 47.7302,-59.4388 47.7302,-66.4388"/>
</g>
<!-- out -->
<g id="node2" class="node">
<title>out</title>
<ellipse fill="none" stroke="#000000" stroke-width="3" cx="1217" cy="-57.9387" rx="11" ry="11"/>
</g>
<!-- x1 -->
<g id="node3" class="node">
<title>x1</title>
<polygon fill="#ffff00" stroke="#000000" points="155.5,-77.4387 141,-62.9387 155.5,-48.4387 170,-62.9387 155.5,-77.4387"/>
<text text-anchor="start" x="151" y="-59.3387" font-family="Times,serif" font-size="12.00" fill="#000000">✕</text>
</g>
<!-- b -->
<g id="node14" class="node">
<title>b</title>
<path fill="none" stroke="#000000" d="M215.6667,-72.4387C215.6667,-72.4387 243.3333,-72.4387 243.3333,-72.4387 248.1667,-72.4387 253,-77.272 253,-82.1053 253,-82.1053 253,-91.772 253,-91.772 253,-96.6053 248.1667,-101.4387 243.3333,-101.4387 243.3333,-101.4387 215.6667,-101.4387 215.6667,-101.4387 210.8333,-101.4387 206,-96.6053 206,-91.772 206,-91.772 206,-82.1053 206,-82.1053 206,-77.272 210.8333,-72.4387 215.6667,-72.4387"/>
<text text-anchor="middle" x="229.5" y="-82.8387" font-family="Times,serif" font-size="14.00" fill="#000000">b</text>
</g>
<!-- x1&#45;&gt;b -->
<g id="edge3" class="edge">
<title>x1-&gt;b</title>
<path fill="none" stroke="#000000" d="M166.739,-66.5838C174.6637,-69.1539 185.7184,-72.7392 196.3453,-76.1858"/>
<polygon fill="#000000" stroke="#000000" points="195.2905,-79.5231 205.8825,-79.2789 197.45,-72.8645 195.2905,-79.5231"/>
</g>
<!-- j -->
<g id="node22" class="node">
<title>j</title>
<path fill="none" stroke="#000000" d="M215.6667,-24.4387C215.6667,-24.4387 243.3333,-24.4387 243.3333,-24.4387 248.1667,-24.4387 253,-29.272 253,-34.1053 253,-34.1053 253,-43.772 253,-43.772 253,-48.6053 248.1667,-53.4387 243.3333,-53.4387 243.3333,-53.4387 215.6667,-53.4387 215.6667,-53.4387 210.8333,-53.4387 206,-48.6053 206,-43.772 206,-43.772 206,-34.1053 206,-34.1053 206,-29.272 210.8333,-24.4387 215.6667,-24.4387"/>
<text text-anchor="middle" x="229.5" y="-34.8387" font-family="Times,serif" font-size="14.00" fill="#000000">j</text>
</g>
<!-- x1&#45;&gt;j -->
<g id="edge5" class="edge">
<title>x1-&gt;j</title>
<path fill="none" stroke="#000000" d="M166.739,-59.2936C174.6637,-56.7234 185.7184,-53.1381 196.3453,-49.6915"/>
<polygon fill="#000000" stroke="#000000" points="197.45,-53.0128 205.8825,-46.5984 195.2905,-46.3542 197.45,-53.0128"/>
</g>
<!-- x2 -->
<g id="node4" class="node">
<title>x2</title>
<polygon fill="#ffff00" stroke="#000000" points="303.5,-77.4387 289,-62.9387 303.5,-48.4387 318,-62.9387 303.5,-77.4387"/>
<text text-anchor="start" x="299" y="-59.3387" font-family="Times,serif" font-size="12.00" fill="#000000">✕</text>
</g>
<!-- o1 -->
<g id="node5" class="node">
<title>o1</title>
<polygon fill="#ffff00" stroke="#000000" points="368.5,-77.4387 354,-62.9387 368.5,-48.4387 383,-62.9387 368.5,-77.4387"/>
<text text-anchor="start" x="364" y="-59.3387" font-family="Times,serif" font-size="12.00" fill="#000000">✕</text>
</g>
<!-- x2&#45;&gt;o1 -->
<g id="edge7" class="edge">
<title>x2-&gt;o1</title>
<path fill="none" stroke="#000000" d="M318.2495,-62.9387C325.7291,-62.9387 335.0181,-62.9387 343.5673,-62.9387"/>
<polygon fill="#000000" stroke="#000000" points="343.8089,-66.4388 353.8089,-62.9387 343.8088,-59.4388 343.8089,-66.4388"/>
</g>
<!-- o2 -->
<g id="node6" class="node">
<title>o2</title>
<polygon fill="#ffff00" stroke="#000000" points="516.5,-73.4387 502,-58.9387 516.5,-44.4387 531,-58.9387 516.5,-73.4387"/>
<text text-anchor="start" x="512" y="-55.3387" font-family="Times,serif" font-size="12.00" fill="#000000">✕</text>
</g>
<!-- o1&#45;&gt;o2 -->
<g id="edge10" class="edge">
<title>o1:se-&gt;o2</title>
<path fill="none" stroke="#000000" d="M376.5,-54.9387C408.0295,-23.4092 466.2251,-39.1028 496.7053,-50.5439"/>
<polygon fill="#000000" stroke="#000000" points="495.6556,-53.8928 506.2415,-54.329 498.2381,-47.3866 495.6556,-53.8928"/>
</g>
<!-- k -->
<g id="node23" class="node">
<title>k</title>
<path fill="none" stroke="#000000" d="M428.6667,-66.4387C428.6667,-66.4387 456.3333,-66.4387 456.3333,-66.4387 461.1667,-66.4387 466,-71.272 466,-76.1053 466,-76.1053 466,-85.772 466,-85.772 466,-90.6053 461.1667,-95.4387 456.3333,-95.4387 456.3333,-95.4387 428.6667,-95.4387 428.6667,-95.4387 423.8333,-95.4387 419,-90.6053 419,-85.772 419,-85.772 419,-76.1053 419,-76.1053 419,-71.272 423.8333,-66.4387 428.6667,-66.4387"/>
<text text-anchor="middle" x="442.5" y="-76.8387" font-family="Times,serif" font-size="14.00" fill="#000000">k</text>
</g>
<!-- o1&#45;&gt;k -->
<g id="edge8" class="edge">
<title>o1-&gt;k</title>
<path fill="none" stroke="#000000" d="M380.3894,-65.8307C388.1724,-67.7238 398.7621,-70.2997 408.9925,-72.7882"/>
<polygon fill="#000000" stroke="#000000" points="408.4419,-76.2563 418.9859,-75.219 410.0964,-69.4546 408.4419,-76.2563"/>
</g>
<!-- o3 -->
<g id="node7" class="node">
<title>o3</title>
<polygon fill="#ffff00" stroke="#000000" points="581.5,-73.4387 567,-58.9387 581.5,-44.4387 596,-58.9387 581.5,-73.4387"/>
<text text-anchor="start" x="577" y="-55.3387" font-family="Times,serif" font-size="12.00" fill="#000000">✕</text>
</g>
<!-- o2&#45;&gt;o3 -->
<g id="edge11" class="edge">
<title>o2-&gt;o3</title>
<path fill="none" stroke="#000000" d="M531.2495,-58.9387C538.7291,-58.9387 548.0181,-58.9387 556.5673,-58.9387"/>
<polygon fill="#000000" stroke="#000000" points="556.8089,-62.4388 566.8089,-58.9387 556.8088,-55.4388 556.8089,-62.4388"/>
</g>
<!-- o4 -->
<g id="node8" class="node">
<title>o4</title>
<polygon fill="#ffff00" stroke="#000000" points="729.5,-69.4387 715,-54.9387 729.5,-40.4387 744,-54.9387 729.5,-69.4387"/>
<text text-anchor="start" x="725" y="-51.3387" font-family="Times,serif" font-size="12.00" fill="#000000">✕</text>
</g>
<!-- o3&#45;&gt;o4 -->
<g id="edge14" class="edge">
<title>o3:se-&gt;o4</title>
<path fill="none" stroke="#000000" d="M589.5,-50.9387C621.0295,-19.4092 679.2251,-35.1028 709.7053,-46.5439"/>
<polygon fill="#000000" stroke="#000000" points="708.6556,-49.8928 719.2415,-50.329 711.2381,-43.3866 708.6556,-49.8928"/>
</g>
<!-- c -->
<g id="node15" class="node">
<title>c</title>
<path fill="none" stroke="#000000" d="M641.6667,-62.4387C641.6667,-62.4387 669.3333,-62.4387 669.3333,-62.4387 674.1667,-62.4387 679,-67.272 679,-72.1053 679,-72.1053 679,-81.772 679,-81.772 679,-86.6053 674.1667,-91.4387 669.3333,-91.4387 669.3333,-91.4387 641.6667,-91.4387 641.6667,-91.4387 636.8333,-91.4387 632,-86.6053 632,-81.772 632,-81.772 632,-72.1053 632,-72.1053 632,-67.272 636.8333,-62.4387 641.6667,-62.4387"/>
<text text-anchor="middle" x="655.5" y="-72.8387" font-family="Times,serif" font-size="14.00" fill="#000000">c</text>
</g>
<!-- o3&#45;&gt;c -->
<g id="edge12" class="edge">
<title>o3-&gt;c</title>
<path fill="none" stroke="#000000" d="M593.3894,-61.8307C601.1724,-63.7238 611.7621,-66.2997 621.9925,-68.7882"/>
<polygon fill="#000000" stroke="#000000" points="621.4419,-72.2563 631.9859,-71.219 623.0964,-65.4546 621.4419,-72.2563"/>
</g>
<!-- o5 -->
<g id="node11" class="node">
<title>o5</title>
<polygon fill="#ffff00" stroke="#000000" points="794.5,-69.4387 780,-54.9387 794.5,-40.4387 809,-54.9387 794.5,-69.4387"/>
<text text-anchor="start" x="788.1646" y="-51.3387" font-family="Times,serif" font-size="12.00" fill="#000000">◯</text>
</g>
<!-- o4&#45;&gt;o5 -->
<g id="edge15" class="edge">
<title>o4-&gt;o5</title>
<path fill="none" stroke="#000000" d="M744.2495,-54.9387C751.7291,-54.9387 761.0181,-54.9387 769.5673,-54.9387"/>
<polygon fill="#000000" stroke="#000000" points="769.8089,-58.4388 779.8089,-54.9387 769.8088,-51.4388 769.8089,-58.4388"/>
</g>
<!-- a1 -->
<g id="node9" class="node">
<title>a1</title>
<polygon fill="#ffff00" stroke="#000000" points="859.5,-166.4387 845,-151.9387 859.5,-137.4387 874,-151.9387 859.5,-166.4387"/>
<text text-anchor="start" x="853.861" y="-145.9387" font-family="Times,serif" font-size="20.00" fill="#000000">+</text>
</g>
<!-- f -->
<g id="node18" class="node">
<title>f</title>
<path fill="none" stroke="#000000" d="M919.6667,-209.4387C919.6667,-209.4387 947.3333,-209.4387 947.3333,-209.4387 952.1667,-209.4387 957,-214.272 957,-219.1053 957,-219.1053 957,-228.772 957,-228.772 957,-233.6053 952.1667,-238.4387 947.3333,-238.4387 947.3333,-238.4387 919.6667,-238.4387 919.6667,-238.4387 914.8333,-238.4387 910,-233.6053 910,-228.772 910,-228.772 910,-219.1053 910,-219.1053 910,-214.272 914.8333,-209.4387 919.6667,-209.4387"/>
<text text-anchor="middle" x="933.5" y="-219.8387" font-family="Times,serif" font-size="14.00" fill="#000000">f</text>
</g>
<!-- a1&#45;&gt;f -->
<g id="edge22" class="edge">
<title>a1-&gt;f</title>
<path fill="none" stroke="#000000" d="M866.8659,-159.1055C877.0769,-169.0405 895.9777,-187.4305 911.0483,-202.0938"/>
<polygon fill="#000000" stroke="#000000" points="908.9058,-204.8925 918.5139,-209.3576 913.7873,-199.8754 908.9058,-204.8925"/>
</g>
<!-- g -->
<g id="node19" class="node">
<title>g</title>
<path fill="none" stroke="#000000" d="M919.6667,-161.4387C919.6667,-161.4387 947.3333,-161.4387 947.3333,-161.4387 952.1667,-161.4387 957,-166.272 957,-171.1053 957,-171.1053 957,-180.772 957,-180.772 957,-185.6053 952.1667,-190.4387 947.3333,-190.4387 947.3333,-190.4387 919.6667,-190.4387 919.6667,-190.4387 914.8333,-190.4387 910,-185.6053 910,-180.772 910,-180.772 910,-171.1053 910,-171.1053 910,-166.272 914.8333,-161.4387 919.6667,-161.4387"/>
<text text-anchor="middle" x="933.5" y="-171.8387" font-family="Times,serif" font-size="14.00" fill="#000000">g</text>
</g>
<!-- a1&#45;&gt;g -->
<g id="edge24" class="edge">
<title>a1-&gt;g</title>
<path fill="none" stroke="#000000" d="M870.739,-155.5838C878.6637,-158.1539 889.7184,-161.7392 900.3453,-165.1858"/>
<polygon fill="#000000" stroke="#000000" points="899.2905,-168.5231 909.8825,-168.2789 901.45,-161.8645 899.2905,-168.5231"/>
</g>
<!-- h -->
<g id="node20" class="node">
<title>h</title>
<path fill="none" stroke="#000000" d="M919.6667,-113.4387C919.6667,-113.4387 947.3333,-113.4387 947.3333,-113.4387 952.1667,-113.4387 957,-118.272 957,-123.1053 957,-123.1053 957,-132.772 957,-132.772 957,-137.6053 952.1667,-142.4387 947.3333,-142.4387 947.3333,-142.4387 919.6667,-142.4387 919.6667,-142.4387 914.8333,-142.4387 910,-137.6053 910,-132.772 910,-132.772 910,-123.1053 910,-123.1053 910,-118.272 914.8333,-113.4387 919.6667,-113.4387"/>
<text text-anchor="middle" x="933.5" y="-123.8387" font-family="Times,serif" font-size="14.00" fill="#000000">h</text>
</g>
<!-- a1&#45;&gt;h -->
<g id="edge26" class="edge">
<title>a1-&gt;h</title>
<path fill="none" stroke="#000000" d="M870.739,-148.2936C878.6637,-145.7234 889.7184,-142.1381 900.3453,-138.6915"/>
<polygon fill="#000000" stroke="#000000" points="901.45,-142.0128 909.8825,-135.5984 899.2905,-135.3542 901.45,-142.0128"/>
</g>
<!-- a2 -->
<g id="node10" class="node">
<title>a2</title>
<polygon fill="#ffff00" stroke="#000000" points="1007.5,-166.4387 993,-151.9387 1007.5,-137.4387 1022,-151.9387 1007.5,-166.4387"/>
<text text-anchor="start" x="1001.861" y="-145.9387" font-family="Times,serif" font-size="20.00" fill="#000000">+</text>
</g>
<!-- o6 -->
<g id="node12" class="node">
<title>o6</title>
<polygon fill="#ffff00" stroke="#000000" points="1072.5,-72.4387 1058,-57.9387 1072.5,-43.4387 1087,-57.9387 1072.5,-72.4387"/>
<text text-anchor="start" x="1066.1646" y="-54.3387" font-family="Times,serif" font-size="12.00" fill="#000000">◯</text>
</g>
<!-- a2&#45;&gt;o6 -->
<g id="edge19" class="edge">
<title>a2-&gt;o6</title>
<path fill="none" stroke="#000000" d="M1013.4985,-143.2639C1024.2367,-127.7348 1046.918,-94.9341 1060.8205,-74.829"/>
<polygon fill="#000000" stroke="#000000" points="1063.7072,-76.8083 1066.516,-66.5925 1057.9496,-72.8269 1063.7072,-76.8083"/>
</g>
<!-- o5&#45;&gt;a1 -->
<g id="edge18" class="edge">
<title>o5:ne-&gt;a1</title>
<path fill="none" stroke="#000000" d="M802.5,-62.9387C802.5,-62.9387 802.5,-69.4387 802.5,-69.4387 810.8089,-96.0819 831.0641,-121.7087 845.0452,-137.1438"/>
<polygon fill="#000000" stroke="#000000" points="842.6568,-139.7135 852.0512,-144.612 847.762,-134.9242 842.6568,-139.7135"/>
</g>
<!-- o5&#45;&gt;o6 -->
<g id="edge28" class="edge">
<title>o5:se-&gt;o6</title>
<path fill="none" stroke="#000000" d="M802.5,-46.9387C852.5777,3.139 887.6518,6.4276 957,-7.9387 993.3666,-15.4724 1032.3571,-35.0431 1054.4562,-47.3461"/>
<polygon fill="#000000" stroke="#000000" points="1052.9304,-50.5051 1063.3511,-52.4181 1056.3978,-44.4242 1052.9304,-50.5051"/>
</g>
<!-- d -->
<g id="node16" class="node">
<title>d</title>
<path fill="none" stroke="#000000" d="M919.6667,-65.4387C919.6667,-65.4387 947.3333,-65.4387 947.3333,-65.4387 952.1667,-65.4387 957,-70.272 957,-75.1053 957,-75.1053 957,-84.772 957,-84.772 957,-89.6053 952.1667,-94.4387 947.3333,-94.4387 947.3333,-94.4387 919.6667,-94.4387 919.6667,-94.4387 914.8333,-94.4387 910,-89.6053 910,-84.772 910,-84.772 910,-75.1053 910,-75.1053 910,-70.272 914.8333,-65.4387 919.6667,-65.4387"/>
<text text-anchor="middle" x="933.5" y="-75.8387" font-family="Times,serif" font-size="14.00" fill="#000000">d</text>
</g>
<!-- o5&#45;&gt;d -->
<g id="edge20" class="edge">
<title>o5-&gt;d</title>
<path fill="none" stroke="#000000" d="M806.8353,-57.1573C827.5186,-60.8773 869.8746,-68.4953 899.9033,-73.8961"/>
<polygon fill="#000000" stroke="#000000" points="899.4933,-77.3784 909.955,-75.704 900.7325,-70.489 899.4933,-77.3784"/>
</g>
<!-- e -->
<g id="node17" class="node">
<title>e</title>
<path fill="none" stroke="#000000" d="M919.6667,-17.4387C919.6667,-17.4387 947.3333,-17.4387 947.3333,-17.4387 952.1667,-17.4387 957,-22.272 957,-27.1053 957,-27.1053 957,-36.772 957,-36.772 957,-41.6053 952.1667,-46.4387 947.3333,-46.4387 947.3333,-46.4387 919.6667,-46.4387 919.6667,-46.4387 914.8333,-46.4387 910,-41.6053 910,-36.772 910,-36.772 910,-27.1053 910,-27.1053 910,-22.272 914.8333,-17.4387 919.6667,-17.4387"/>
<text text-anchor="middle" x="933.5" y="-27.8387" font-family="Times,serif" font-size="14.00" fill="#000000">e</text>
</g>
<!-- o5&#45;&gt;e -->
<g id="edge16" class="edge">
<title>o5-&gt;e</title>
<path fill="none" stroke="#000000" d="M807.3276,-52.8161C828.1892,-49.3642 870.1299,-42.4244 899.9236,-37.4945"/>
<polygon fill="#000000" stroke="#000000" points="900.6064,-40.9292 909.9009,-35.8436 899.4636,-34.0231 900.6064,-40.9292"/>
</g>
<!-- i -->
<g id="node21" class="node">
<title>i</title>
<path fill="none" stroke="#000000" d="M1132.6667,-43.4387C1132.6667,-43.4387 1160.3333,-43.4387 1160.3333,-43.4387 1165.1667,-43.4387 1170,-48.272 1170,-53.1053 1170,-53.1053 1170,-62.772 1170,-62.772 1170,-67.6053 1165.1667,-72.4387 1160.3333,-72.4387 1160.3333,-72.4387 1132.6667,-72.4387 1132.6667,-72.4387 1127.8333,-72.4387 1123,-67.6053 1123,-62.772 1123,-62.772 1123,-53.1053 1123,-53.1053 1123,-48.272 1127.8333,-43.4387 1132.6667,-43.4387"/>
<text text-anchor="middle" x="1146.5" y="-53.8387" font-family="Times,serif" font-size="14.00" fill="#000000">i</text>
</g>
<!-- o6&#45;&gt;i -->
<g id="edge29" class="edge">
<title>o6-&gt;i</title>
<path fill="none" stroke="#000000" d="M1087.12,-57.9387C1094.4464,-57.9387 1103.648,-57.9387 1112.6052,-57.9387"/>
<polygon fill="#000000" stroke="#000000" points="1112.8809,-61.4388 1122.8809,-57.9387 1112.8809,-54.4388 1112.8809,-61.4388"/>
</g>
<!-- a&#45;&gt;x1 -->
<g id="edge2" class="edge">
<title>a-&gt;x1</title>
<path fill="none" stroke="#000000" d="M105.3214,-62.9387C113.4296,-62.9387 122.5091,-62.9387 130.6927,-62.9387"/>
<polygon fill="#000000" stroke="#000000" points="130.7777,-66.4388 140.7777,-62.9387 130.7776,-59.4388 130.7777,-66.4388"/>
</g>
<!-- b&#45;&gt;x2 -->
<g id="edge4" class="edge">
<title>b-&gt;x2</title>
<path fill="none" stroke="#000000" d="M253.3214,-79.2128C262.7962,-76.1399 273.5972,-72.6369 282.7452,-69.67"/>
<polygon fill="#000000" stroke="#000000" points="284.1138,-72.9057 292.5462,-66.4913 281.9542,-66.2471 284.1138,-72.9057"/>
</g>
<!-- c&#45;&gt;o4 -->
<g id="edge13" class="edge">
<title>c-&gt;o4</title>
<path fill="none" stroke="#000000" d="M679.3214,-69.8566C688.6747,-67.0759 699.3205,-63.911 708.3925,-61.2139"/>
<polygon fill="#000000" stroke="#000000" points="709.5597,-64.5183 718.1477,-58.3137 707.5649,-57.8086 709.5597,-64.5183"/>
</g>
<!-- d&#45;&gt;o6 -->
<g id="edge21" class="edge">
<title>d-&gt;o6</title>
<path fill="none" stroke="#000000" d="M957.0795,-76.2067C982.969,-72.109 1024.2466,-65.5759 1049.7867,-61.5336"/>
<polygon fill="#000000" stroke="#000000" points="1050.3483,-64.9884 1059.6782,-59.968 1049.2539,-58.0744 1050.3483,-64.9884"/>
</g>
<!-- e&#45;&gt;o6 -->
<g id="edge17" class="edge">
<title>e-&gt;o6</title>
<path fill="none" stroke="#000000" d="M957.0795,-36.3492C983.1046,-41.2172 1024.6792,-48.9938 1050.1865,-53.7649"/>
<polygon fill="#000000" stroke="#000000" points="1049.5693,-57.2101 1060.0423,-55.6085 1050.8564,-50.3294 1049.5693,-57.2101"/>
</g>
<!-- f&#45;&gt;a2 -->
<g id="edge23" class="edge">
<title>f-&gt;a2</title>
<path fill="none" stroke="#000000" d="M948.475,-209.3684C961.2239,-196.964 979.4581,-179.2227 992.2774,-166.7499"/>
<polygon fill="#000000" stroke="#000000" points="995.0809,-168.9054 999.8075,-159.4233 990.1994,-163.8883 995.0809,-168.9054"/>
</g>
<!-- g&#45;&gt;a2 -->
<g id="edge25" class="edge">
<title>g-&gt;a2</title>
<path fill="none" stroke="#000000" d="M957.3214,-168.2128C966.7962,-165.1399 977.5972,-161.6369 986.7452,-158.67"/>
<polygon fill="#000000" stroke="#000000" points="988.1138,-161.9057 996.5462,-155.4913 985.9542,-155.2471 988.1138,-161.9057"/>
</g>
<!-- h&#45;&gt;a2 -->
<g id="edge27" class="edge">
<title>h-&gt;a2</title>
<path fill="none" stroke="#000000" d="M957.3214,-135.6645C966.7962,-138.7374 977.5972,-142.2405 986.7452,-145.2074"/>
<polygon fill="#000000" stroke="#000000" points="985.9542,-148.6303 996.5462,-148.3861 988.1138,-141.9717 985.9542,-148.6303"/>
</g>
<!-- i&#45;&gt;out -->
<g id="edge30" class="edge">
<title>i-&gt;out</title>
<path fill="none" stroke="#000000" d="M1170.3681,-57.9387C1178.607,-57.9387 1187.7753,-57.9387 1195.7872,-57.9387"/>
<polygon fill="#000000" stroke="#000000" points="1195.7999,-61.4388 1205.7999,-57.9387 1195.7998,-54.4388 1195.7999,-61.4388"/>
</g>
<!-- j&#45;&gt;x2 -->
<g id="edge6" class="edge">
<title>j-&gt;x2</title>
<path fill="none" stroke="#000000" d="M253.3214,-46.6645C262.7962,-49.7374 273.5972,-53.2405 282.7452,-56.2074"/>
<polygon fill="#000000" stroke="#000000" points="281.9542,-59.6303 292.5462,-59.3861 284.1138,-52.9717 281.9542,-59.6303"/>
</g>
<!-- k&#45;&gt;o2 -->
<g id="edge9" class="edge">
<title>k-&gt;o2</title>
<path fill="none" stroke="#000000" d="M466.3214,-73.8566C475.6747,-71.0759 486.3205,-67.911 495.3925,-65.2139"/>
<polygon fill="#000000" stroke="#000000" points="496.5597,-68.5183 505.1477,-62.3137 494.5649,-61.8086 496.5597,-68.5183"/>
</g>
</g>
</svg>