<?xml version="1.0" encoding="UTF-8" standalone="no"?>
<!DOCTYPE svg PUBLIC "-//W3C//DTD SVG 1.1//EN" "http://www.w3.org/Graphics/SVG/1.1/DTD/svg11.dtd">
<!-- Generated by graphviz version 2.40.1 (20161225.0304)
 -->
<!-- Title: G Pages: 1 -->
<svg width="803pt" height="160pt" viewBox="0.00 0.00 803.00 159.50" xmlns="http://www.w3.org/2000/svg" xmlns:xlink="http://www.w3.org/1999/xlink">
<g id="graph0" class="graph" transform="scale(1 1) rotate(0) translate(4 155.5)">
<title>G</title>
<polygon fill="#ffffff" stroke="transparent" points="-4,4 -4,-155.5 799,-155.5 799,4 -4,4"/>
<!-- in -->
<g id="node1" class="node">
<title>in</title>
<ellipse fill="none" stroke="#000000" cx="11" cy="-43" rx="11" ry="11"/>
<text text-anchor="middle" x="11" y="-37" font-family="Times,serif" font-size="20.00" fill="#000000">•</text>
</g>
<!-- a -->
<g id="node9" class="node">
<title>a</title>
<polygon fill="none" stroke="#000000" points="87,-57.5 58,-57.5 58,-28.5 87,-28.5 87,-57.5"/>
<text text-anchor="middle" x="72.5" y="-38.8" font-family="Times,serif" font-size="14.00" fill="#000000">a</text>
</g>
<!-- in&#45;&gt;a -->
<g id="edge1" class="edge">
<title>in-&gt;a</title>
<path fill="none" stroke="#000000" d="M22.28,-43C29.3801,-43 38.8328,-43 47.621,-43"/>
<polygon fill="#000000" stroke="#000000" points="47.8083,-46.5001 57.8083,-43 47.8083,-39.5001 47.8083,-46.5001"/>
</g>
<!-- out -->
<g id="node2" class="node">
<title>out</title>
<ellipse fill="#000000" stroke="#000000" cx="784" cy="-21" rx="11" ry="11"/>
</g>
<!-- x1 -->
<g id="node3" class="node">
<title>x1</title>
<polygon fill="#ffff00" stroke="#000000" points="137.5,-57.5 123,-43 137.5,-28.5 152,-43 137.5,-57.5"/>
<text text-anchor="start" x="133" y="-39.4" font-family="Times,serif" font-size="12.00" fill="#000000">✕</text>
</g>
<!-- b -->
<g id="node10" class="node">
<title>b</title>
<polygon fill="none" stroke="#000000" points="217,-104.5 188,-104.5 188,-75.5 217,-75.5 217,-104.5"/>
<text text-anchor="middle" x="202.5" y="-85.8" font-family="Times,serif" font-size="14.00" fill="#000000">b</text>
</g>
<!-- x1&#45;&gt;b -->
<g id="edge5" class="edge">
<title>x1-&gt;b</title>
<path fill="none" stroke="#000000" d="M145.9976,-49.1444C154.4436,-55.2516 167.7761,-64.892 179.3694,-73.2748"/>
<polygon fill="#000000" stroke="#000000" points="177.6317,-76.3374 187.786,-79.3607 181.7333,-70.6649 177.6317,-76.3374"/>
</g>
<!-- f -->
<g id="node14" class="node">
<title>f</title>
<polygon fill="none" stroke="#000000" points="217,-57.5 188,-57.5 188,-28.5 217,-28.5 217,-57.5"/>
<text text-anchor="middle" x="202.5" y="-38.8" font-family="Times,serif" font-size="14.00" fill="#000000">f</text>
</g>
<!-- x1&#45;&gt;f -->
<g id="edge3" class="edge">
<title>x1-&gt;f</title>
<path fill="none" stroke="#000000" d="M152.2495,-43C159.7291,-43 169.0181,-43 177.5673,-43"/>
<polygon fill="#000000" stroke="#000000" points="177.8089,-46.5001 187.8089,-43 177.8088,-39.5001 177.8089,-46.5001"/>
</g>
<!-- x2 -->
<g id="node4" class="node">
<title>x2</title>
<polygon fill="#ffff00" stroke="#000000" points="267.5,-82.5 253,-68 267.5,-53.5 282,-68 267.5,-82.5"/>
<text text-anchor="start" x="263" y="-64.4" font-family="Times,serif" font-size="12.00" fill="#000000">✕</text>
</g>
<!-- a1 -->
<g id="node5" class="node">
<title>a1</title>
<polygon fill="#ffff00" stroke="#000000" points="332.5,-82.5 318,-68 332.5,-53.5 347,-68 332.5,-82.5"/>
<text text-anchor="start" x="326.861" y="-62" font-family="Times,serif" font-size="20.00" fill="#000000">+</text>
</g>
<!-- x2&#45;&gt;a1 -->
<g id="edge7" class="edge">
<title>x2-&gt;a1</title>
<path fill="none" stroke="#000000" d="M282.2495,-68C289.7291,-68 299.0181,-68 307.5673,-68"/>
<polygon fill="#000000" stroke="#000000" points="307.8089,-71.5001 317.8089,-68 307.8088,-64.5001 307.8089,-71.5001"/>
</g>
<!-- o1 -->
<g id="node7" class="node">
<title>o1</title>
<polygon fill="#ffff00" stroke="#000000" points="397.5,-104.5 383,-90 397.5,-75.5 412,-90 397.5,-104.5"/>
<text text-anchor="start" x="391.1646" y="-86.4" font-family="Times,serif" font-size="12.00" fill="#000000">◯</text>
</g>
<!-- a1&#45;&gt;o1 -->
<g id="edge8" class="edge">
<title>a1-&gt;o1</title>
<path fill="none" stroke="#000000" d="M343.5264,-71.732C352.6392,-74.8163 365.8289,-79.2806 376.8884,-83.0238"/>
<polygon fill="#000000" stroke="#000000" points="376.0422,-86.4323 386.6365,-86.3231 378.2864,-79.8018 376.0422,-86.4323"/>
</g>
<!-- d -->
<g id="node12" class="node">
<title>d</title>
<polygon fill="none" stroke="#000000" points="477,-57.5 448,-57.5 448,-28.5 477,-28.5 477,-57.5"/>
<text text-anchor="middle" x="462.5" y="-38.8" font-family="Times,serif" font-size="14.00" fill="#000000">d</text>
</g>
<!-- a1&#45;&gt;d -->
<g id="edge10" class="edge">
<title>a1-&gt;d</title>
<path fill="none" stroke="#000000" d="M344.9649,-65.6029C366.2842,-61.503 410.1244,-53.0722 437.8211,-47.746"/>
<polygon fill="#000000" stroke="#000000" points="438.7478,-51.1319 447.9069,-45.8064 437.4258,-44.2579 438.7478,-51.1319"/>
</g>
<!-- a2 -->
<g id="node6" class="node">
<title>a2</title>
<polygon fill="#ffff00" stroke="#000000" points="592.5,-57.5 578,-43 592.5,-28.5 607,-43 592.5,-57.5"/>
<text text-anchor="start" x="586.861" y="-37" font-family="Times,serif" font-size="20.00" fill="#000000">+</text>
</g>
<!-- g -->
<g id="node15" class="node">
<title>g</title>
<polygon fill="none" stroke="#000000" points="672,-35.5 643,-35.5 643,-6.5 672,-6.5 672,-35.5"/>
<text text-anchor="middle" x="657.5" y="-16.8" font-family="Times,serif" font-size="14.00" fill="#000000">g</text>
</g>
<!-- a2&#45;&gt;g -->
<g id="edge17" class="edge">
<title>a2-&gt;g</title>
<path fill="none" stroke="#000000" d="M603.5264,-39.268C611.6759,-36.5097 623.0861,-32.6478 633.3173,-29.1849"/>
<polygon fill="#000000" stroke="#000000" points="634.6411,-32.432 642.9911,-25.9107 632.3968,-25.8015 634.6411,-32.432"/>
</g>
<!-- c -->
<g id="node11" class="node">
<title>c</title>
<polygon fill="none" stroke="#000000" points="477,-151.5 448,-151.5 448,-122.5 477,-122.5 477,-151.5"/>
<text text-anchor="middle" x="462.5" y="-132.8" font-family="Times,serif" font-size="14.00" fill="#000000">c</text>
</g>
<!-- o1&#45;&gt;c -->
<g id="edge12" class="edge">
<title>o1-&gt;c</title>
<path fill="none" stroke="#000000" d="M405.9976,-96.1444C414.4436,-102.2516 427.7761,-111.892 439.3694,-120.2748"/>
<polygon fill="#000000" stroke="#000000" points="437.6317,-123.3374 447.786,-126.3607 441.7333,-117.6649 437.6317,-123.3374"/>
</g>
<!-- s1 -->
<g id="node16" class="node">
<title>s1</title>
<polygon fill="#000000" stroke="#000000" points="477,-104.5 448,-104.5 448,-75.5 477,-75.5 477,-104.5"/>
</g>
<!-- o1&#45;&gt;s1 -->
<g id="edge14" class="edge">
<title>o1-&gt;s1</title>
<path fill="none" stroke="#000000" d="M412.2495,-90C419.7291,-90 429.0181,-90 437.5673,-90"/>
<polygon fill="#000000" stroke="#000000" points="437.8089,-93.5001 447.8089,-90 437.8088,-86.5001 437.8089,-93.5001"/>
</g>
<!-- o2 -->
<g id="node8" class="node">
<title>o2</title>
<polygon fill="#ffff00" stroke="#000000" points="527.5,-104.5 513,-90 527.5,-75.5 542,-90 527.5,-104.5"/>
<text text-anchor="start" x="521.1646" y="-86.4" font-family="Times,serif" font-size="12.00" fill="#000000">◯</text>
</g>
<!-- o2&#45;&gt;a2 -->
<g id="edge9" class="edge">
<title>o2-&gt;a2</title>
<path fill="none" stroke="#000000" d="M535.9976,-83.8556C545.9664,-76.6474 562.7424,-64.517 575.4314,-55.3419"/>
<polygon fill="#000000" stroke="#000000" points="577.7401,-57.9917 583.7928,-49.2959 573.6385,-52.3192 577.7401,-57.9917"/>
</g>
<!-- a&#45;&gt;x1 -->
<g id="edge2" class="edge">
<title>a-&gt;x1</title>
<path fill="none" stroke="#000000" d="M87.2495,-43C94.7291,-43 104.0181,-43 112.5673,-43"/>
<polygon fill="#000000" stroke="#000000" points="112.8089,-46.5001 122.8089,-43 112.8088,-39.5001 112.8089,-46.5001"/>
</g>
<!-- b&#45;&gt;x2 -->
<g id="edge6" class="edge">
<title>b-&gt;x2</title>
<path fill="none" stroke="#000000" d="M217.2495,-85.0079C226.0518,-82.0286 237.3599,-78.2012 247.0193,-74.9319"/>
<polygon fill="#000000" stroke="#000000" points="248.307,-78.1912 256.6571,-71.6699 246.0628,-71.5607 248.307,-78.1912"/>
</g>
<!-- c&#45;&gt;o2 -->
<g id="edge13" class="edge">
<title>c-&gt;o2</title>
<path fill="none" stroke="#000000" d="M477.2495,-126.335C487.2153,-119.129 500.3932,-109.6003 510.7537,-102.1089"/>
<polygon fill="#000000" stroke="#000000" points="512.9288,-104.8552 518.9815,-96.1595 508.8272,-99.1828 512.9288,-104.8552"/>
</g>
<!-- d&#45;&gt;a2 -->
<g id="edge11" class="edge">
<title>d-&gt;a2</title>
<path fill="none" stroke="#000000" d="M477.1599,-43C499.104,-43 540.7715,-43 567.5596,-43"/>
<polygon fill="#000000" stroke="#000000" points="567.6942,-46.5001 577.6942,-43 567.6941,-39.5001 567.6942,-46.5001"/>
</g>
<!-- e -->
<g id="node13" class="node">
<title>e</title>
<polygon fill="none" stroke="#000000" points="737,-35.5 708,-35.5 708,-6.5 737,-6.5 737,-35.5"/>
<text text-anchor="middle" x="722.5" y="-16.8" font-family="Times,serif" font-size="14.00" fill="#000000">e</text>
</g>
<!-- e&#45;&gt;out -->
<g id="edge19" class="edge">
<title>e-&gt;out</title>
<path fill="none" stroke="#000000" d="M737.0746,-21C744.6815,-21 754.1346,-21 762.5586,-21"/>
<polygon fill="#000000" stroke="#000000" points="762.7982,-24.5001 772.7982,-21 762.7981,-17.5001 762.7982,-24.5001"/>
</g>
<!-- f&#45;&gt;x2 -->
<g id="edge4" class="edge">
<title>f-&gt;x2</title>
<path fill="none" stroke="#000000" d="M217.2495,-48.6729C226.0518,-52.0584 237.3599,-56.4077 247.0193,-60.1228"/>
<polygon fill="#000000" stroke="#000000" points="246.0671,-63.5065 256.6571,-63.8296 248.58,-56.9731 246.0671,-63.5065"/>
</g>
<!-- g&#45;&gt;x1 -->
<g id="edge18" class="edge">
<title>g-&gt;x1</title>
<path fill="none" stroke="#000000" d="M642.8079,-17.0501C618.8505,-10.9669 569.7947,0 527.5,0 267.5,0 267.5,0 267.5,0 225.9221,0 180.476,-20.0715 155.855,-32.7883"/>
<polygon fill="#000000" stroke="#000000" points="154.1018,-29.7567 146.9288,-37.554 157.3987,-35.9317 154.1018,-29.7567"/>
</g>
<!-- g&#45;&gt;e -->
<g id="edge16" class="edge">
<title>g-&gt;e</title>
<path fill="none" stroke="#000000" d="M672.2495,-21C679.7291,-21 689.0181,-21 697.5673,-21"/>
<polygon fill="#000000" stroke="#000000" points="697.8089,-24.5001 707.8089,-21 697.8088,-17.5001 697.8089,-24.5001"/>
</g>
<!-- s1&#45;&gt;o2 -->
<g id="edge15" class="edge">
<title>s1-&gt;o2</title>
<path fill="none" stroke="#000000" d="M477.2495,-90C484.7291,-90 494.0181,-90 502.5673,-90"/>
<polygon fill="#000000" stroke="#000000" points="502.8089,-93.5001 512.8089,-90 502.8088,-86.5001 502.8089,-93.5001"/>
</g>
</g>
</svg>